; Drill file
; Format: 2.4 (00.0000)
M48
INCH
T01C0.0118
T02C0.0157
T03C0.0197
T04C0.0236
T05C0.0276
T06C0.0315
T07C0.122
%
G05
G90
T01
X009740Y031650
X009740Y032360
X009740Y033070
X009740Y033780
X009740Y034490
X010450Y034490
X011160Y034490
X011870Y034490
X012570Y034490
X013280Y034490
X013280Y033780
X012570Y033780
X011870Y033780
X011160Y033780
X010450Y033780
X010450Y033070
X011160Y033070
X011870Y033070
X012570Y033070
X013280Y033070
X013280Y032360
X012570Y032360
X011870Y032360
X011160Y032360
X010450Y032360
X010450Y031650
X011160Y031650
X011870Y031650
X012570Y031650
X013280Y031650
X014880Y031720
X014880Y035250
X015750Y035910
X016780Y035910
X017220Y035560
X017780Y035250
X018220Y034810
X019040Y036490
X018590Y037840
X019250Y038520
X021280Y038780
X021560Y038620
X021840Y038440
X020750Y040000
X020690Y040370
X017500Y040690
X015620Y042500
X014640Y042500
X013640Y042500
X012640Y042500
X013060Y043750
X012060Y043750
X011060Y043750
X010060Y043750
X006160Y043830
X006160Y043120
X006160Y042410
X006160Y041700
X006160Y044540
X006160Y045250
X006060Y048910
X006060Y049620
X006060Y050330
X006060Y051040
X006060Y051750
X008120Y052060
X010560Y051560
X010560Y049560
X012120Y049560
X016630Y043780
X017620Y043810
X019310Y044810
X021690Y043810
X022120Y043810
X025500Y043810
X026190Y041120
X026820Y037110
X026820Y034360
X027530Y032630
X028630Y031520
X026400Y030740
X024270Y030870
X023730Y032230
X026770Y028120
X029630Y035480
X029620Y037630
X032530Y041700
X032530Y042410
X032530Y043120
X032530Y043830
X032530Y044540
X032530Y045250
X032530Y048940
X032530Y049650
X032530Y050360
X032530Y051070
X032530Y051780
X029500Y049500
X026500Y049500
X025500Y049500
X024380Y050690
X022120Y051560
T02
X021560Y033630
X022980Y035050
X021120Y051560
X021120Y054560
X017620Y054560
X017620Y051560
T03
X006880Y049560
X006880Y051560
X006880Y052560
X006880Y053560
X006880Y054560
X006880Y055560
X009880Y055560
X009880Y054560
X009880Y053560
X011250Y053560
X011250Y054560
X011250Y055560
X014250Y055560
X014250Y054560
X014250Y053560
X015620Y053560
X015620Y054560
X015620Y055560
X018630Y055560
X018630Y054560
X018630Y053560
X020000Y053560
X020000Y054560
X020000Y055560
X023000Y055560
X023000Y054560
X023000Y053560
X024380Y053560
X024380Y054560
X024380Y055560
X027370Y055560
X027370Y054560
X027370Y053560
X028750Y053560
X028750Y054560
X028750Y055560
X031750Y055560
X031750Y054560
X031750Y053560
X031750Y051560
X031750Y049560
X028750Y049560
X027370Y049560
X027370Y051560
X028750Y051560
X028750Y052560
X024380Y052560
X024380Y051560
X023000Y051560
X023000Y049560
X024380Y049560
X020000Y049560
X018630Y049560
X018630Y051560
X020000Y051560
X020000Y052560
X015620Y052560
X015620Y051560
X014250Y051560
X014250Y049560
X015620Y049560
X011250Y049560
X009880Y049560
X009880Y051560
X011250Y051560
X011250Y052560
T04
X017750Y025250
X018750Y025250
X019750Y025250
X020750Y025250
X024420Y036800
X024420Y040800
T05
X017960Y027640
X017960Y029410
X020520Y029410
X020520Y027640
T06
X011880Y036750
X012880Y036750
X012880Y037750
X011880Y037750
X011880Y038750
X012880Y038750
T07
X010060Y024440
X028810Y024440
X019310Y042000
M30
