%FSLAX34Y34*%
%MOMM*%
%LNSILK_TOP*%
G71*
G01*
%ADD10C, 0.200*%
%ADD11C, 0.167*%
%ADD12C, 0.238*%
%ADD13C, 0.144*%
%ADD14C, 0.300*%
%ADD15C, 0.150*%
%ADD16C, 0.400*%
%ADD17C, 0.100*%
%LPD*%
G54D10*
X158750Y1430275D02*
X266700Y1430275D01*
X266700Y1239775D01*
X158750Y1239775D01*
X158750Y1430275D01*
G54D11*
X532908Y1103124D02*
X532908Y1116457D01*
X537908Y1116457D01*
X539908Y1115624D01*
X540908Y1113957D01*
X540908Y1112291D01*
X539908Y1110624D01*
X537908Y1109791D01*
X539908Y1108957D01*
X540908Y1107291D01*
X540908Y1105624D01*
X539908Y1103957D01*
X537908Y1103124D01*
X532908Y1103124D01*
G54D11*
X532908Y1109791D02*
X537908Y1109791D01*
G54D11*
X567834Y1103124D02*
X572834Y1116457D01*
X577834Y1103124D01*
G54D11*
X569834Y1108124D02*
X575834Y1108124D01*
G54D11*
X723471Y1104036D02*
X722471Y1102370D01*
X720471Y1101536D01*
X718471Y1101536D01*
X716471Y1102370D01*
X715471Y1104036D01*
X715471Y1112370D01*
X716471Y1114036D01*
X718471Y1114870D01*
X720471Y1114870D01*
X722471Y1114036D01*
X723471Y1112370D01*
G54D11*
X727138Y1101536D02*
X732138Y1114870D01*
X737138Y1101536D01*
G54D11*
X729138Y1106536D02*
X735138Y1106536D01*
G54D11*
X740805Y1104036D02*
X741805Y1102370D01*
X743805Y1101536D01*
X745805Y1101536D01*
X747805Y1102370D01*
X748805Y1104036D01*
X748805Y1105703D01*
X747805Y1107370D01*
X745805Y1108203D01*
X743805Y1108203D01*
X741805Y1109036D01*
X740805Y1110703D01*
X740805Y1112370D01*
X741805Y1114036D01*
X743805Y1114870D01*
X745805Y1114870D01*
X747805Y1114036D01*
X748805Y1112370D01*
G54D11*
X759472Y1101536D02*
X752472Y1101536D01*
X752472Y1114870D01*
X759472Y1114870D01*
G54D11*
X752472Y1108203D02*
X759472Y1108203D01*
G54D11*
X440896Y1107212D02*
X439896Y1105545D01*
X437896Y1104712D01*
X435896Y1104712D01*
X433896Y1105545D01*
X432896Y1107212D01*
X432896Y1115545D01*
X433896Y1117212D01*
X435896Y1118045D01*
X437896Y1118045D01*
X439896Y1117212D01*
X440896Y1115545D01*
G54D11*
X405908Y1104712D02*
X405908Y1118045D01*
X410908Y1118045D01*
X412908Y1117212D01*
X413908Y1115545D01*
X413908Y1107212D01*
X412908Y1105545D01*
X410908Y1104712D01*
X405908Y1104712D01*
G54D12*
X251771Y1049149D02*
X251771Y1062482D01*
X258438Y1054149D01*
X265104Y1062482D01*
X265104Y1049149D01*
G54D12*
X280438Y1051649D02*
X279104Y1049982D01*
X276438Y1049149D01*
X273771Y1049149D01*
X271104Y1049982D01*
X269771Y1051649D01*
X269771Y1059982D01*
X271104Y1061649D01*
X273771Y1062482D01*
X276438Y1062482D01*
X279104Y1061649D01*
X280438Y1059982D01*
G54D12*
X285105Y1062482D02*
X285105Y1051649D01*
X286438Y1049982D01*
X289105Y1049149D01*
X291772Y1049149D01*
X294438Y1049982D01*
X295772Y1051649D01*
X295772Y1062482D01*
G54D12*
X308040Y1049149D02*
X308040Y1061649D01*
X309373Y1062482D01*
X310706Y1061982D01*
G54D12*
X305373Y1056649D02*
X310706Y1056649D01*
G54D12*
X323373Y1051149D02*
X323373Y1054482D01*
X322040Y1056149D01*
X319373Y1056649D01*
X316706Y1056149D01*
X315373Y1054482D01*
X315373Y1051149D01*
X316706Y1049482D01*
X319373Y1049149D01*
X322040Y1049482D01*
X323373Y1051149D01*
G54D12*
X328040Y1049149D02*
X328040Y1056649D01*
G54D12*
X328040Y1054982D02*
X330707Y1056649D01*
X333373Y1056649D01*
G54D12*
X348307Y1049149D02*
X348307Y1062482D01*
G54D12*
X342974Y1062482D02*
X353641Y1062482D01*
G54D12*
X358308Y1049149D02*
X368975Y1049149D01*
G54D12*
X363641Y1049149D02*
X363641Y1062482D01*
G54D12*
X358308Y1062482D02*
X368975Y1062482D01*
G54D12*
X373642Y1062482D02*
X373642Y1049149D01*
X382975Y1049149D01*
G54D12*
X387642Y1059982D02*
X388975Y1061649D01*
X391642Y1062482D01*
X394309Y1062482D01*
X396975Y1061649D01*
X398309Y1059982D01*
X398309Y1058316D01*
X396975Y1056649D01*
X394309Y1055816D01*
X396975Y1054982D01*
X398309Y1053316D01*
X398309Y1051649D01*
X396975Y1049982D01*
X394309Y1049149D01*
X391642Y1049149D01*
X388975Y1049982D01*
X387642Y1051649D01*
G54D12*
X402976Y1057482D02*
X409643Y1062482D01*
X409643Y1049149D01*
G54D12*
X414310Y1057482D02*
X420977Y1062482D01*
X420977Y1049149D01*
G54D11*
X803640Y1111576D02*
X803640Y1103243D01*
X802640Y1101576D01*
X800640Y1100743D01*
X798640Y1100743D01*
X796640Y1101576D01*
X795640Y1103243D01*
X795640Y1111576D01*
X796640Y1113243D01*
X798640Y1114076D01*
X800640Y1114076D01*
X802640Y1113243D01*
X803640Y1111576D01*
G54D11*
X675846Y1114870D02*
X667846Y1114870D01*
X667846Y1109036D01*
X668846Y1109036D01*
X670846Y1109870D01*
X672846Y1109870D01*
X674846Y1109036D01*
X675846Y1107370D01*
X675846Y1104036D01*
X674846Y1102370D01*
X672846Y1101536D01*
X670846Y1101536D01*
X668846Y1102370D01*
X667846Y1104036D01*
G54D10*
X487633Y901750D02*
X439549Y949833D01*
X489047Y999331D01*
X538544Y949833D01*
X490461Y901750D01*
X487633Y901750D01*
G54D10*
G75*
G01X492372Y910085D02*
G03X492372Y910085I-3175J0D01*
G01*
G36*
G75*
G01X492372Y910085D02*
G03X492372Y910085I-3175J0D01*
G01*
G37*
X492372Y910085D01*
G54D13*
X480283Y932465D02*
X472112Y940636D01*
X480283Y938594D01*
X478241Y946765D01*
X486412Y938594D01*
G54D13*
X492030Y947276D02*
X492438Y945642D01*
X491723Y943905D01*
X490498Y942680D01*
X488761Y941965D01*
X487127Y942373D01*
X482020Y947480D01*
X481612Y949114D01*
X482327Y950851D01*
X483552Y952076D01*
X485289Y952791D01*
X486923Y952383D01*
G54D13*
X487638Y956162D02*
X494277Y949523D01*
X495911Y949114D01*
X497647Y949829D01*
X498873Y951055D01*
X499588Y952791D01*
X499179Y954425D01*
X492540Y961064D01*
G54D13*
X497851Y960247D02*
X497851Y966375D01*
X506022Y958204D01*
G54D10*
G75*
G01X604448Y879373D02*
G03X572628Y911193I-15910J15910D01*
G01*
G54D10*
G75*
G01X526666Y865231D02*
G03X558486Y833411I15910J-15910D01*
G01*
G54D10*
X604448Y879373D02*
X558486Y833411D01*
G54D10*
X526666Y865231D02*
X572628Y911193D01*
G54D10*
X574749Y881494D02*
X570507Y877252D01*
G54D10*
X576164Y871595D02*
X564850Y882908D01*
G54D10*
X566264Y861695D02*
X554950Y873009D01*
G54D10*
X560607Y867352D02*
X556365Y863109D01*
G54D10*
X576164Y867352D02*
X570507Y861695D01*
X554950Y877252D01*
X560607Y882908D01*
X576164Y867352D01*
G54D13*
X562442Y922676D02*
X576742Y920633D01*
G54D13*
X570613Y914505D02*
X568570Y928804D01*
G54D13*
X573882Y927988D02*
X573882Y934116D01*
X582053Y925945D01*
G54D10*
X593690Y829574D02*
X561136Y797020D01*
X547666Y810491D01*
X580219Y843044D01*
X593690Y829574D01*
G54D13*
X586754Y802608D02*
X587162Y800974D01*
X586448Y799238D01*
X585222Y798012D01*
X583486Y797297D01*
X581851Y797706D01*
X576744Y802812D01*
X576336Y804447D01*
X577051Y806183D01*
X578277Y807409D01*
X580013Y808124D01*
X581647Y807715D01*
G54D13*
X587265Y816397D02*
X582362Y811494D01*
X585937Y807919D01*
X586550Y808532D01*
X587265Y810268D01*
X588490Y811494D01*
X590227Y812209D01*
X591861Y811800D01*
X593904Y809758D01*
X594312Y808124D01*
X593597Y806387D01*
X592372Y805162D01*
X590635Y804447D01*
X589001Y804855D01*
G54D10*
X639798Y875394D02*
X607245Y842841D01*
X593774Y856311D01*
X626328Y888865D01*
X639798Y875394D01*
G54D13*
X632862Y848427D02*
X633271Y846793D01*
X632556Y845056D01*
X631330Y843831D01*
X629594Y843116D01*
X627959Y843524D01*
X622853Y848631D01*
X622444Y850266D01*
X623159Y852002D01*
X624385Y853228D01*
X626121Y853942D01*
X627755Y853534D01*
G54D13*
X634905Y860683D02*
X633271Y861092D01*
X631534Y860377D01*
X630308Y859151D01*
X629594Y857415D01*
X630002Y855781D01*
X632556Y853227D01*
X633066Y852717D01*
X633883Y855577D01*
X635109Y856802D01*
X636845Y857517D01*
X638480Y857109D01*
X640012Y855577D01*
X640420Y853942D01*
X639705Y852206D01*
X638480Y850980D01*
X636743Y850266D01*
X635109Y850674D01*
X632556Y853227D01*
G54D11*
X469408Y1110545D02*
X477408Y1110545D01*
G54D11*
X473408Y1113878D02*
X473408Y1107212D01*
G54D11*
X489076Y1118045D02*
X481076Y1118045D01*
X481076Y1112212D01*
X482076Y1112212D01*
X484076Y1113045D01*
X486076Y1113045D01*
X488076Y1112212D01*
X489076Y1110545D01*
X489076Y1107212D01*
X488076Y1105545D01*
X486076Y1104712D01*
X484076Y1104712D01*
X482076Y1105545D01*
X481076Y1107212D01*
G54D11*
X492742Y1118045D02*
X497742Y1104712D01*
X502742Y1118045D01*
G54D10*
X447675Y1377888D02*
X447675Y1317562D01*
G36*
X448675Y1377888D02*
X446675Y1377888D01*
X446675Y1378888D01*
X448675Y1378888D01*
X448675Y1377888D01*
G37*
G36*
X446675Y1317562D02*
X448675Y1317562D01*
X448675Y1316562D01*
X446675Y1316562D01*
X446675Y1317562D01*
G37*
G54D10*
X536575Y1377888D02*
X536575Y1317562D01*
G36*
X537575Y1377888D02*
X535575Y1377888D01*
X535575Y1378888D01*
X537575Y1378888D01*
X537575Y1377888D01*
G37*
G36*
X535575Y1317562D02*
X537575Y1317562D01*
X537575Y1316562D01*
X535575Y1316562D01*
X535575Y1317562D01*
G37*
G54D14*
X190500Y1155700D02*
X346075Y1155700D01*
X346075Y1122362D01*
X190500Y1122362D01*
X190500Y1155700D01*
G54D14*
X635794Y1155700D02*
X809625Y1155700D01*
X809625Y1120775D01*
X635794Y1120775D01*
X635794Y1155700D01*
G54D14*
X409575Y1155700D02*
X576262Y1155700D01*
X576262Y1122362D01*
X409575Y1122362D01*
X409575Y1155700D01*
G54D11*
X209564Y1104712D02*
X209564Y1118045D01*
X212897Y1118045D01*
X214230Y1117212D01*
X214897Y1115545D01*
X214897Y1113878D01*
X214230Y1112212D01*
X212897Y1111378D01*
X214230Y1110545D01*
X214897Y1108878D01*
X214897Y1107212D01*
X214230Y1105545D01*
X212897Y1104712D01*
X209564Y1104712D01*
G54D11*
X209564Y1111378D02*
X212897Y1111378D01*
G54D11*
X218564Y1118045D02*
X218564Y1104712D01*
X223230Y1104712D01*
G54D11*
X226898Y1104712D02*
X230231Y1118045D01*
X233564Y1104712D01*
G54D11*
X228231Y1109712D02*
X232231Y1109712D01*
G54D11*
X237232Y1104712D02*
X237232Y1118045D01*
X242565Y1104712D01*
X242565Y1118045D01*
G54D11*
X246232Y1104712D02*
X246232Y1118045D01*
G54D11*
X246232Y1108878D02*
X251565Y1118045D01*
G54D11*
X248232Y1111378D02*
X251565Y1104712D01*
G54D11*
X350408Y1115545D02*
X350408Y1107211D01*
X349408Y1105545D01*
X347408Y1104711D01*
X345408Y1104711D01*
X343408Y1105545D01*
X342408Y1107211D01*
X342408Y1115545D01*
X343408Y1117211D01*
X345408Y1118045D01*
X347408Y1118045D01*
X349408Y1117211D01*
X350408Y1115545D01*
G54D11*
X199596Y1118045D02*
X191596Y1118045D01*
X191596Y1112211D01*
X192596Y1112211D01*
X194596Y1113045D01*
X196596Y1113045D01*
X198596Y1112211D01*
X199596Y1110545D01*
X199596Y1107211D01*
X198596Y1105545D01*
X196596Y1104711D01*
X194596Y1104711D01*
X192596Y1105545D01*
X191596Y1107211D01*
G54D10*
X422838Y702319D02*
X422838Y680094D01*
G54D10*
X422838Y702319D02*
X375213Y702319D01*
X359338Y686444D01*
X359338Y680094D01*
G54D10*
X359338Y661044D02*
X359424Y651876D01*
X375213Y638819D01*
X422924Y638779D01*
X422838Y661044D01*
G54D11*
X448348Y670185D02*
X447348Y668518D01*
X445348Y667685D01*
X443348Y667685D01*
X441348Y668518D01*
X440348Y670185D01*
X440348Y678518D01*
X441348Y680185D01*
X443348Y681018D01*
X445348Y681018D01*
X447348Y680185D01*
X448348Y678518D01*
G54D11*
X452015Y676018D02*
X457015Y681018D01*
X457015Y667685D01*
G54D10*
X251265Y675165D02*
X251265Y696596D01*
X267140Y685484D01*
X251265Y675165D01*
G54D10*
X267537Y674768D02*
X267537Y696993D01*
G54D10*
X237309Y668908D02*
X284934Y668908D01*
G54D10*
X284934Y702246D02*
X237309Y702245D01*
G54D11*
X221885Y708621D02*
X221885Y721955D01*
X226885Y721955D01*
X228885Y721121D01*
X229885Y719455D01*
X229885Y711121D01*
X228885Y709455D01*
X226885Y708621D01*
X221885Y708621D01*
G54D11*
X241552Y708621D02*
X233552Y708621D01*
X233552Y709455D01*
X234552Y711121D01*
X240552Y716121D01*
X241552Y717788D01*
X241552Y719455D01*
X240552Y721121D01*
X238552Y721955D01*
X236552Y721955D01*
X234552Y721121D01*
X233552Y719455D01*
G54D10*
X310198Y644992D02*
X310198Y678330D01*
G54D10*
X322501Y658090D02*
X314563Y658090D01*
X318532Y664440D01*
X322501Y658090D01*
G54D10*
X322898Y664836D02*
X314166Y664836D01*
G54D10*
X327264Y644992D02*
X327263Y678330D01*
G54D11*
X333173Y638126D02*
X333173Y651459D01*
X338173Y651459D01*
X340173Y650626D01*
X341173Y648959D01*
X341173Y640626D01*
X340173Y638959D01*
X338173Y638126D01*
X333173Y638126D01*
G54D11*
X344840Y646459D02*
X349840Y651459D01*
X349840Y638126D01*
G54D10*
X327025Y971550D02*
X333425Y971550D01*
X339725Y977850D01*
X339725Y990650D01*
X333425Y996950D01*
X320625Y996950D01*
X314325Y990650D01*
X314325Y977850D01*
X320625Y971550D01*
X327025Y971550D01*
G54D10*
X301625Y971550D02*
X308025Y971550D01*
X314325Y977850D01*
X314325Y990650D01*
X308025Y996950D01*
X295225Y996950D01*
X288925Y990650D01*
X288925Y977850D01*
X295225Y971550D01*
X301625Y971550D01*
G54D10*
X327025Y946150D02*
X333425Y946150D01*
X339725Y952450D01*
X339725Y965250D01*
X333425Y971550D01*
X320625Y971550D01*
X314325Y965250D01*
X314325Y952450D01*
X320625Y946150D01*
X327025Y946150D01*
G54D10*
X301625Y946150D02*
X308025Y946150D01*
X314325Y952450D01*
X314325Y965250D01*
X308025Y971550D01*
X295225Y971550D01*
X288925Y965250D01*
X288925Y952450D01*
X295225Y946150D01*
X301625Y946150D01*
G54D10*
X327025Y920750D02*
X333425Y920750D01*
X339725Y927050D01*
X339725Y939850D01*
X333425Y946150D01*
X320625Y946150D01*
X314325Y939850D01*
X314325Y927050D01*
X320625Y920750D01*
X327025Y920750D01*
G54D10*
X301625Y920750D02*
X308025Y920750D01*
X314325Y927050D01*
X314325Y939850D01*
X308025Y946150D01*
X295225Y946150D01*
X288925Y939850D01*
X288925Y927050D01*
X295225Y920750D01*
X301625Y920750D01*
G54D15*
X682567Y747035D02*
X698830Y763299D01*
X662697Y799432D01*
X646434Y783169D01*
X682567Y747035D01*
G54D15*
X686102Y750571D02*
X695295Y759763D01*
X691759Y763299D01*
X682567Y754106D01*
X686102Y750571D01*
G54D11*
X708218Y821695D02*
X700558Y814035D01*
X700086Y812149D01*
X700911Y810146D01*
X702326Y808731D01*
X704329Y807906D01*
X706215Y808378D01*
X713875Y816038D01*
G54D11*
X714700Y811677D02*
X716586Y812149D01*
X718589Y811324D01*
X720003Y809910D01*
X720828Y807906D01*
X720357Y806020D01*
X719178Y804842D01*
X717293Y804371D01*
X715289Y805196D01*
X716114Y803192D01*
X715643Y801306D01*
X714464Y800128D01*
X712579Y799656D01*
X710575Y800481D01*
X709161Y801896D01*
X708336Y803899D01*
X708808Y805785D01*
G54D10*
X692395Y737356D02*
X724948Y769910D01*
X738419Y756439D01*
X705865Y723886D01*
X692395Y737356D01*
G54D13*
X726777Y726304D02*
X729637Y727121D01*
X731271Y726712D01*
X733314Y724670D01*
G54D13*
X728411Y719767D02*
X720240Y727938D01*
X723304Y731002D01*
X725040Y731717D01*
X726675Y731309D01*
X727696Y730287D01*
X728105Y728653D01*
X727390Y726917D01*
X724325Y723853D01*
G54D13*
X733824Y738458D02*
X732190Y738867D01*
X730454Y738152D01*
X729228Y736926D01*
X728513Y735190D01*
X728922Y733556D01*
X731475Y731002D01*
X731986Y730491D01*
X732803Y733351D01*
X734028Y734577D01*
X735765Y735292D01*
X737399Y734883D01*
X738931Y733351D01*
X739340Y731717D01*
X738625Y729981D01*
X737399Y728755D01*
X735663Y728040D01*
X734028Y728449D01*
X731475Y731002D01*
G54D10*
X387307Y860730D02*
X387306Y814693D01*
X368256Y814692D01*
X368256Y860730D01*
X387307Y860730D01*
G54D13*
X377727Y872644D02*
X379172Y875244D01*
X380616Y876110D01*
X383505Y876110D01*
G54D13*
X383505Y869177D02*
X371949Y869177D01*
X371949Y873510D01*
X372672Y875244D01*
X374116Y876110D01*
X375561Y876110D01*
X377005Y875244D01*
X377727Y873510D01*
X377727Y869177D01*
G54D13*
X376283Y879288D02*
X371949Y883621D01*
X383505Y883621D01*
G54D16*
G75*
G01X635800Y936999D02*
G03X604742Y936999I-15529J57956D01*
G01*
G54D15*
X689528Y881365D02*
X712528Y881365D01*
X712528Y932465D01*
X689528Y932465D01*
X689528Y881365D01*
G54D15*
X694528Y881365D02*
X707528Y881365D01*
X707528Y886365D01*
X694528Y886365D01*
X694528Y881365D01*
G54D11*
X647049Y890740D02*
X648715Y893740D01*
X650382Y894740D01*
X653715Y894740D01*
G54D11*
X653715Y886740D02*
X640382Y886740D01*
X640382Y891740D01*
X641215Y893740D01*
X642882Y894740D01*
X644549Y894740D01*
X646215Y893740D01*
X647049Y891740D01*
X647049Y886740D01*
G54D11*
X653715Y902407D02*
X640382Y902407D01*
G54D11*
X640382Y898407D02*
X640382Y906407D01*
G54D11*
X651215Y918074D02*
X652882Y917074D01*
X653715Y915074D01*
X653715Y913074D01*
X652882Y911074D01*
X651215Y910074D01*
X642882Y910074D01*
X641215Y911074D01*
X640382Y913074D01*
X640382Y915074D01*
X641215Y917074D01*
X642882Y918074D01*
G54D11*
X645382Y921741D02*
X640382Y926741D01*
X653715Y926741D01*
G54D16*
X231775Y892175D02*
X352425Y892175D01*
X352425Y784225D01*
X333375Y784225D01*
X333375Y717550D01*
X250825Y717550D01*
X250825Y784225D01*
X231775Y784225D01*
X231775Y892175D01*
G54D13*
X281550Y911780D02*
X281550Y902392D01*
X282416Y900947D01*
X284150Y900225D01*
X285883Y900225D01*
X287616Y900947D01*
X288483Y902392D01*
X288483Y911780D01*
G54D13*
X291661Y911780D02*
X295994Y900225D01*
X300327Y911780D01*
G54D13*
X303506Y907447D02*
X307839Y911780D01*
X307839Y900225D01*
G54D13*
X297425Y708130D02*
X297425Y696575D01*
X303491Y696575D01*
G54D13*
X306670Y708130D02*
X313603Y708130D01*
X312736Y706686D01*
X311003Y704519D01*
X309270Y701630D01*
X308403Y699464D01*
X308403Y696575D01*
G54D13*
X321114Y702353D02*
X319381Y702353D01*
X317647Y703075D01*
X316781Y704519D01*
X316781Y705964D01*
X317647Y707408D01*
X319381Y708130D01*
X321114Y708130D01*
X322847Y707408D01*
X323714Y705964D01*
X323714Y704519D01*
X322847Y703075D01*
X321114Y702353D01*
X322847Y701630D01*
X323714Y700186D01*
X323714Y698742D01*
X322847Y697297D01*
X321114Y696575D01*
X319381Y696575D01*
X317647Y697297D01*
X316781Y698742D01*
X316781Y700186D01*
X317647Y701630D01*
X319381Y702353D01*
G54D13*
X333825Y705964D02*
X333825Y698742D01*
X332958Y697297D01*
X331225Y696575D01*
X329492Y696575D01*
X327758Y697297D01*
X326892Y698742D01*
X326892Y705964D01*
X327758Y707408D01*
X329492Y708130D01*
X331225Y708130D01*
X332958Y707408D01*
X333825Y705964D01*
G54D13*
X343936Y708130D02*
X337003Y708130D01*
X337003Y703075D01*
X337869Y703075D01*
X339603Y703797D01*
X341336Y703797D01*
X343069Y703075D01*
X343936Y701630D01*
X343936Y698742D01*
X343069Y697297D01*
X341336Y696575D01*
X339603Y696575D01*
X337869Y697297D01*
X337003Y698742D01*
G54D10*
X422192Y778251D02*
X422192Y756026D01*
G54D10*
X422192Y778251D02*
X374566Y778251D01*
X358692Y762376D01*
X358692Y756026D01*
G54D10*
X358692Y736976D02*
X358777Y727808D01*
X374566Y714751D01*
X422277Y714711D01*
X422192Y736976D01*
G54D11*
X438176Y766755D02*
X437176Y765088D01*
X435176Y764255D01*
X433176Y764255D01*
X431176Y765088D01*
X430176Y766755D01*
X430176Y775088D01*
X431176Y776755D01*
X433176Y777588D01*
X435176Y777588D01*
X437176Y776755D01*
X438176Y775088D01*
G54D11*
X449843Y764255D02*
X441843Y764255D01*
X441843Y765088D01*
X442843Y766755D01*
X448843Y771755D01*
X449843Y773422D01*
X449843Y775088D01*
X448843Y776755D01*
X446843Y777588D01*
X444843Y777588D01*
X442843Y776755D01*
X441843Y775088D01*
G54D10*
X624132Y804031D02*
X656686Y836585D01*
X670156Y823114D01*
X637603Y790561D01*
X624132Y804031D01*
G54D13*
X629939Y824729D02*
X632799Y825546D01*
X634433Y825137D01*
X636476Y823095D01*
G54D13*
X631573Y818192D02*
X623402Y826363D01*
X626467Y829427D01*
X628203Y830142D01*
X629837Y829734D01*
X630858Y828712D01*
X631267Y827078D01*
X630552Y825342D01*
X627488Y822278D01*
G54D13*
X630552Y833513D02*
X635455Y838415D01*
X635863Y836781D01*
X636170Y834023D01*
X636987Y830755D01*
X637906Y828610D01*
X639949Y826567D01*
G54D10*
X642008Y715121D02*
X674562Y682567D01*
X661091Y669097D01*
X628538Y701650D01*
X642008Y715121D01*
G54D13*
X664087Y710789D02*
X664904Y707929D01*
X664495Y706295D01*
X662452Y704252D01*
G54D13*
X657550Y709155D02*
X665721Y717326D01*
X668785Y714262D01*
X669500Y712525D01*
X669091Y710891D01*
X668070Y709870D01*
X666436Y709461D01*
X664700Y710176D01*
X661635Y713240D01*
G54D13*
X671849Y703027D02*
X670623Y704252D01*
X669908Y705989D01*
X670317Y707623D01*
X671338Y708644D01*
X672973Y709053D01*
X674709Y708338D01*
X675935Y707112D01*
X676650Y705376D01*
X676241Y703742D01*
X675220Y702720D01*
X673585Y702312D01*
X671849Y703027D01*
X672564Y701290D01*
X672156Y699656D01*
X671134Y698635D01*
X669500Y698226D01*
X667764Y698941D01*
X666538Y700167D01*
X665823Y701903D01*
X666232Y703537D01*
X667253Y704559D01*
X668887Y704967D01*
X670623Y704252D01*
G54D10*
X578364Y697729D02*
X610917Y665176D01*
X597447Y651705D01*
X564893Y684259D01*
X578364Y697729D01*
G54D13*
X599320Y692274D02*
X600137Y689415D01*
X599728Y687780D01*
X597686Y685738D01*
G54D13*
X592783Y690640D02*
X600954Y698811D01*
X604018Y695747D01*
X604733Y694011D01*
X604325Y692377D01*
X603303Y691355D01*
X601669Y690947D01*
X599933Y691662D01*
X596869Y694726D01*
G54D13*
X605040Y688598D02*
X611168Y688598D01*
X602997Y680427D01*
G54D13*
X616785Y679916D02*
X611678Y674809D01*
X610044Y674400D01*
X608308Y675116D01*
X607082Y676341D01*
X606367Y678078D01*
X606776Y679712D01*
X611883Y684819D01*
X613517Y685227D01*
X615253Y684512D01*
X616479Y683286D01*
X617194Y681550D01*
X616785Y679916D01*
G54D10*
X693749Y870159D02*
X739787Y870159D01*
X739787Y851109D01*
X693749Y851109D01*
X693749Y870159D01*
G54D13*
X713421Y841207D02*
X716021Y839763D01*
X716887Y838318D01*
X716887Y835430D01*
G54D13*
X709954Y835430D02*
X709954Y846985D01*
X714287Y846985D01*
X716021Y846263D01*
X716887Y844818D01*
X716887Y843374D01*
X716021Y841930D01*
X714287Y841207D01*
X709954Y841207D01*
G54D13*
X726998Y835430D02*
X720065Y835430D01*
X720065Y836152D01*
X720932Y837596D01*
X726132Y841930D01*
X726998Y843374D01*
X726998Y844818D01*
X726132Y846263D01*
X724398Y846985D01*
X722665Y846985D01*
X720932Y846263D01*
X720065Y844818D01*
G54D10*
X693749Y965409D02*
X739787Y965409D01*
X739787Y946359D01*
X693749Y946359D01*
X693749Y965409D01*
G54D13*
X713421Y977732D02*
X716021Y976288D01*
X716887Y974843D01*
X716887Y971955D01*
G54D13*
X709954Y971955D02*
X709954Y983510D01*
X714287Y983510D01*
X716021Y982788D01*
X716887Y981343D01*
X716887Y979899D01*
X716021Y978455D01*
X714287Y977732D01*
X709954Y977732D01*
G54D13*
X720065Y981343D02*
X720932Y982788D01*
X722665Y983510D01*
X724398Y983510D01*
X726132Y982788D01*
X726998Y981343D01*
X726998Y979899D01*
X726132Y978455D01*
X724398Y977732D01*
X726132Y977010D01*
X726998Y975566D01*
X726998Y974121D01*
X726132Y972677D01*
X724398Y971955D01*
X722665Y971955D01*
X720932Y972677D01*
X720065Y974121D01*
G54D10*
X503497Y844583D02*
X503497Y798545D01*
X484447Y798545D01*
X484447Y844583D01*
X503497Y844583D01*
G54D13*
X473280Y818396D02*
X474724Y820996D01*
X476169Y821863D01*
X479058Y821863D01*
G54D13*
X479058Y814930D02*
X467502Y814930D01*
X467502Y819263D01*
X468224Y820996D01*
X469669Y821863D01*
X471113Y821863D01*
X472558Y820996D01*
X473280Y819263D01*
X473280Y814930D01*
G54D13*
X469669Y831974D02*
X468224Y831107D01*
X467502Y829374D01*
X467502Y827640D01*
X468224Y825907D01*
X469669Y825040D01*
X473280Y825040D01*
X474002Y825040D01*
X472558Y827640D01*
X472558Y829374D01*
X473280Y831107D01*
X474724Y831974D01*
X476891Y831974D01*
X478335Y831107D01*
X479058Y829374D01*
X479058Y827640D01*
X478335Y825907D01*
X476891Y825040D01*
X473280Y825040D01*
G54D11*
X358886Y989076D02*
X350886Y989076D01*
X350886Y983243D01*
X351886Y983243D01*
X353886Y984076D01*
X355886Y984076D01*
X357886Y983243D01*
X358886Y981576D01*
X358886Y978243D01*
X357886Y976576D01*
X355886Y975743D01*
X353886Y975743D01*
X351886Y976576D01*
X350886Y978243D01*
G54D11*
X362553Y989076D02*
X367553Y975743D01*
X372553Y989076D01*
G54D11*
X349791Y932499D02*
X353791Y932499D01*
X353791Y928332D01*
X352791Y926666D01*
X350791Y925832D01*
X348791Y925832D01*
X346791Y926666D01*
X345791Y928332D01*
X345791Y936666D01*
X346791Y938332D01*
X348791Y939166D01*
X350791Y939166D01*
X352791Y938332D01*
X353791Y936666D01*
G54D11*
X357458Y925832D02*
X357458Y939166D01*
X365458Y925832D01*
X365458Y939166D01*
G54D11*
X369125Y925832D02*
X369125Y939166D01*
X374125Y939166D01*
X376125Y938332D01*
X377125Y936666D01*
X377125Y928332D01*
X376125Y926666D01*
X374125Y925832D01*
X369125Y925832D01*
G54D11*
X247539Y953496D02*
X248539Y951830D01*
X250539Y950996D01*
X252539Y950996D01*
X254539Y951830D01*
X255539Y953496D01*
X255539Y955163D01*
X254539Y956830D01*
X252539Y957663D01*
X250539Y957663D01*
X248539Y958496D01*
X247539Y960163D01*
X247539Y961830D01*
X248539Y963496D01*
X250539Y964330D01*
X252539Y964330D01*
X254539Y963496D01*
X255539Y961830D01*
G54D11*
X267206Y953496D02*
X266206Y951830D01*
X264206Y950996D01*
X262206Y950996D01*
X260206Y951830D01*
X259206Y953496D01*
X259206Y961830D01*
X260206Y963496D01*
X262206Y964330D01*
X264206Y964330D01*
X266206Y963496D01*
X267206Y961830D01*
G54D11*
X270873Y950996D02*
X270873Y964330D01*
G54D11*
X270873Y955163D02*
X278873Y964330D01*
G54D11*
X273873Y957663D02*
X278873Y950996D01*
G54D11*
X250924Y932473D02*
X253924Y930806D01*
X254924Y929140D01*
X254924Y925806D01*
G54D11*
X246924Y925806D02*
X246924Y939140D01*
X251924Y939140D01*
X253924Y938306D01*
X254924Y936640D01*
X254924Y934973D01*
X253924Y933306D01*
X251924Y932473D01*
X246924Y932473D01*
G54D11*
X265591Y925806D02*
X258591Y925806D01*
X258591Y939140D01*
X265591Y939140D01*
G54D11*
X258591Y932473D02*
X265591Y932473D01*
G54D11*
X269258Y928306D02*
X270258Y926640D01*
X272258Y925806D01*
X274258Y925806D01*
X276258Y926640D01*
X277258Y928306D01*
X277258Y929973D01*
X276258Y931640D01*
X274258Y932473D01*
X272258Y932473D01*
X270258Y933306D01*
X269258Y934973D01*
X269258Y936640D01*
X270258Y938306D01*
X272258Y939140D01*
X274258Y939140D01*
X276258Y938306D01*
X277258Y936640D01*
G54D11*
X296227Y1003494D02*
X304227Y1003494D01*
G54D11*
X300227Y1003494D02*
X300227Y1016827D01*
G54D11*
X296227Y1016827D02*
X304227Y1016827D01*
G54D11*
X307894Y1005994D02*
X308894Y1004327D01*
X310894Y1003494D01*
X312894Y1003494D01*
X314894Y1004327D01*
X315894Y1005994D01*
X315894Y1007660D01*
X314894Y1009327D01*
X312894Y1010160D01*
X310894Y1010160D01*
X308894Y1010994D01*
X307894Y1012660D01*
X307894Y1014327D01*
X308894Y1015994D01*
X310894Y1016827D01*
X312894Y1016827D01*
X314894Y1015994D01*
X315894Y1014327D01*
G54D11*
X319561Y1003494D02*
X319561Y1016827D01*
X324561Y1016827D01*
X326561Y1015994D01*
X327561Y1014327D01*
X327561Y1012660D01*
X326561Y1010994D01*
X324561Y1010160D01*
X319561Y1010160D01*
G54D10*
X450850Y654050D02*
X444450Y654050D01*
X438150Y647750D01*
X438150Y634950D01*
X444450Y628650D01*
X457250Y628650D01*
X463550Y634950D01*
X463550Y647750D01*
X457250Y654050D01*
X450850Y654050D01*
G54D10*
X476250Y654050D02*
X469850Y654050D01*
X463550Y647750D01*
X463550Y634950D01*
X469850Y628650D01*
X482650Y628650D01*
X488950Y634950D01*
X488950Y647750D01*
X482650Y654050D01*
X476250Y654050D01*
G54D10*
X501650Y654050D02*
X495250Y654050D01*
X488950Y647750D01*
X488950Y634950D01*
X495250Y628650D01*
X508050Y628650D01*
X514350Y634950D01*
X514350Y647750D01*
X508050Y654050D01*
X501650Y654050D01*
G54D10*
X527050Y654050D02*
X520650Y654050D01*
X514350Y647750D01*
X514350Y634950D01*
X520650Y628650D01*
X533450Y628650D01*
X539750Y634950D01*
X539750Y647750D01*
X533450Y654050D01*
X527050Y654050D01*
G54D13*
X471281Y671968D02*
X479948Y660412D01*
G54D13*
X471281Y660412D02*
X479948Y671968D01*
G54D13*
X483126Y660412D02*
X483126Y671968D01*
X487460Y671968D01*
X489193Y671246D01*
X490060Y669801D01*
X490060Y668357D01*
X489193Y666912D01*
X487460Y666190D01*
X483126Y666190D01*
G54D13*
X493237Y667635D02*
X497571Y671968D01*
X497571Y660412D01*
G54D10*
X521225Y688925D02*
X456225Y688925D01*
G54D10*
G75*
G01X506225Y724600D02*
G03X506225Y724600I-17500J0D01*
G01*
G36*
G75*
G01X506225Y724600D02*
G03X506225Y724600I-17500J0D01*
G01*
G37*
X506225Y724600D01*
G54D10*
X521225Y714325D02*
X521225Y734875D01*
G54D10*
X521225Y760275D02*
X456225Y760275D01*
G54D10*
X454550Y714325D02*
X454550Y734875D01*
G54D11*
X471625Y771550D02*
X472625Y769883D01*
X474625Y769050D01*
X476625Y769050D01*
X478625Y769883D01*
X479625Y771550D01*
X479625Y773217D01*
X478625Y774883D01*
X476625Y775717D01*
X474625Y775717D01*
X472625Y776550D01*
X471625Y778217D01*
X471625Y779883D01*
X472625Y781550D01*
X474625Y782383D01*
X476625Y782383D01*
X478625Y781550D01*
X479625Y779883D01*
G54D11*
X483292Y769050D02*
X483292Y782383D01*
X488292Y782383D01*
X490292Y781550D01*
X491292Y779883D01*
X491292Y778217D01*
X490292Y776550D01*
X488292Y775717D01*
X490292Y774883D01*
X491292Y773217D01*
X491292Y771550D01*
X490292Y769883D01*
X488292Y769050D01*
X483292Y769050D01*
G54D11*
X483292Y775717D02*
X488292Y775717D01*
G54D11*
X494959Y777383D02*
X499959Y782383D01*
X499959Y769050D01*
G54D13*
X190354Y1405576D02*
X190354Y1417131D01*
G54D13*
X186888Y1417131D02*
X193821Y1417131D01*
G54D13*
X196998Y1405576D02*
X203932Y1405576D01*
G54D13*
X200465Y1405576D02*
X200465Y1417131D01*
G54D13*
X196998Y1417131D02*
X203932Y1417131D01*
G54D13*
X207110Y1417131D02*
X207110Y1405576D01*
X213176Y1405576D01*
G54D13*
X216354Y1414964D02*
X217221Y1416409D01*
X218954Y1417131D01*
X220688Y1417131D01*
X222421Y1416409D01*
X223288Y1414964D01*
X223288Y1413520D01*
X222421Y1412076D01*
X220688Y1411353D01*
X222421Y1410631D01*
X223288Y1409187D01*
X223288Y1407742D01*
X222421Y1406298D01*
X220688Y1405576D01*
X218954Y1405576D01*
X217221Y1406298D01*
X216354Y1407742D01*
G54D13*
X226466Y1412798D02*
X230799Y1417131D01*
X230799Y1405576D01*
G54D13*
X233976Y1412798D02*
X238310Y1417131D01*
X238310Y1405576D01*
G54D10*
X269875Y1430275D02*
X377825Y1430275D01*
X377825Y1239775D01*
X269875Y1239775D01*
X269875Y1430275D01*
G54D13*
X301479Y1405576D02*
X301479Y1417131D01*
G54D13*
X298012Y1417131D02*
X304946Y1417131D01*
G54D13*
X308124Y1405576D02*
X315057Y1405576D01*
G54D13*
X311590Y1405576D02*
X311590Y1417131D01*
G54D13*
X308124Y1417131D02*
X315057Y1417131D01*
G54D13*
X318234Y1417131D02*
X318234Y1405576D01*
X324301Y1405576D01*
G54D13*
X327480Y1414964D02*
X328346Y1416409D01*
X330080Y1417131D01*
X331813Y1417131D01*
X333546Y1416409D01*
X334413Y1414964D01*
X334413Y1413520D01*
X333546Y1412076D01*
X331813Y1411353D01*
X333546Y1410631D01*
X334413Y1409187D01*
X334413Y1407742D01*
X333546Y1406298D01*
X331813Y1405576D01*
X330080Y1405576D01*
X328346Y1406298D01*
X327480Y1407742D01*
G54D13*
X337590Y1412798D02*
X341924Y1417131D01*
X341924Y1405576D01*
G54D13*
X345102Y1412798D02*
X349435Y1417131D01*
X349435Y1405576D01*
G54D10*
X381000Y1430275D02*
X488950Y1430275D01*
X488950Y1239775D01*
X381000Y1239775D01*
X381000Y1430275D01*
G54D13*
X412604Y1405576D02*
X412604Y1417131D01*
G54D13*
X409138Y1417131D02*
X416071Y1417131D01*
G54D13*
X419248Y1405576D02*
X426182Y1405576D01*
G54D13*
X422715Y1405576D02*
X422715Y1417131D01*
G54D13*
X419248Y1417131D02*
X426182Y1417131D01*
G54D13*
X429360Y1417131D02*
X429360Y1405576D01*
X435426Y1405576D01*
G54D13*
X438604Y1414964D02*
X439471Y1416409D01*
X441204Y1417131D01*
X442938Y1417131D01*
X444671Y1416409D01*
X445538Y1414964D01*
X445538Y1413520D01*
X444671Y1412076D01*
X442938Y1411353D01*
X444671Y1410631D01*
X445538Y1409187D01*
X445538Y1407742D01*
X444671Y1406298D01*
X442938Y1405576D01*
X441204Y1405576D01*
X439471Y1406298D01*
X438604Y1407742D01*
G54D13*
X448716Y1412798D02*
X453049Y1417131D01*
X453049Y1405576D01*
G54D13*
X456226Y1412798D02*
X460560Y1417131D01*
X460560Y1405576D01*
G54D10*
X492125Y1430275D02*
X600075Y1430275D01*
X600075Y1239775D01*
X492125Y1239775D01*
X492125Y1430275D01*
G54D13*
X523729Y1405576D02*
X523729Y1417131D01*
G54D13*
X520262Y1417131D02*
X527196Y1417131D01*
G54D13*
X530374Y1405576D02*
X537307Y1405576D01*
G54D13*
X533840Y1405576D02*
X533840Y1417131D01*
G54D13*
X530374Y1417131D02*
X537307Y1417131D01*
G54D13*
X540484Y1417131D02*
X540484Y1405576D01*
X546551Y1405576D01*
G54D13*
X549730Y1414964D02*
X550596Y1416409D01*
X552330Y1417131D01*
X554063Y1417131D01*
X555796Y1416409D01*
X556663Y1414964D01*
X556663Y1413520D01*
X555796Y1412076D01*
X554063Y1411353D01*
X555796Y1410631D01*
X556663Y1409187D01*
X556663Y1407742D01*
X555796Y1406298D01*
X554063Y1405576D01*
X552330Y1405576D01*
X550596Y1406298D01*
X549730Y1407742D01*
G54D13*
X559840Y1412798D02*
X564174Y1417131D01*
X564174Y1405576D01*
G54D13*
X567352Y1412798D02*
X571685Y1417131D01*
X571685Y1405576D01*
G54D10*
X603250Y1430275D02*
X711200Y1430275D01*
X711200Y1239775D01*
X603250Y1239775D01*
X603250Y1430275D01*
G54D13*
X634854Y1405576D02*
X634854Y1417131D01*
G54D13*
X631388Y1417131D02*
X638321Y1417131D01*
G54D13*
X641498Y1405576D02*
X648432Y1405576D01*
G54D13*
X644965Y1405576D02*
X644965Y1417131D01*
G54D13*
X641498Y1417131D02*
X648432Y1417131D01*
G54D13*
X651610Y1417131D02*
X651610Y1405576D01*
X657676Y1405576D01*
G54D13*
X660854Y1414964D02*
X661721Y1416409D01*
X663454Y1417131D01*
X665188Y1417131D01*
X666921Y1416409D01*
X667788Y1414964D01*
X667788Y1413520D01*
X666921Y1412076D01*
X665188Y1411353D01*
X666921Y1410631D01*
X667788Y1409187D01*
X667788Y1407742D01*
X666921Y1406298D01*
X665188Y1405576D01*
X663454Y1405576D01*
X661721Y1406298D01*
X660854Y1407742D01*
G54D13*
X670966Y1412798D02*
X675299Y1417131D01*
X675299Y1405576D01*
G54D13*
X678476Y1412798D02*
X682810Y1417131D01*
X682810Y1405576D01*
G54D10*
X714375Y1430275D02*
X822325Y1430275D01*
X822325Y1239775D01*
X714375Y1239775D01*
X714375Y1430275D01*
G54D13*
X745979Y1405576D02*
X745979Y1417131D01*
G54D13*
X742512Y1417131D02*
X749446Y1417131D01*
G54D13*
X752624Y1405576D02*
X759557Y1405576D01*
G54D13*
X756090Y1405576D02*
X756090Y1417131D01*
G54D13*
X752624Y1417131D02*
X759557Y1417131D01*
G54D13*
X762734Y1417131D02*
X762734Y1405576D01*
X768801Y1405576D01*
G54D13*
X771980Y1414964D02*
X772846Y1416409D01*
X774580Y1417131D01*
X776313Y1417131D01*
X778046Y1416409D01*
X778913Y1414964D01*
X778913Y1413520D01*
X778046Y1412076D01*
X776313Y1411353D01*
X778046Y1410631D01*
X778913Y1409187D01*
X778913Y1407742D01*
X778046Y1406298D01*
X776313Y1405576D01*
X774580Y1405576D01*
X772846Y1406298D01*
X771980Y1407742D01*
G54D13*
X782090Y1412798D02*
X786424Y1417131D01*
X786424Y1405576D01*
G54D13*
X789602Y1412798D02*
X793935Y1417131D01*
X793935Y1405576D01*
G54D11*
X628263Y1131340D02*
X614930Y1131340D01*
G54D11*
X622930Y1131340D02*
X621263Y1130340D01*
X620763Y1128340D01*
X621263Y1126340D01*
X622930Y1125340D01*
X626263Y1125340D01*
X627930Y1126340D01*
X628263Y1128340D01*
X627930Y1130340D01*
X626263Y1131340D01*
G54D11*
X626263Y1141007D02*
X622930Y1141007D01*
X621263Y1140007D01*
X620763Y1138007D01*
X621263Y1136007D01*
X622930Y1135007D01*
X626263Y1135007D01*
X627930Y1136007D01*
X628263Y1138007D01*
X627930Y1140007D01*
X626263Y1141007D01*
G54D11*
X614930Y1146674D02*
X627430Y1146674D01*
X628263Y1147674D01*
X627930Y1148674D01*
G54D11*
X620763Y1144674D02*
X620763Y1148674D01*
G54D10*
X676287Y1054309D02*
X722324Y1054309D01*
X722324Y1035259D01*
X676287Y1035259D01*
X676287Y1054309D01*
G54D13*
X695958Y1066632D02*
X698558Y1065188D01*
X699425Y1063743D01*
X699425Y1060855D01*
G54D13*
X692491Y1060855D02*
X692491Y1072410D01*
X696825Y1072410D01*
X698558Y1071688D01*
X699425Y1070243D01*
X699425Y1068799D01*
X698558Y1067355D01*
X696825Y1066632D01*
X692491Y1066632D01*
G54D13*
X709536Y1072410D02*
X702602Y1072410D01*
X702602Y1067355D01*
X703469Y1067355D01*
X705202Y1068077D01*
X706936Y1068077D01*
X708669Y1067355D01*
X709536Y1065910D01*
X709536Y1063021D01*
X708669Y1061577D01*
X706936Y1060855D01*
X705202Y1060855D01*
X703469Y1061577D01*
X702602Y1063021D01*
G54D10*
X695337Y1005097D02*
X741374Y1005097D01*
X741374Y986047D01*
X695337Y986047D01*
X695337Y1005097D01*
G54D13*
X715008Y1017420D02*
X717608Y1015975D01*
X718475Y1014531D01*
X718475Y1011642D01*
G54D13*
X711541Y1011642D02*
X711541Y1023198D01*
X715875Y1023198D01*
X717608Y1022475D01*
X718475Y1021031D01*
X718475Y1019586D01*
X717608Y1018142D01*
X715875Y1017420D01*
X711541Y1017420D01*
G54D13*
X726852Y1011642D02*
X726852Y1023198D01*
X721652Y1015975D01*
X721652Y1014531D01*
X728586Y1014531D01*
G54D10*
X395288Y817562D02*
X454025Y817562D01*
X454025Y793750D01*
X395288Y793750D01*
X395288Y817562D01*
G54D11*
X422926Y825662D02*
X421926Y823995D01*
X419926Y823162D01*
X417926Y823162D01*
X415926Y823995D01*
X414926Y825662D01*
X414926Y833995D01*
X415926Y835662D01*
X417926Y836495D01*
X419926Y836495D01*
X421926Y835662D01*
X422926Y833995D01*
G54D11*
X426592Y833995D02*
X427592Y835662D01*
X429592Y836495D01*
X431592Y836495D01*
X433592Y835662D01*
X434592Y833995D01*
X434592Y832329D01*
X433592Y830662D01*
X431592Y829829D01*
X433592Y828995D01*
X434592Y827329D01*
X434592Y825662D01*
X433592Y823995D01*
X431592Y823162D01*
X429592Y823162D01*
X427592Y823995D01*
X426592Y825662D01*
G54D10*
X395288Y876300D02*
X454025Y876300D01*
X454025Y852488D01*
X395288Y852488D01*
X395288Y876300D01*
G54D11*
X422926Y884400D02*
X421926Y882733D01*
X419926Y881900D01*
X417926Y881900D01*
X415926Y882733D01*
X414926Y884400D01*
X414926Y892733D01*
X415926Y894400D01*
X417926Y895233D01*
X419926Y895233D01*
X421926Y894400D01*
X422926Y892733D01*
G54D11*
X432592Y881900D02*
X432592Y895233D01*
X426592Y886900D01*
X426592Y885233D01*
X434592Y885233D01*
G54D13*
X599634Y1059594D02*
X599634Y1071150D01*
X603968Y1071150D01*
X605701Y1070427D01*
X606568Y1068983D01*
X606568Y1067538D01*
X605701Y1066094D01*
X603968Y1065372D01*
X605701Y1064650D01*
X606568Y1063205D01*
X606568Y1061761D01*
X605701Y1060316D01*
X603968Y1059594D01*
X599634Y1059594D01*
G54D13*
X599634Y1065372D02*
X603968Y1065372D01*
G54D13*
X609746Y1059594D02*
X614079Y1071150D01*
X618412Y1059594D01*
G54D13*
X611479Y1063927D02*
X616679Y1063927D01*
G54D13*
X625057Y1059594D02*
X625057Y1071150D01*
G54D13*
X621590Y1071150D02*
X628524Y1071150D01*
G54D13*
X631702Y1066816D02*
X636035Y1071150D01*
X636035Y1059594D01*
G54D13*
X601805Y954948D02*
X600939Y953504D01*
X599205Y952782D01*
X597472Y952782D01*
X595739Y953504D01*
X594872Y954948D01*
X594872Y962170D01*
X595739Y963615D01*
X597472Y964337D01*
X599205Y964337D01*
X600939Y963615D01*
X601805Y962170D01*
G54D13*
X608450Y958559D02*
X611050Y957115D01*
X611916Y955670D01*
X611916Y952782D01*
G54D13*
X604983Y952782D02*
X604983Y964337D01*
X609316Y964337D01*
X611050Y963615D01*
X611916Y962170D01*
X611916Y960726D01*
X611050Y959282D01*
X609316Y958559D01*
X604983Y958559D01*
G54D13*
X615094Y960004D02*
X619427Y964337D01*
X619427Y952782D01*
G54D13*
X629538Y952782D02*
X622605Y952782D01*
X622605Y953504D01*
X623472Y954948D01*
X628672Y959282D01*
X629538Y960726D01*
X629538Y962170D01*
X628672Y963615D01*
X626938Y964337D01*
X625205Y964337D01*
X623472Y963615D01*
X622605Y962170D01*
G54D13*
X639649Y952782D02*
X632716Y952782D01*
X632716Y953504D01*
X633583Y954948D01*
X638783Y959282D01*
X639649Y960726D01*
X639649Y962170D01*
X638783Y963615D01*
X637049Y964337D01*
X635316Y964337D01*
X633583Y963615D01*
X632716Y962170D01*
G54D13*
X649760Y964337D02*
X642827Y964337D01*
X642827Y959282D01*
X643694Y959282D01*
X645427Y960004D01*
X647160Y960004D01*
X648894Y959282D01*
X649760Y957837D01*
X649760Y954948D01*
X648894Y953504D01*
X647160Y952782D01*
X645427Y952782D01*
X643694Y953504D01*
X642827Y954948D01*
G54D10*
X556283Y772271D02*
X588837Y739717D01*
X575366Y726247D01*
X542813Y758800D01*
X556283Y772271D01*
G54D13*
X578362Y767939D02*
X579179Y765079D01*
X578770Y763445D01*
X576727Y761402D01*
G54D13*
X571825Y766305D02*
X579996Y774476D01*
X583060Y771412D01*
X583775Y769675D01*
X583366Y768041D01*
X582345Y767020D01*
X580711Y766611D01*
X578974Y767326D01*
X575910Y770390D01*
G54D13*
X580506Y760687D02*
X580098Y759053D01*
X580813Y757317D01*
X582039Y756091D01*
X583775Y755376D01*
X585409Y755785D01*
X587962Y758338D01*
X588473Y758849D01*
X585613Y759666D01*
X584388Y760892D01*
X583673Y762628D01*
X584081Y764262D01*
X585613Y765794D01*
X587248Y766203D01*
X588984Y765488D01*
X590210Y764262D01*
X590925Y762526D01*
X590516Y760892D01*
X587962Y758338D01*
G54D14*
X660400Y1155700D02*
X660400Y1120775D01*
G36*
X661900Y1155700D02*
X658900Y1155700D01*
X658900Y1157200D01*
X661900Y1157200D01*
X661900Y1155700D01*
G37*
G36*
X658900Y1120775D02*
X661900Y1120775D01*
X661900Y1119275D01*
X658900Y1119275D01*
X658900Y1120775D01*
G37*
G54D16*
X241300Y1073150D02*
X428625Y1073150D01*
X428625Y1038225D01*
X241300Y1038225D01*
X241300Y1073150D01*
G54D11*
X235638Y977576D02*
X235638Y990909D01*
X240638Y982576D01*
X245638Y990909D01*
X245638Y977576D01*
G54D11*
X249305Y977576D02*
X257305Y977576D01*
G54D11*
X253305Y977576D02*
X253305Y990909D01*
G54D11*
X249305Y990909D02*
X257305Y990909D01*
G54D11*
X260972Y980076D02*
X261972Y978409D01*
X263972Y977576D01*
X265972Y977576D01*
X267972Y978409D01*
X268972Y980076D01*
X268972Y981742D01*
X267972Y983409D01*
X265972Y984242D01*
X263972Y984242D01*
X261972Y985076D01*
X260972Y986742D01*
X260972Y988409D01*
X261972Y990076D01*
X263972Y990909D01*
X265972Y990909D01*
X267972Y990076D01*
X268972Y988409D01*
G54D11*
X280639Y988409D02*
X280639Y980076D01*
X279639Y978409D01*
X277639Y977576D01*
X275639Y977576D01*
X273639Y978409D01*
X272639Y980076D01*
X272639Y988409D01*
X273639Y990076D01*
X275639Y990909D01*
X277639Y990909D01*
X279639Y990076D01*
X280639Y988409D01*
G54D11*
X345964Y950996D02*
X345964Y964330D01*
X350964Y955996D01*
X355964Y964330D01*
X355964Y950996D01*
G54D11*
X367631Y961830D02*
X367631Y953496D01*
X366631Y951830D01*
X364631Y950996D01*
X362631Y950996D01*
X360631Y951830D01*
X359631Y953496D01*
X359631Y961830D01*
X360631Y963496D01*
X362631Y964330D01*
X364631Y964330D01*
X366631Y963496D01*
X367631Y961830D01*
G54D11*
X371298Y953496D02*
X372298Y951830D01*
X374298Y950996D01*
X376298Y950996D01*
X378298Y951830D01*
X379298Y953496D01*
X379298Y955163D01*
X378298Y956830D01*
X376298Y957663D01*
X374298Y957663D01*
X372298Y958496D01*
X371298Y960163D01*
X371298Y961830D01*
X372298Y963496D01*
X374298Y964330D01*
X376298Y964330D01*
X378298Y963496D01*
X379298Y961830D01*
G54D11*
X382965Y950996D02*
X390965Y950996D01*
G54D11*
X386965Y950996D02*
X386965Y964330D01*
G54D11*
X382965Y964330D02*
X390965Y964330D01*
G54D17*
X754894Y1041425D02*
X743049Y1041481D01*
X742988Y1032694D01*
G54D17*
X754894Y1041425D02*
X754894Y1009625D01*
X742988Y1009625D01*
X742988Y1018406D01*
G54D13*
X744885Y1050304D02*
X749219Y1048138D01*
G54D13*
X748352Y1057527D02*
X748352Y1050304D01*
X747485Y1048860D01*
X745752Y1048138D01*
X744019Y1048138D01*
X742285Y1048860D01*
X741419Y1050304D01*
X741419Y1057527D01*
X742285Y1058971D01*
X744019Y1059693D01*
X745752Y1059693D01*
X747485Y1058971D01*
X748352Y1057527D01*
G54D13*
X752397Y1055360D02*
X756730Y1059693D01*
X756730Y1048138D01*
M02*
