%FSLAX34Y34*%
%MOMM*%
%LNCOPPER_BOTTOM*%
G71*
G01*
%ADD10C, 9.500*%
%ADD11C, 8.400*%
%ADD12C, 8.800*%
%ADD13R, 9.500X10.200*%
%ADD14C, 8.700*%
%ADD15C, 9.200*%
%ADD16C, 9.900*%
%ADD17R, 9.600X9.200*%
%ADD18C, 5.800*%
%ADD19C, 2.000*%
%ADD20C, 1.800*%
%ADD21C, 1.400*%
%ADD22C, 1.500*%
%ADD23C, 1.000*%
%ADD24R, 11.000X9.700*%
%ADD25C, 9.000*%
%ADD26C, 2.700*%
%ADD27C, 2.700*%
%ADD28C, 1.900*%
%ADD29C, 2.100*%
%ADD30C, 1.300*%
%ADD31C, 1.500*%
%ADD32C, 2.800*%
%ADD33C, 1.300*%
%ADD34C, 1.200*%
%ADD35C, 0.638*%
%ADD36C, 0.800*%
%ADD37C, 0.767*%
%ADD38C, 0.806*%
%ADD39C, 1.667*%
%ADD40C, 0.497*%
%ADD41C, 0.487*%
%ADD42C, 0.667*%
%ADD43C, 0.633*%
%ADD44C, 0.728*%
%ADD45C, 0.492*%
%ADD46C, 0.267*%
%ADD47C, 1.500*%
%ADD48C, 0.400*%
%ADD49R, 1.500X2.200*%
%ADD50C, 0.700*%
%ADD51C, 1.200*%
%ADD52C, 1.900*%
%ADD53R, 1.600X1.200*%
%ADD54C, 5.000*%
%ADD55C, 1.000*%
%ADD56R, 3.000X1.700*%
%ADD57C, 1.900*%
%ADD58C, 1.900*%
%ADD59C, 0.700*%
%ADD60C, 2.000*%
%ADD61C, 0.800*%
%ADD62C, 0.238*%
%ADD63C, 0.167*%
%ADD64C, 0.206*%
%LPD*%
G36*
X0Y1500000D02*
X1000000Y1500000D01*
X1000000Y500000D01*
X0Y500000D01*
X0Y1500000D01*
G37*
%LPC*%
G36*
X127125Y1458725D02*
X222125Y1458725D01*
X222125Y1363725D01*
X127125Y1363725D01*
X127125Y1458725D01*
G37*
X174625Y1385825D02*
G54D10*
D03*
X174625Y1360425D02*
G54D10*
D03*
X174625Y1309625D02*
G54D10*
D03*
X174625Y1258825D02*
G54D10*
D03*
X250825Y1258825D02*
G54D10*
D03*
X250825Y1309625D02*
G54D10*
D03*
X250825Y1360425D02*
G54D10*
D03*
X250825Y1385825D02*
G54D10*
D03*
X250825Y1411225D02*
G54D10*
D03*
X174625Y1335025D02*
G54D10*
D03*
G54D11*
X361950Y1385825D02*
X361950Y1373125D01*
G54D11*
X473075Y1385825D02*
X473075Y1373125D01*
G54D11*
X396875Y1360425D02*
X396875Y1347725D01*
G54D11*
X285750Y1360425D02*
X285750Y1347725D01*
G54D12*
X153988Y1411225D02*
X584200Y1411225D01*
G36*
X153988Y1455225D02*
X153988Y1367225D01*
X109988Y1367225D01*
X109988Y1455225D01*
X153988Y1455225D01*
G37*
G36*
X584200Y1367225D02*
X584200Y1455225D01*
X628200Y1455225D01*
X628200Y1367225D01*
X584200Y1367225D01*
G37*
G54D12*
X825500Y1411225D02*
X584200Y1411225D01*
G54D11*
X174625Y1360425D02*
X174625Y1347725D01*
G54D11*
X508000Y1360425D02*
X508000Y1347725D01*
G54D11*
X250825Y1385825D02*
X250825Y1373125D01*
G54D11*
X619125Y1385825D02*
X619125Y1373125D01*
G54D11*
X584200Y1385825D02*
X584200Y1373125D01*
G54D11*
X695325Y1385825D02*
X695325Y1373125D01*
G54D11*
X806450Y1385825D02*
X806450Y1373125D01*
G54D11*
X730250Y1360425D02*
X730250Y1347725D01*
G54D11*
X619125Y1360425D02*
X619125Y1347725D01*
G54D11*
X250825Y1373125D02*
X806450Y1373125D01*
G54D11*
X730250Y1347725D02*
X174625Y1347725D01*
G54D12*
X153988Y1236600D02*
X827088Y1236600D01*
X723900Y1284225D02*
G54D13*
D03*
X698500Y1284225D02*
G54D13*
D03*
X673100Y1284225D02*
G54D13*
D03*
X647700Y1284225D02*
G54D13*
D03*
X774700Y1284225D02*
G54D13*
D03*
X749300Y1284225D02*
G54D13*
D03*
X282575Y1284225D02*
G54D13*
D03*
X257175Y1284225D02*
G54D13*
D03*
X231775Y1284225D02*
G54D13*
D03*
X206375Y1284225D02*
G54D13*
D03*
X333375Y1284225D02*
G54D13*
D03*
X307975Y1284225D02*
G54D13*
D03*
X561975Y1284225D02*
G54D13*
D03*
X536575Y1284225D02*
G54D13*
D03*
X447675Y1284225D02*
G54D13*
D03*
X422275Y1284225D02*
G54D13*
D03*
G54D11*
X174625Y1309625D02*
X179388Y1298575D01*
X179388Y1284288D01*
G54D11*
X774700Y1284225D02*
X774700Y1258825D01*
X806450Y1258825D01*
G54D11*
X723900Y1274700D02*
X717550Y1266825D01*
X717550Y1246125D01*
X636588Y1246188D01*
X636588Y1263650D01*
X625475Y1274762D01*
X596900Y1274700D01*
X584200Y1258825D01*
G54D11*
X473075Y1258825D02*
X490538Y1258825D01*
X490538Y1322325D01*
X663575Y1322325D01*
X685800Y1298512D01*
X698500Y1284225D01*
X647700Y1257237D02*
G54D14*
D03*
X206375Y1322325D02*
G54D14*
D03*
G54D11*
X231775Y1284225D02*
X231775Y1322388D01*
X384175Y1322325D01*
X396875Y1309625D01*
X307975Y1258825D02*
G54D14*
D03*
X619125Y1287400D02*
G54D14*
D03*
X268288Y1258825D02*
G54D14*
D03*
X447675Y1309625D02*
G54D15*
D03*
G54D11*
X447675Y1309625D02*
X447675Y1284225D01*
G54D11*
X536575Y1309625D02*
X536575Y1284225D01*
G54D11*
X561975Y1309625D02*
X561975Y1284225D01*
G54D11*
X422275Y1284225D02*
X422275Y1347725D01*
X447675Y1385825D02*
G54D15*
D03*
X536575Y1309625D02*
G54D15*
D03*
X536575Y1385825D02*
G54D15*
D03*
G54D11*
X536575Y1385825D02*
X536575Y1373125D01*
X561975Y1309625D02*
G54D14*
D03*
G54D16*
X153988Y1242950D02*
X153988Y1314388D01*
G36*
X104488Y1242950D02*
X203488Y1242950D01*
X203488Y1193450D01*
X104488Y1193450D01*
X104488Y1242950D01*
G37*
G36*
X203488Y1314388D02*
X104488Y1314388D01*
X104488Y1363888D01*
X203488Y1363888D01*
X203488Y1314388D01*
G37*
X154161Y1343938D02*
G54D17*
D03*
X154161Y1374338D02*
G54D17*
D03*
X255587Y620650D02*
G54D18*
D03*
X583588Y890333D02*
G54D19*
D03*
X547526Y854271D02*
G54D19*
D03*
X488878Y978286D02*
G54D20*
D03*
X472281Y961231D02*
G54D21*
D03*
X483734Y926790D02*
G54D22*
D03*
G54D23*
X562162Y972355D02*
X516624Y926672D01*
X483734Y926790D01*
G54D23*
X550862Y1112838D02*
X554831Y1107281D01*
X554831Y976312D01*
G54D23*
X547688Y981075D02*
X548119Y1100293D01*
X534988Y1112838D01*
X447675Y1112838D01*
G54D23*
X540544Y985044D02*
X541338Y1095375D01*
X531374Y1104299D01*
X422275Y1104900D01*
X422275Y1112044D01*
X825674Y1345525D02*
G54D17*
D03*
X825674Y1375925D02*
G54D17*
D03*
G54D16*
X826294Y1243744D02*
X826294Y1315181D01*
G36*
X776794Y1243744D02*
X875794Y1243744D01*
X875794Y1194244D01*
X776794Y1194244D01*
X776794Y1243744D01*
G37*
G36*
X875794Y1315181D02*
X776794Y1315181D01*
X776794Y1364681D01*
X875794Y1364681D01*
X875794Y1315181D01*
G37*
G54D12*
X152574Y1343938D02*
X152574Y1309799D01*
X152400Y1309625D01*
G54D12*
X153988Y1411225D02*
X153988Y1374511D01*
X154161Y1374338D01*
G54D12*
X825500Y1409638D02*
X825674Y1375925D01*
G54D12*
X825674Y1345525D02*
X825674Y1309451D01*
X490538Y1433450D02*
G54D24*
D03*
G54D25*
X490538Y1412875D02*
X490538Y1430275D01*
X602716Y818616D02*
G54D21*
D03*
X554831Y976312D02*
G54D22*
D03*
G54D23*
X561975Y1112838D02*
X562162Y972355D01*
X490537Y1138175D02*
G54D20*
D03*
X547687Y981075D02*
G54D22*
D03*
X540544Y985044D02*
G54D22*
D03*
X422275Y1112044D02*
G54D22*
D03*
X550862Y1112838D02*
G54D22*
D03*
X561975Y1112838D02*
G54D22*
D03*
X331787Y1111250D02*
G54D22*
D03*
X306388Y1111250D02*
G54D22*
D03*
X280987Y1111250D02*
G54D22*
D03*
X255588Y1111250D02*
G54D22*
D03*
X525462Y1025525D02*
G54D22*
D03*
X527050Y1016000D02*
G54D22*
D03*
X444500Y1033462D02*
G54D22*
D03*
X396875Y1079500D02*
G54D22*
D03*
G54D23*
X255588Y1111250D02*
X255588Y1079500D01*
X320936Y1079500D01*
G54D23*
X280988Y1111250D02*
X280988Y1089025D01*
X346075Y1089025D01*
X346336Y1079500D01*
G54D23*
X306388Y1111250D02*
X306388Y1095375D01*
X371475Y1095375D01*
X371736Y1079500D01*
G54D23*
X331788Y1111250D02*
X331788Y1103312D01*
X396875Y1103312D01*
X396875Y1079500D01*
X731837Y620650D02*
G54D18*
D03*
X490537Y1066738D02*
G54D18*
D03*
X327025Y984250D02*
G54D26*
D03*
G36*
X315125Y997750D02*
X315125Y970750D01*
X288125Y970750D01*
X288125Y997750D01*
X315125Y997750D01*
G37*
X327025Y958850D02*
G54D26*
D03*
X301625Y958850D02*
G54D26*
D03*
X327025Y933450D02*
G54D26*
D03*
X301625Y933450D02*
G54D26*
D03*
G36*
X633771Y948130D02*
X633771Y921130D01*
X606771Y921130D01*
X606771Y948130D01*
X633771Y948130D01*
G37*
X620271Y1036230D02*
G54D27*
D03*
X377876Y805658D02*
G54D20*
D03*
X371736Y1079500D02*
G54D22*
D03*
X346336Y1079500D02*
G54D22*
D03*
X320936Y1079500D02*
G54D22*
D03*
X752656Y901230D02*
G54D20*
D03*
X699153Y828685D02*
G54D22*
D03*
X727216Y800621D02*
G54D22*
D03*
X679938Y714375D02*
G54D20*
D03*
X616438Y784225D02*
G54D20*
D03*
X681218Y942505D02*
G54D22*
D03*
X681218Y872655D02*
G54D22*
D03*
X437356Y903288D02*
G54D22*
D03*
X426244Y912019D02*
G54D22*
D03*
X451644Y895350D02*
G54D28*
D03*
X462756Y884238D02*
G54D29*
D03*
G54D23*
X426244Y912019D02*
X674688Y912019D01*
X681038Y919956D01*
X681038Y942324D01*
X681218Y942505D01*
G54D23*
X437356Y903288D02*
X674688Y903288D01*
X681038Y896938D01*
X681218Y872655D01*
G54D23*
X462756Y884238D02*
X462756Y839788D01*
X698500Y839788D01*
X698500Y829338D01*
X699153Y828685D01*
G54D23*
X451644Y895350D02*
X450850Y801688D01*
X727216Y800621D01*
X377825Y895350D02*
G54D22*
D03*
G54D23*
X301625Y958850D02*
X269875Y958850D01*
X269807Y1033394D01*
X444500Y1033462D01*
G54D23*
X301625Y984250D02*
X301625Y1025525D01*
X525462Y1025525D01*
G54D23*
X327025Y958850D02*
X371475Y957262D01*
X371475Y1016000D01*
X527050Y1016000D01*
G54D23*
X377825Y895350D02*
X300831Y895350D01*
X301625Y933450D01*
X400050Y912018D02*
G54D20*
D03*
G54D30*
X377876Y805658D02*
X377876Y844601D01*
X400050Y866775D01*
X400050Y949325D01*
X502444Y948531D01*
X501650Y965200D01*
X488878Y978286D01*
G54D31*
X377876Y805658D02*
X377876Y792111D01*
X386556Y783431D01*
X616438Y784225D01*
X679938Y714375D01*
X752475Y713581D01*
X752656Y901230D01*
X450850Y641350D02*
G54D27*
D03*
X476250Y641350D02*
G54D27*
D03*
X501650Y641350D02*
G54D27*
D03*
X527050Y641350D02*
G54D27*
D03*
X456225Y702100D02*
G54D32*
D03*
X521225Y702100D02*
G54D32*
D03*
X521225Y747100D02*
G54D32*
D03*
X456225Y747100D02*
G54D32*
D03*
X456225Y702100D02*
G54D32*
D03*
X521225Y702100D02*
G54D32*
D03*
X527050Y641350D02*
G54D27*
D03*
X327025Y933450D02*
G54D26*
D03*
X670587Y780876D02*
G54D21*
D03*
X620271Y1036229D02*
G54D27*
D03*
G54D31*
X490537Y1138175D02*
X752475Y1138175D01*
X752656Y901230D01*
G36*
X238250Y1458725D02*
X333250Y1458725D01*
X333250Y1363725D01*
X238250Y1363725D01*
X238250Y1458725D01*
G37*
X285750Y1385825D02*
G54D10*
D03*
X285750Y1360425D02*
G54D10*
D03*
X285750Y1309625D02*
G54D10*
D03*
X285750Y1258825D02*
G54D10*
D03*
X361950Y1258825D02*
G54D10*
D03*
X361950Y1309625D02*
G54D10*
D03*
X361950Y1360425D02*
G54D10*
D03*
X361950Y1385825D02*
G54D10*
D03*
X361950Y1411225D02*
G54D10*
D03*
X285750Y1335025D02*
G54D10*
D03*
G36*
X349375Y1458725D02*
X444375Y1458725D01*
X444375Y1363725D01*
X349375Y1363725D01*
X349375Y1458725D01*
G37*
X396875Y1385825D02*
G54D10*
D03*
X396875Y1360425D02*
G54D10*
D03*
X396875Y1309625D02*
G54D10*
D03*
X396875Y1258825D02*
G54D10*
D03*
X473075Y1258825D02*
G54D10*
D03*
X473075Y1309625D02*
G54D10*
D03*
X473075Y1360425D02*
G54D10*
D03*
X473075Y1385825D02*
G54D10*
D03*
X473075Y1411225D02*
G54D10*
D03*
X396875Y1335025D02*
G54D10*
D03*
G36*
X460500Y1458725D02*
X555500Y1458725D01*
X555500Y1363725D01*
X460500Y1363725D01*
X460500Y1458725D01*
G37*
X508000Y1385825D02*
G54D10*
D03*
X508000Y1360425D02*
G54D10*
D03*
X508000Y1309625D02*
G54D10*
D03*
X508000Y1258825D02*
G54D10*
D03*
X584200Y1258825D02*
G54D10*
D03*
X584200Y1309625D02*
G54D10*
D03*
X584200Y1360425D02*
G54D10*
D03*
X584200Y1385825D02*
G54D10*
D03*
X584200Y1411225D02*
G54D10*
D03*
X508000Y1335025D02*
G54D10*
D03*
G36*
X571625Y1458725D02*
X666625Y1458725D01*
X666625Y1363725D01*
X571625Y1363725D01*
X571625Y1458725D01*
G37*
X619125Y1385825D02*
G54D10*
D03*
X619125Y1360425D02*
G54D10*
D03*
X619125Y1309625D02*
G54D10*
D03*
X619125Y1258825D02*
G54D10*
D03*
X695325Y1258825D02*
G54D10*
D03*
X695325Y1309625D02*
G54D10*
D03*
X695325Y1360425D02*
G54D10*
D03*
X695325Y1385825D02*
G54D10*
D03*
X695325Y1411225D02*
G54D10*
D03*
X619125Y1335025D02*
G54D10*
D03*
G36*
X682750Y1458725D02*
X777750Y1458725D01*
X777750Y1363725D01*
X682750Y1363725D01*
X682750Y1458725D01*
G37*
X730250Y1385825D02*
G54D10*
D03*
X730250Y1360425D02*
G54D10*
D03*
X730250Y1309625D02*
G54D10*
D03*
X730250Y1258825D02*
G54D10*
D03*
X806450Y1258825D02*
G54D10*
D03*
X806450Y1309625D02*
G54D10*
D03*
X806450Y1360425D02*
G54D10*
D03*
X806450Y1385825D02*
G54D10*
D03*
X806450Y1411225D02*
G54D10*
D03*
X730250Y1335025D02*
G54D10*
D03*
G54D12*
X174625Y1258825D02*
X174625Y1236662D01*
G54D12*
X285750Y1258825D02*
X285750Y1236662D01*
G54D12*
X396875Y1258825D02*
X396875Y1236662D01*
G54D12*
X508000Y1258825D02*
X508000Y1236662D01*
G54D12*
X619125Y1258825D02*
X619125Y1236662D01*
G54D12*
X730250Y1258825D02*
X730250Y1236662D01*
X179388Y1284288D02*
G54D13*
D03*
X268288Y1309625D02*
G54D14*
D03*
G54D11*
X619125Y1309625D02*
X619125Y1285812D01*
X749300Y1257237D02*
G54D14*
D03*
G54D11*
X473075Y1309625D02*
X473075Y1279525D01*
X457200Y1263650D01*
X412750Y1263650D01*
X396875Y1279525D01*
X358775Y1279525D01*
X342900Y1263650D01*
X333375Y1263650D01*
X333375Y1273112D01*
G54D11*
X647700Y1257238D02*
X647700Y1284225D01*
X673100Y1257237D02*
G54D14*
D03*
G54D11*
X673100Y1257237D02*
X673100Y1281112D01*
G54D11*
X749300Y1257238D02*
X749300Y1284225D01*
G54D11*
X206375Y1322325D02*
X206375Y1284225D01*
G54D11*
X307975Y1258825D02*
X307975Y1284225D01*
G54D11*
X257175Y1284225D02*
X257175Y1287462D01*
X268288Y1298575D01*
X268288Y1309625D01*
G54D11*
X268288Y1258825D02*
X268288Y1266825D01*
X279400Y1277938D01*
X752475Y955675D02*
G54D20*
D03*
X647700Y1112838D02*
G54D22*
D03*
X665163Y1044575D02*
G54D22*
D03*
G54D23*
X647700Y1112838D02*
X647700Y1069975D01*
X665162Y1044575D01*
X447675Y1112838D02*
G54D22*
D03*
X247381Y876031D02*
G54D33*
D03*
X265381Y876031D02*
G54D33*
D03*
X283381Y876031D02*
G54D33*
D03*
X301381Y876031D02*
G54D33*
D03*
X319381Y876031D02*
G54D33*
D03*
X337381Y876031D02*
G54D33*
D03*
X247381Y858031D02*
G54D33*
D03*
X265381Y858031D02*
G54D33*
D03*
X283381Y858031D02*
G54D33*
D03*
X301381Y858031D02*
G54D33*
D03*
X319381Y858031D02*
G54D33*
D03*
X337381Y858031D02*
G54D33*
D03*
X247381Y840031D02*
G54D33*
D03*
X265381Y840031D02*
G54D33*
D03*
X283381Y840031D02*
G54D33*
D03*
X301381Y840031D02*
G54D33*
D03*
X319381Y840031D02*
G54D33*
D03*
X337381Y840031D02*
G54D33*
D03*
X247381Y822031D02*
G54D33*
D03*
X265381Y822031D02*
G54D33*
D03*
X283381Y822031D02*
G54D33*
D03*
X301381Y822031D02*
G54D33*
D03*
X319381Y822031D02*
G54D33*
D03*
X337381Y822031D02*
G54D33*
D03*
X247381Y804031D02*
G54D33*
D03*
X265381Y804031D02*
G54D33*
D03*
X283381Y804031D02*
G54D33*
D03*
X301381Y804031D02*
G54D33*
D03*
X319381Y804031D02*
G54D33*
D03*
X337381Y804031D02*
G54D33*
D03*
X826294Y1059288D02*
G54D34*
D03*
X826294Y1077288D02*
G54D34*
D03*
X826294Y1095288D02*
G54D34*
D03*
X826294Y1113288D02*
G54D34*
D03*
X826294Y1131288D02*
G54D34*
D03*
X826294Y1149288D02*
G54D34*
D03*
G54D35*
X405102Y731649D02*
X405102Y744982D01*
X398435Y736649D01*
X391769Y744982D01*
X391769Y731649D01*
G54D35*
X376435Y734149D02*
X377769Y732482D01*
X380435Y731649D01*
X383102Y731649D01*
X385769Y732482D01*
X387102Y734149D01*
X387102Y742482D01*
X385769Y744149D01*
X383102Y744982D01*
X380435Y744982D01*
X377769Y744149D01*
X376435Y742482D01*
G54D35*
X371768Y744982D02*
X371768Y734149D01*
X370435Y732482D01*
X367768Y731649D01*
X365101Y731649D01*
X362435Y732482D01*
X361101Y734149D01*
X361101Y744982D01*
G54D35*
X348833Y731649D02*
X348833Y744149D01*
X347500Y744982D01*
X346167Y744482D01*
G54D35*
X351500Y739149D02*
X346167Y739149D01*
G54D35*
X333500Y733649D02*
X333500Y736982D01*
X334833Y738649D01*
X337500Y739149D01*
X340167Y738649D01*
X341500Y736982D01*
X341500Y733649D01*
X340167Y731982D01*
X337500Y731649D01*
X334833Y731982D01*
X333500Y733649D01*
G54D35*
X328833Y731649D02*
X328833Y739149D01*
G54D35*
X328833Y737482D02*
X326166Y739149D01*
X323500Y739149D01*
G54D35*
X308566Y731649D02*
X308566Y744982D01*
G54D35*
X313899Y744982D02*
X303232Y744982D01*
G54D35*
X298565Y731649D02*
X287898Y731649D01*
G54D35*
X293232Y731649D02*
X293232Y744982D01*
G54D35*
X298565Y744982D02*
X287898Y744982D01*
G54D35*
X283231Y744982D02*
X283231Y731649D01*
X273898Y731649D01*
G54D35*
X269231Y742482D02*
X267898Y744149D01*
X265231Y744982D01*
X262564Y744982D01*
X259898Y744149D01*
X258564Y742482D01*
X258564Y740816D01*
X259898Y739149D01*
X262564Y738316D01*
X259898Y737482D01*
X258564Y735816D01*
X258564Y734149D01*
X259898Y732482D01*
X262564Y731649D01*
X265231Y731649D01*
X267898Y732482D01*
X269231Y734149D01*
G54D35*
X253897Y739982D02*
X247230Y744982D01*
X247230Y731649D01*
G54D35*
X242563Y739982D02*
X235896Y744982D01*
X235896Y731649D01*
G54D36*
X227012Y755650D02*
X414338Y755650D01*
X414338Y720725D01*
X227012Y720725D01*
X227012Y755650D01*
G54D37*
X399768Y702310D02*
X401768Y702810D01*
X403768Y702310D01*
X404768Y700643D01*
X404768Y697310D01*
X403768Y695643D01*
X401768Y695310D01*
X399768Y695643D01*
G54D37*
X396102Y695310D02*
X396102Y702810D01*
G54D37*
X396102Y701143D02*
X394102Y702810D01*
X392102Y702810D01*
G54D37*
X382434Y696143D02*
X384034Y695310D01*
X386034Y695310D01*
X388034Y696143D01*
X388434Y697810D01*
X388434Y700643D01*
X387434Y702310D01*
X385434Y702810D01*
X383434Y702310D01*
X382434Y701143D01*
X382434Y699476D01*
X388434Y699476D01*
G54D37*
X378768Y701976D02*
X376768Y702810D01*
X374368Y702810D01*
X372768Y701143D01*
X372768Y695310D01*
G54D37*
X372768Y697810D02*
X373768Y699476D01*
X375768Y699810D01*
X377768Y699476D01*
X378768Y697810D01*
X378368Y696143D01*
X376768Y695310D01*
X375768Y695310D01*
X375368Y695310D01*
X373768Y696143D01*
X372768Y697810D01*
G54D37*
X367100Y708643D02*
X367100Y696143D01*
X366100Y695310D01*
X365100Y695643D01*
G54D37*
X369100Y702810D02*
X365100Y702810D01*
G54D37*
X355434Y696143D02*
X357034Y695310D01*
X359034Y695310D01*
X361034Y696143D01*
X361434Y697810D01*
X361434Y700643D01*
X360434Y702310D01*
X358434Y702810D01*
X356434Y702310D01*
X355434Y701143D01*
X355434Y699476D01*
X361434Y699476D01*
G54D37*
X345766Y695310D02*
X345766Y708643D01*
G54D37*
X345766Y700643D02*
X346766Y702310D01*
X348766Y702810D01*
X350766Y702310D01*
X351766Y700643D01*
X351766Y697310D01*
X350766Y695643D01*
X348766Y695310D01*
X346766Y695643D01*
X345766Y697310D01*
G54D37*
X338232Y695310D02*
X338232Y708643D01*
G54D37*
X338232Y700643D02*
X337232Y702310D01*
X335232Y702810D01*
X333232Y702310D01*
X332232Y700643D01*
X332232Y697310D01*
X333232Y695643D01*
X335232Y695310D01*
X337232Y695643D01*
X338232Y697310D01*
G54D37*
X328566Y702810D02*
X324566Y695310D01*
X320566Y702810D01*
G54D37*
X324566Y695310D02*
X325566Y692810D01*
X326566Y691976D01*
X327566Y691976D01*
G54D37*
X313032Y695310D02*
X313032Y708643D01*
G54D37*
X313032Y699476D02*
X305032Y708643D01*
G54D37*
X310032Y701976D02*
X305032Y695310D01*
G54D37*
X301364Y701976D02*
X299364Y702810D01*
X296964Y702810D01*
X295364Y701143D01*
X295364Y695310D01*
G54D37*
X295364Y697810D02*
X296364Y699476D01*
X298364Y699810D01*
X300364Y699476D01*
X301364Y697810D01*
X300964Y696143D01*
X299364Y695310D01*
X298364Y695310D01*
X297964Y695310D01*
X296364Y696143D01*
X295364Y697810D01*
G54D37*
X291698Y695310D02*
X291698Y702810D01*
G54D37*
X291698Y701143D02*
X289698Y702810D01*
X287698Y702810D01*
G54D37*
X284030Y695310D02*
X284030Y708643D01*
G54D37*
X280364Y695310D02*
X280364Y708643D01*
G54D37*
X272364Y695310D02*
X272364Y708643D01*
G54D37*
X280364Y701976D02*
X272364Y701976D01*
G54D37*
X268696Y701976D02*
X266696Y702810D01*
X264296Y702810D01*
X262696Y701143D01*
X262696Y695310D01*
G54D37*
X262696Y697810D02*
X263696Y699476D01*
X265696Y699810D01*
X267696Y699476D01*
X268696Y697810D01*
X268296Y696143D01*
X266696Y695310D01*
X265696Y695310D01*
X265296Y695310D01*
X263696Y696143D01*
X262696Y697810D01*
G54D37*
X259030Y695310D02*
X259030Y702810D01*
G54D37*
X259030Y701143D02*
X258030Y702310D01*
X256030Y702810D01*
X254030Y702310D01*
X253030Y701143D01*
X253030Y695310D01*
G54D37*
X249362Y702810D02*
X243362Y702810D01*
X249362Y695310D01*
X243362Y695310D01*
G54D37*
X357633Y675996D02*
X357633Y667662D01*
X358967Y665996D01*
X361633Y665162D01*
X364300Y665162D01*
X366967Y665996D01*
X368300Y667662D01*
X368300Y675996D01*
X366967Y677662D01*
X364300Y678496D01*
X361633Y678496D01*
X358967Y677662D01*
X357633Y675996D01*
G54D37*
X343299Y665162D02*
X353966Y665162D01*
X353966Y665996D01*
X352633Y667662D01*
X344633Y672662D01*
X343299Y674329D01*
X343299Y675996D01*
X344633Y677662D01*
X347299Y678496D01*
X349966Y678496D01*
X352633Y677662D01*
X353966Y675996D01*
G54D37*
X338565Y665162D02*
X339632Y665162D01*
X339632Y665829D01*
X338565Y665829D01*
X338565Y665162D01*
X339632Y665162D01*
G54D37*
X324231Y665162D02*
X334898Y665162D01*
X334898Y665996D01*
X333565Y667662D01*
X325565Y672662D01*
X324231Y674329D01*
X324231Y675996D01*
X325565Y677662D01*
X328231Y678496D01*
X330898Y678496D01*
X333565Y677662D01*
X334898Y675996D01*
G54D37*
X309897Y675996D02*
X309897Y667662D01*
X311231Y665996D01*
X313897Y665162D01*
X316564Y665162D01*
X319231Y665996D01*
X320564Y667662D01*
X320564Y675996D01*
X319231Y677662D01*
X316564Y678496D01*
X313897Y678496D01*
X311231Y677662D01*
X309897Y675996D01*
G54D37*
X295563Y665162D02*
X306230Y665162D01*
X306230Y665996D01*
X304897Y667662D01*
X296897Y672662D01*
X295563Y674329D01*
X295563Y675996D01*
X296897Y677662D01*
X299563Y678496D01*
X302230Y678496D01*
X304897Y677662D01*
X306230Y675996D01*
G54D37*
X291896Y673496D02*
X285229Y678496D01*
X285229Y665162D01*
G54D37*
X758150Y677108D02*
X756817Y676275D01*
X755483Y676275D01*
X754150Y677108D01*
X754150Y678775D01*
X754817Y679608D01*
X757483Y680442D01*
X758150Y681275D01*
X758150Y682942D01*
X756817Y683775D01*
X755483Y683775D01*
X754150Y682942D01*
G54D37*
X750483Y676275D02*
X750483Y683775D01*
G54D37*
X750483Y686275D02*
X750483Y686275D01*
G54D37*
X746816Y676275D02*
X746816Y683775D01*
G54D37*
X746816Y682442D02*
X745483Y683775D01*
X744149Y683275D01*
X743483Y682108D01*
X743483Y676275D01*
G54D37*
X743483Y682442D02*
X742149Y683775D01*
X740816Y683275D01*
X740149Y682108D01*
X740149Y676275D01*
G54D37*
X736482Y683775D02*
X736482Y672942D01*
G54D37*
X736482Y678775D02*
X735815Y676608D01*
X734482Y676275D01*
X733149Y676608D01*
X732482Y678275D01*
X732482Y681608D01*
X733149Y683275D01*
X734482Y683775D01*
X735815Y683275D01*
X736482Y681275D01*
G54D37*
X728815Y676275D02*
X728815Y689608D01*
G54D37*
X721148Y677108D02*
X722215Y676275D01*
X723548Y676275D01*
X724881Y677108D01*
X725148Y678775D01*
X725148Y681608D01*
X724481Y683275D01*
X723148Y683775D01*
X721815Y683275D01*
X721148Y682108D01*
X721148Y680442D01*
X725148Y680442D01*
G54D37*
X717481Y682108D02*
X712148Y682108D01*
G54D37*
X704481Y676275D02*
X704481Y689608D01*
G54D37*
X704481Y681608D02*
X705148Y683275D01*
X706481Y683775D01*
X707814Y683275D01*
X708481Y681608D01*
X708481Y678275D01*
X707814Y676608D01*
X706481Y676275D01*
X705148Y676608D01*
X704481Y678275D01*
G54D37*
X696814Y677108D02*
X697881Y676275D01*
X699214Y676275D01*
X700547Y677108D01*
X700814Y678775D01*
X700814Y681608D01*
X700147Y683275D01*
X698814Y683775D01*
X697481Y683275D01*
X696814Y682108D01*
X696814Y680442D01*
X700814Y680442D01*
G54D37*
X693147Y683775D02*
X690480Y676275D01*
X687814Y683775D01*
G54D37*
X684147Y676275D02*
X684147Y683775D01*
G54D37*
X684147Y686275D02*
X684147Y686275D01*
G54D37*
X677147Y683275D02*
X678480Y683775D01*
X679813Y683275D01*
X680480Y681608D01*
X680480Y678275D01*
X679813Y676608D01*
X678480Y676275D01*
X677147Y676608D01*
G54D37*
X669480Y677108D02*
X670547Y676275D01*
X671880Y676275D01*
X673213Y677108D01*
X673480Y678775D01*
X673480Y681608D01*
X672813Y683275D01*
X671480Y683775D01*
X670147Y683275D01*
X669480Y682108D01*
X669480Y680442D01*
X673480Y680442D01*
G54D37*
X665813Y677108D02*
X664480Y676275D01*
X663146Y676275D01*
X661813Y677108D01*
X661813Y678775D01*
X662480Y679608D01*
X665146Y680442D01*
X665813Y681275D01*
X665813Y682942D01*
X664480Y683775D01*
X663146Y683775D01*
X661813Y682942D01*
G54D37*
X653479Y677442D02*
X654413Y676275D01*
X656146Y676275D01*
X657346Y677442D01*
X658146Y679275D01*
X658146Y684108D01*
X657346Y685942D01*
X656146Y686775D01*
X654413Y686775D01*
X653479Y685275D01*
X653479Y679942D01*
G54D37*
X653746Y681942D02*
X653879Y683275D01*
X655213Y684108D01*
X656146Y683275D01*
X656413Y681942D01*
X656146Y680442D01*
X655213Y679608D01*
X653879Y680442D01*
X653746Y681942D01*
G54D37*
X649812Y676275D02*
X649812Y683775D01*
G54D37*
X649812Y682442D02*
X648479Y683775D01*
X647145Y683275D01*
X646479Y682108D01*
X646479Y676275D01*
G54D37*
X646479Y682442D02*
X645145Y683775D01*
X643812Y683275D01*
X643145Y682108D01*
X643145Y676275D01*
G54D37*
X639478Y682942D02*
X638145Y683775D01*
X636545Y683775D01*
X635478Y682108D01*
X635478Y676275D01*
G54D37*
X635478Y678775D02*
X636145Y680442D01*
X637478Y680775D01*
X638811Y680442D01*
X639478Y678775D01*
X639211Y677108D01*
X638145Y676275D01*
X637478Y676275D01*
X637211Y676275D01*
X636145Y677108D01*
X635478Y678775D01*
G54D37*
X631811Y676275D02*
X631811Y683775D01*
G54D37*
X631811Y686275D02*
X631811Y686275D01*
G54D37*
X628144Y676275D02*
X628144Y689608D01*
G54D37*
X623944Y676275D02*
X624477Y676275D01*
X624477Y676942D01*
X623944Y676942D01*
X623944Y676275D01*
X624477Y676275D01*
G54D37*
X620277Y676275D02*
X620277Y683775D01*
G54D37*
X620277Y682108D02*
X618944Y683775D01*
X617610Y683775D01*
G54D37*
X609943Y683775D02*
X609943Y676275D01*
G54D37*
X609943Y677942D02*
X610610Y676608D01*
X611943Y676275D01*
X613276Y676608D01*
X613943Y677942D01*
X613943Y683775D01*
G54D38*
X826815Y1426369D02*
X826815Y1437924D01*
G54D38*
X831437Y1437924D02*
X822193Y1437924D01*
G54D38*
X818149Y1426369D02*
X808905Y1426369D01*
G54D38*
X813527Y1426369D02*
X813527Y1437924D01*
G54D38*
X818149Y1437924D02*
X808905Y1437924D01*
G54D38*
X804861Y1437924D02*
X804861Y1426369D01*
X796772Y1426369D01*
G54D38*
X792728Y1435758D02*
X791572Y1437202D01*
X789261Y1437924D01*
X786950Y1437924D01*
X784639Y1437202D01*
X783484Y1435758D01*
X783484Y1434313D01*
X784639Y1432869D01*
X786950Y1432146D01*
X784639Y1431424D01*
X783484Y1429980D01*
X783484Y1428535D01*
X784639Y1427091D01*
X786950Y1426369D01*
X789261Y1426369D01*
X791572Y1427091D01*
X792728Y1428535D01*
G54D38*
X779440Y1433591D02*
X773662Y1437924D01*
X773662Y1426369D01*
G54D38*
X769618Y1433591D02*
X763840Y1437924D01*
X763840Y1426369D01*
G54D38*
X755521Y1426369D02*
X755521Y1437924D01*
X749743Y1437924D01*
X747432Y1437202D01*
X746277Y1435758D01*
X746277Y1428535D01*
X747432Y1427091D01*
X749743Y1426369D01*
X755521Y1426369D01*
G54D38*
X742233Y1426369D02*
X732989Y1426369D01*
G54D38*
X737611Y1426369D02*
X737611Y1437924D01*
G54D38*
X742233Y1437924D02*
X732989Y1437924D01*
G54D38*
X728945Y1428535D02*
X727789Y1427091D01*
X725478Y1426369D01*
X723167Y1426369D01*
X720856Y1427091D01*
X719701Y1428535D01*
X719701Y1429980D01*
X720856Y1431424D01*
X723167Y1432146D01*
X725478Y1432146D01*
X727789Y1432869D01*
X728945Y1434313D01*
X728945Y1435758D01*
X727789Y1437202D01*
X725478Y1437924D01*
X723167Y1437924D01*
X720856Y1437202D01*
X719701Y1435758D01*
G54D38*
X715657Y1426369D02*
X715657Y1437924D01*
X709879Y1437924D01*
X707568Y1437202D01*
X706413Y1435758D01*
X706413Y1434313D01*
X707568Y1432869D01*
X709879Y1432146D01*
X715657Y1432146D01*
G54D38*
X702369Y1437924D02*
X702369Y1426369D01*
X694280Y1426369D01*
G54D38*
X690236Y1426369D02*
X684458Y1437924D01*
X678680Y1426369D01*
G54D38*
X687925Y1430702D02*
X680992Y1430702D01*
G54D38*
X674636Y1437924D02*
X668858Y1432146D01*
X668858Y1426369D01*
G54D38*
X668858Y1432146D02*
X663080Y1437924D01*
X153988Y1314388D02*
G54D14*
D03*
X153988Y1296388D02*
G54D14*
D03*
X153988Y1278388D02*
G54D14*
D03*
X153988Y1260388D02*
G54D14*
D03*
X153988Y1242388D02*
G54D14*
D03*
X826294Y1315181D02*
G54D14*
D03*
X826294Y1297181D02*
G54D14*
D03*
X826294Y1279181D02*
G54D14*
D03*
X826294Y1261181D02*
G54D14*
D03*
X826294Y1243181D02*
G54D14*
D03*
G54D38*
X219736Y1435758D02*
X219736Y1428535D01*
X220892Y1427091D01*
X223203Y1426369D01*
X225514Y1426369D01*
X227825Y1427091D01*
X228981Y1428535D01*
X228981Y1435758D01*
X227825Y1437202D01*
X225514Y1437924D01*
X223203Y1437924D01*
X220892Y1437202D01*
X219736Y1435758D01*
G54D38*
X206448Y1426369D02*
X215693Y1426369D01*
X215693Y1427091D01*
X214537Y1428535D01*
X207604Y1432869D01*
X206448Y1434313D01*
X206448Y1435758D01*
X207604Y1437202D01*
X209915Y1437924D01*
X212226Y1437924D01*
X214537Y1437202D01*
X215693Y1435758D01*
G54D38*
X201480Y1426369D02*
X202405Y1426369D01*
X202405Y1426946D01*
X201480Y1426946D01*
X201480Y1426369D01*
X202405Y1426369D01*
G54D38*
X188192Y1426369D02*
X197437Y1426369D01*
X197437Y1427091D01*
X196281Y1428535D01*
X189348Y1432869D01*
X188192Y1434313D01*
X188192Y1435758D01*
X189348Y1437202D01*
X191659Y1437924D01*
X193970Y1437924D01*
X196281Y1437202D01*
X197437Y1435758D01*
G54D38*
X174904Y1435758D02*
X174904Y1428535D01*
X176060Y1427091D01*
X178371Y1426369D01*
X180682Y1426369D01*
X182993Y1427091D01*
X184149Y1428535D01*
X184149Y1435758D01*
X182993Y1437202D01*
X180682Y1437924D01*
X178371Y1437924D01*
X176060Y1437202D01*
X174904Y1435758D01*
G54D38*
X161616Y1426369D02*
X170861Y1426369D01*
X170861Y1427091D01*
X169705Y1428535D01*
X162772Y1432869D01*
X161616Y1434313D01*
X161616Y1435758D01*
X162772Y1437202D01*
X165083Y1437924D01*
X167394Y1437924D01*
X169705Y1437202D01*
X170861Y1435758D01*
G54D38*
X157573Y1433591D02*
X151795Y1437924D01*
X151795Y1426369D01*
X156370Y1059288D02*
G54D34*
D03*
X156370Y1077288D02*
G54D34*
D03*
X156370Y1095288D02*
G54D34*
D03*
X156370Y1113288D02*
G54D34*
D03*
X156370Y1131288D02*
G54D34*
D03*
X156370Y1149288D02*
G54D34*
D03*
%LPD*%
G54D39*
G36*
X249694Y626543D02*
X270554Y647402D01*
X282339Y635617D01*
X261480Y614757D01*
X249694Y626543D01*
G37*
G36*
X261480Y626543D02*
X282339Y605683D01*
X270554Y593898D01*
X249694Y614757D01*
X261480Y626543D01*
G37*
G36*
X261480Y614757D02*
X240620Y593898D01*
X228835Y605683D01*
X249694Y626543D01*
X261480Y614757D01*
G37*
G36*
X249694Y614757D02*
X228835Y635617D01*
X240620Y647402D01*
X261480Y626543D01*
X249694Y614757D01*
G37*
G54D40*
G36*
X474037Y962987D02*
X479340Y957684D01*
X475828Y954172D01*
X470525Y959475D01*
X474037Y962987D01*
G37*
G36*
X472281Y958748D02*
X464781Y958748D01*
X464781Y963714D01*
X472281Y963714D01*
X472281Y958748D01*
G37*
G36*
X469798Y961231D02*
X469798Y968731D01*
X474764Y968731D01*
X474764Y961231D01*
X469798Y961231D01*
G37*
G54D41*
G36*
X604437Y820337D02*
X609740Y815033D01*
X606299Y811592D01*
X600995Y816895D01*
X604437Y820337D01*
G37*
G36*
X604437Y816895D02*
X599133Y811592D01*
X595692Y815033D01*
X600995Y820337D01*
X604437Y816895D01*
G37*
G36*
X600995Y816895D02*
X595692Y822199D01*
X599133Y825640D01*
X604437Y820337D01*
X600995Y816895D01*
G37*
G36*
X600995Y820337D02*
X606299Y825640D01*
X609740Y822199D01*
X604437Y816895D01*
X600995Y820337D01*
G37*
G54D39*
G36*
X725944Y626543D02*
X746804Y647402D01*
X758589Y635617D01*
X737730Y614757D01*
X725944Y626543D01*
G37*
G36*
X737730Y626543D02*
X758589Y605683D01*
X746804Y593898D01*
X725944Y614757D01*
X737730Y626543D01*
G37*
G36*
X737730Y614757D02*
X716870Y593898D01*
X705085Y605683D01*
X725944Y626543D01*
X737730Y614757D01*
G37*
G36*
X725944Y614757D02*
X705085Y635617D01*
X716870Y647402D01*
X737730Y626543D01*
X725944Y614757D01*
G37*
G54D39*
G36*
X484644Y1072630D02*
X505504Y1093490D01*
X517289Y1081705D01*
X496430Y1060845D01*
X484644Y1072630D01*
G37*
G36*
X496430Y1072630D02*
X517289Y1051770D01*
X505504Y1039985D01*
X484644Y1060845D01*
X496430Y1072630D01*
G37*
G36*
X496430Y1060845D02*
X475570Y1039985D01*
X463785Y1051770D01*
X484644Y1072630D01*
X496430Y1060845D01*
G37*
G36*
X484644Y1060845D02*
X463785Y1081705D01*
X475570Y1093490D01*
X496430Y1072630D01*
X484644Y1060845D01*
G37*
G54D42*
G36*
X458582Y704457D02*
X468835Y694204D01*
X464121Y689490D01*
X453868Y699743D01*
X458582Y704457D01*
G37*
G36*
X458582Y699743D02*
X448329Y689490D01*
X443615Y694204D01*
X453868Y704457D01*
X458582Y699743D01*
G37*
G36*
X453868Y699743D02*
X443615Y709996D01*
X448329Y714710D01*
X458582Y704457D01*
X453868Y699743D01*
G37*
G36*
X453868Y704457D02*
X464121Y714710D01*
X468835Y709996D01*
X458582Y699743D01*
X453868Y704457D01*
G37*
G54D42*
G36*
X523582Y704457D02*
X533835Y694204D01*
X529121Y689490D01*
X518868Y699743D01*
X523582Y704457D01*
G37*
G36*
X523582Y699743D02*
X513329Y689490D01*
X508615Y694204D01*
X518868Y704457D01*
X523582Y699743D01*
G37*
G36*
X518868Y699743D02*
X508615Y709996D01*
X513329Y714710D01*
X523582Y704457D01*
X518868Y699743D01*
G37*
G36*
X518868Y704457D02*
X529121Y714710D01*
X533835Y709996D01*
X523582Y699743D01*
X518868Y704457D01*
G37*
G54D43*
G36*
X530217Y641350D02*
X530217Y627350D01*
X523883Y627350D01*
X523883Y641350D01*
X530217Y641350D01*
G37*
G36*
X523883Y641350D02*
X523883Y655350D01*
X530217Y655350D01*
X530217Y641350D01*
X523883Y641350D01*
G37*
G36*
X527050Y644517D02*
X541050Y644517D01*
X541050Y638184D01*
X527050Y638184D01*
X527050Y644517D01*
G37*
G54D43*
G36*
X329264Y935689D02*
X339164Y925790D01*
X334685Y921311D01*
X324786Y931211D01*
X329264Y935689D01*
G37*
G36*
X329264Y931211D02*
X319365Y921311D01*
X314886Y925790D01*
X324786Y935689D01*
X329264Y931211D01*
G37*
G36*
X324786Y935689D02*
X334685Y945589D01*
X339164Y941110D01*
X329264Y931211D01*
X324786Y935689D01*
G37*
G54D41*
G36*
X672308Y782597D02*
X677611Y777293D01*
X674170Y773852D01*
X668866Y779155D01*
X672308Y782597D01*
G37*
G36*
X672308Y779155D02*
X667004Y773852D01*
X663563Y777293D01*
X668866Y782597D01*
X672308Y779155D01*
G37*
G36*
X668866Y779155D02*
X663563Y784459D01*
X667004Y787900D01*
X672308Y782597D01*
X668866Y779155D01*
G37*
G36*
X668866Y782597D02*
X674170Y787900D01*
X677611Y784459D01*
X672308Y779155D01*
X668866Y782597D01*
G37*
G54D44*
G36*
X622846Y1038804D02*
X632746Y1028905D01*
X627595Y1023754D01*
X617696Y1033654D01*
X622846Y1038804D01*
G37*
G36*
X622846Y1033654D02*
X612947Y1023754D01*
X607796Y1028905D01*
X617696Y1038804D01*
X622846Y1033654D01*
G37*
G36*
X617696Y1033654D02*
X607796Y1043553D01*
X612947Y1048704D01*
X622846Y1038804D01*
X617696Y1033654D01*
G37*
G36*
X617696Y1038804D02*
X627595Y1048704D01*
X632746Y1043553D01*
X622846Y1033654D01*
X617696Y1038804D01*
G37*
G54D45*
G36*
X249122Y877772D02*
X254071Y872822D01*
X250590Y869341D01*
X245640Y874291D01*
X249122Y877772D01*
G37*
G36*
X249122Y874291D02*
X244172Y869341D01*
X240691Y872822D01*
X245640Y877772D01*
X249122Y874291D01*
G37*
G36*
X245640Y874291D02*
X240691Y879240D01*
X244172Y882722D01*
X249122Y877772D01*
X245640Y874291D01*
G37*
G36*
X245640Y877772D02*
X250590Y882722D01*
X254071Y879240D01*
X249122Y874291D01*
X245640Y877772D01*
G37*
G54D45*
G36*
X267122Y877772D02*
X272071Y872822D01*
X268590Y869341D01*
X263640Y874291D01*
X267122Y877772D01*
G37*
G36*
X267122Y874291D02*
X262172Y869341D01*
X258691Y872822D01*
X263640Y877772D01*
X267122Y874291D01*
G37*
G36*
X263640Y874291D02*
X258691Y879240D01*
X262172Y882722D01*
X267122Y877772D01*
X263640Y874291D01*
G37*
G36*
X263640Y877772D02*
X268590Y882722D01*
X272071Y879240D01*
X267122Y874291D01*
X263640Y877772D01*
G37*
G54D45*
G36*
X285122Y877772D02*
X290071Y872822D01*
X286590Y869341D01*
X281640Y874291D01*
X285122Y877772D01*
G37*
G36*
X285122Y874291D02*
X280172Y869341D01*
X276691Y872822D01*
X281640Y877772D01*
X285122Y874291D01*
G37*
G36*
X281640Y874291D02*
X276691Y879240D01*
X280172Y882722D01*
X285122Y877772D01*
X281640Y874291D01*
G37*
G36*
X281640Y877772D02*
X286590Y882722D01*
X290071Y879240D01*
X285122Y874291D01*
X281640Y877772D01*
G37*
G54D45*
G36*
X303122Y877772D02*
X308071Y872822D01*
X304590Y869341D01*
X299640Y874291D01*
X303122Y877772D01*
G37*
G36*
X303122Y874291D02*
X298172Y869341D01*
X294691Y872822D01*
X299640Y877772D01*
X303122Y874291D01*
G37*
G36*
X299640Y874291D02*
X294691Y879240D01*
X298172Y882722D01*
X303122Y877772D01*
X299640Y874291D01*
G37*
G36*
X299640Y877772D02*
X304590Y882722D01*
X308071Y879240D01*
X303122Y874291D01*
X299640Y877772D01*
G37*
G54D45*
G36*
X321122Y877772D02*
X326071Y872822D01*
X322590Y869341D01*
X317640Y874291D01*
X321122Y877772D01*
G37*
G36*
X321122Y874291D02*
X316172Y869341D01*
X312691Y872822D01*
X317640Y877772D01*
X321122Y874291D01*
G37*
G36*
X317640Y874291D02*
X312691Y879240D01*
X316172Y882722D01*
X321122Y877772D01*
X317640Y874291D01*
G37*
G36*
X317640Y877772D02*
X322590Y882722D01*
X326071Y879240D01*
X321122Y874291D01*
X317640Y877772D01*
G37*
G54D45*
G36*
X339122Y877772D02*
X344071Y872822D01*
X340590Y869341D01*
X335640Y874291D01*
X339122Y877772D01*
G37*
G36*
X339122Y874291D02*
X334172Y869341D01*
X330691Y872822D01*
X335640Y877772D01*
X339122Y874291D01*
G37*
G36*
X335640Y874291D02*
X330691Y879240D01*
X334172Y882722D01*
X339122Y877772D01*
X335640Y874291D01*
G37*
G36*
X335640Y877772D02*
X340590Y882722D01*
X344071Y879240D01*
X339122Y874291D01*
X335640Y877772D01*
G37*
G54D45*
G36*
X249122Y859772D02*
X254071Y854822D01*
X250590Y851341D01*
X245640Y856291D01*
X249122Y859772D01*
G37*
G36*
X249122Y856291D02*
X244172Y851341D01*
X240691Y854822D01*
X245640Y859772D01*
X249122Y856291D01*
G37*
G36*
X245640Y856291D02*
X240691Y861240D01*
X244172Y864722D01*
X249122Y859772D01*
X245640Y856291D01*
G37*
G36*
X245640Y859772D02*
X250590Y864722D01*
X254071Y861240D01*
X249122Y856291D01*
X245640Y859772D01*
G37*
G54D45*
G36*
X267122Y859772D02*
X272071Y854822D01*
X268590Y851341D01*
X263640Y856291D01*
X267122Y859772D01*
G37*
G36*
X267122Y856291D02*
X262172Y851341D01*
X258691Y854822D01*
X263640Y859772D01*
X267122Y856291D01*
G37*
G36*
X263640Y856291D02*
X258691Y861240D01*
X262172Y864722D01*
X267122Y859772D01*
X263640Y856291D01*
G37*
G36*
X263640Y859772D02*
X268590Y864722D01*
X272071Y861240D01*
X267122Y856291D01*
X263640Y859772D01*
G37*
G54D45*
G36*
X285122Y859772D02*
X290071Y854822D01*
X286590Y851341D01*
X281640Y856291D01*
X285122Y859772D01*
G37*
G36*
X285122Y856291D02*
X280172Y851341D01*
X276691Y854822D01*
X281640Y859772D01*
X285122Y856291D01*
G37*
G36*
X281640Y856291D02*
X276691Y861240D01*
X280172Y864722D01*
X285122Y859772D01*
X281640Y856291D01*
G37*
G36*
X281640Y859772D02*
X286590Y864722D01*
X290071Y861240D01*
X285122Y856291D01*
X281640Y859772D01*
G37*
G54D45*
G36*
X303122Y859772D02*
X308071Y854822D01*
X304590Y851341D01*
X299640Y856291D01*
X303122Y859772D01*
G37*
G36*
X303122Y856291D02*
X298172Y851341D01*
X294691Y854822D01*
X299640Y859772D01*
X303122Y856291D01*
G37*
G36*
X299640Y856291D02*
X294691Y861240D01*
X298172Y864722D01*
X303122Y859772D01*
X299640Y856291D01*
G37*
G36*
X299640Y859772D02*
X304590Y864722D01*
X308071Y861240D01*
X303122Y856291D01*
X299640Y859772D01*
G37*
G54D45*
G36*
X321122Y859772D02*
X326071Y854822D01*
X322590Y851341D01*
X317640Y856291D01*
X321122Y859772D01*
G37*
G36*
X321122Y856291D02*
X316172Y851341D01*
X312691Y854822D01*
X317640Y859772D01*
X321122Y856291D01*
G37*
G36*
X317640Y856291D02*
X312691Y861240D01*
X316172Y864722D01*
X321122Y859772D01*
X317640Y856291D01*
G37*
G36*
X317640Y859772D02*
X322590Y864722D01*
X326071Y861240D01*
X321122Y856291D01*
X317640Y859772D01*
G37*
G54D45*
G36*
X339122Y859772D02*
X344071Y854822D01*
X340590Y851341D01*
X335640Y856291D01*
X339122Y859772D01*
G37*
G36*
X339122Y856291D02*
X334172Y851341D01*
X330691Y854822D01*
X335640Y859772D01*
X339122Y856291D01*
G37*
G36*
X335640Y856291D02*
X330691Y861240D01*
X334172Y864722D01*
X339122Y859772D01*
X335640Y856291D01*
G37*
G36*
X335640Y859772D02*
X340590Y864722D01*
X344071Y861240D01*
X339122Y856291D01*
X335640Y859772D01*
G37*
G54D45*
G36*
X249122Y841772D02*
X254071Y836822D01*
X250590Y833341D01*
X245640Y838291D01*
X249122Y841772D01*
G37*
G36*
X249122Y838291D02*
X244172Y833341D01*
X240691Y836822D01*
X245640Y841772D01*
X249122Y838291D01*
G37*
G36*
X245640Y838291D02*
X240691Y843240D01*
X244172Y846722D01*
X249122Y841772D01*
X245640Y838291D01*
G37*
G36*
X245640Y841772D02*
X250590Y846722D01*
X254071Y843240D01*
X249122Y838291D01*
X245640Y841772D01*
G37*
G54D45*
G36*
X267122Y841772D02*
X272071Y836822D01*
X268590Y833341D01*
X263640Y838291D01*
X267122Y841772D01*
G37*
G36*
X267122Y838291D02*
X262172Y833341D01*
X258691Y836822D01*
X263640Y841772D01*
X267122Y838291D01*
G37*
G36*
X263640Y838291D02*
X258691Y843240D01*
X262172Y846722D01*
X267122Y841772D01*
X263640Y838291D01*
G37*
G36*
X263640Y841772D02*
X268590Y846722D01*
X272071Y843240D01*
X267122Y838291D01*
X263640Y841772D01*
G37*
G54D45*
G36*
X285122Y841772D02*
X290071Y836822D01*
X286590Y833341D01*
X281640Y838291D01*
X285122Y841772D01*
G37*
G36*
X285122Y838291D02*
X280172Y833341D01*
X276691Y836822D01*
X281640Y841772D01*
X285122Y838291D01*
G37*
G36*
X281640Y838291D02*
X276691Y843240D01*
X280172Y846722D01*
X285122Y841772D01*
X281640Y838291D01*
G37*
G36*
X281640Y841772D02*
X286590Y846722D01*
X290071Y843240D01*
X285122Y838291D01*
X281640Y841772D01*
G37*
G54D45*
G36*
X303122Y841772D02*
X308071Y836822D01*
X304590Y833341D01*
X299640Y838291D01*
X303122Y841772D01*
G37*
G36*
X303122Y838291D02*
X298172Y833341D01*
X294691Y836822D01*
X299640Y841772D01*
X303122Y838291D01*
G37*
G36*
X299640Y838291D02*
X294691Y843240D01*
X298172Y846722D01*
X303122Y841772D01*
X299640Y838291D01*
G37*
G36*
X299640Y841772D02*
X304590Y846722D01*
X308071Y843240D01*
X303122Y838291D01*
X299640Y841772D01*
G37*
G54D45*
G36*
X321122Y841772D02*
X326071Y836822D01*
X322590Y833341D01*
X317640Y838291D01*
X321122Y841772D01*
G37*
G36*
X321122Y838291D02*
X316172Y833341D01*
X312691Y836822D01*
X317640Y841772D01*
X321122Y838291D01*
G37*
G36*
X317640Y838291D02*
X312691Y843240D01*
X316172Y846722D01*
X321122Y841772D01*
X317640Y838291D01*
G37*
G36*
X317640Y841772D02*
X322590Y846722D01*
X326071Y843240D01*
X321122Y838291D01*
X317640Y841772D01*
G37*
G54D45*
G36*
X339122Y841772D02*
X344071Y836822D01*
X340590Y833341D01*
X335640Y838291D01*
X339122Y841772D01*
G37*
G36*
X339122Y838291D02*
X334172Y833341D01*
X330691Y836822D01*
X335640Y841772D01*
X339122Y838291D01*
G37*
G36*
X335640Y838291D02*
X330691Y843240D01*
X334172Y846722D01*
X339122Y841772D01*
X335640Y838291D01*
G37*
G36*
X335640Y841772D02*
X340590Y846722D01*
X344071Y843240D01*
X339122Y838291D01*
X335640Y841772D01*
G37*
G54D45*
G36*
X249122Y823772D02*
X254071Y818822D01*
X250590Y815341D01*
X245640Y820291D01*
X249122Y823772D01*
G37*
G36*
X249122Y820291D02*
X244172Y815341D01*
X240691Y818822D01*
X245640Y823772D01*
X249122Y820291D01*
G37*
G36*
X245640Y820291D02*
X240691Y825240D01*
X244172Y828722D01*
X249122Y823772D01*
X245640Y820291D01*
G37*
G36*
X245640Y823772D02*
X250590Y828722D01*
X254071Y825240D01*
X249122Y820291D01*
X245640Y823772D01*
G37*
G54D45*
G36*
X267122Y823772D02*
X272071Y818822D01*
X268590Y815341D01*
X263640Y820291D01*
X267122Y823772D01*
G37*
G36*
X267122Y820291D02*
X262172Y815341D01*
X258691Y818822D01*
X263640Y823772D01*
X267122Y820291D01*
G37*
G36*
X263640Y820291D02*
X258691Y825240D01*
X262172Y828722D01*
X267122Y823772D01*
X263640Y820291D01*
G37*
G36*
X263640Y823772D02*
X268590Y828722D01*
X272071Y825240D01*
X267122Y820291D01*
X263640Y823772D01*
G37*
G54D45*
G36*
X285122Y823772D02*
X290071Y818822D01*
X286590Y815341D01*
X281640Y820291D01*
X285122Y823772D01*
G37*
G36*
X285122Y820291D02*
X280172Y815341D01*
X276691Y818822D01*
X281640Y823772D01*
X285122Y820291D01*
G37*
G36*
X281640Y820291D02*
X276691Y825240D01*
X280172Y828722D01*
X285122Y823772D01*
X281640Y820291D01*
G37*
G36*
X281640Y823772D02*
X286590Y828722D01*
X290071Y825240D01*
X285122Y820291D01*
X281640Y823772D01*
G37*
G54D45*
G36*
X303122Y823772D02*
X308071Y818822D01*
X304590Y815341D01*
X299640Y820291D01*
X303122Y823772D01*
G37*
G36*
X303122Y820291D02*
X298172Y815341D01*
X294691Y818822D01*
X299640Y823772D01*
X303122Y820291D01*
G37*
G36*
X299640Y820291D02*
X294691Y825240D01*
X298172Y828722D01*
X303122Y823772D01*
X299640Y820291D01*
G37*
G36*
X299640Y823772D02*
X304590Y828722D01*
X308071Y825240D01*
X303122Y820291D01*
X299640Y823772D01*
G37*
G54D45*
G36*
X321122Y823772D02*
X326071Y818822D01*
X322590Y815341D01*
X317640Y820291D01*
X321122Y823772D01*
G37*
G36*
X321122Y820291D02*
X316172Y815341D01*
X312691Y818822D01*
X317640Y823772D01*
X321122Y820291D01*
G37*
G36*
X317640Y820291D02*
X312691Y825240D01*
X316172Y828722D01*
X321122Y823772D01*
X317640Y820291D01*
G37*
G36*
X317640Y823772D02*
X322590Y828722D01*
X326071Y825240D01*
X321122Y820291D01*
X317640Y823772D01*
G37*
G54D45*
G36*
X339122Y823772D02*
X344071Y818822D01*
X340590Y815341D01*
X335640Y820291D01*
X339122Y823772D01*
G37*
G36*
X339122Y820291D02*
X334172Y815341D01*
X330691Y818822D01*
X335640Y823772D01*
X339122Y820291D01*
G37*
G36*
X335640Y820291D02*
X330691Y825240D01*
X334172Y828722D01*
X339122Y823772D01*
X335640Y820291D01*
G37*
G36*
X335640Y823772D02*
X340590Y828722D01*
X344071Y825240D01*
X339122Y820291D01*
X335640Y823772D01*
G37*
G54D45*
G36*
X249122Y805772D02*
X254071Y800822D01*
X250590Y797341D01*
X245640Y802291D01*
X249122Y805772D01*
G37*
G36*
X249122Y802291D02*
X244172Y797341D01*
X240691Y800822D01*
X245640Y805772D01*
X249122Y802291D01*
G37*
G36*
X245640Y802291D02*
X240691Y807240D01*
X244172Y810722D01*
X249122Y805772D01*
X245640Y802291D01*
G37*
G36*
X245640Y805772D02*
X250590Y810722D01*
X254071Y807240D01*
X249122Y802291D01*
X245640Y805772D01*
G37*
G54D45*
G36*
X267122Y805772D02*
X272071Y800822D01*
X268590Y797341D01*
X263640Y802291D01*
X267122Y805772D01*
G37*
G36*
X267122Y802291D02*
X262172Y797341D01*
X258691Y800822D01*
X263640Y805772D01*
X267122Y802291D01*
G37*
G36*
X263640Y802291D02*
X258691Y807240D01*
X262172Y810722D01*
X267122Y805772D01*
X263640Y802291D01*
G37*
G36*
X263640Y805772D02*
X268590Y810722D01*
X272071Y807240D01*
X267122Y802291D01*
X263640Y805772D01*
G37*
G54D45*
G36*
X285122Y805772D02*
X290071Y800822D01*
X286590Y797341D01*
X281640Y802291D01*
X285122Y805772D01*
G37*
G36*
X285122Y802291D02*
X280172Y797341D01*
X276691Y800822D01*
X281640Y805772D01*
X285122Y802291D01*
G37*
G36*
X281640Y802291D02*
X276691Y807240D01*
X280172Y810722D01*
X285122Y805772D01*
X281640Y802291D01*
G37*
G36*
X281640Y805772D02*
X286590Y810722D01*
X290071Y807240D01*
X285122Y802291D01*
X281640Y805772D01*
G37*
G54D45*
G36*
X303122Y805772D02*
X308071Y800822D01*
X304590Y797341D01*
X299640Y802291D01*
X303122Y805772D01*
G37*
G36*
X303122Y802291D02*
X298172Y797341D01*
X294691Y800822D01*
X299640Y805772D01*
X303122Y802291D01*
G37*
G36*
X299640Y802291D02*
X294691Y807240D01*
X298172Y810722D01*
X303122Y805772D01*
X299640Y802291D01*
G37*
G36*
X299640Y805772D02*
X304590Y810722D01*
X308071Y807240D01*
X303122Y802291D01*
X299640Y805772D01*
G37*
G54D45*
G36*
X321122Y805772D02*
X326071Y800822D01*
X322590Y797341D01*
X317640Y802291D01*
X321122Y805772D01*
G37*
G36*
X321122Y802291D02*
X316172Y797341D01*
X312691Y800822D01*
X317640Y805772D01*
X321122Y802291D01*
G37*
G36*
X317640Y802291D02*
X312691Y807240D01*
X316172Y810722D01*
X321122Y805772D01*
X317640Y802291D01*
G37*
G36*
X317640Y805772D02*
X322590Y810722D01*
X326071Y807240D01*
X321122Y802291D01*
X317640Y805772D01*
G37*
G54D45*
G36*
X339122Y805772D02*
X344071Y800822D01*
X340590Y797341D01*
X335640Y802291D01*
X339122Y805772D01*
G37*
G36*
X339122Y802291D02*
X334172Y797341D01*
X330691Y800822D01*
X335640Y805772D01*
X339122Y802291D01*
G37*
G36*
X335640Y802291D02*
X330691Y807240D01*
X334172Y810722D01*
X339122Y805772D01*
X335640Y802291D01*
G37*
G36*
X335640Y805772D02*
X340590Y810722D01*
X344071Y807240D01*
X339122Y802291D01*
X335640Y805772D01*
G37*
G54D46*
G36*
X827237Y1060231D02*
X831834Y1055635D01*
X829948Y1053749D01*
X825352Y1058345D01*
X827237Y1060231D01*
G37*
G36*
X827237Y1058345D02*
X822641Y1053749D01*
X820756Y1055635D01*
X825352Y1060231D01*
X827237Y1058345D01*
G37*
G36*
X825352Y1058345D02*
X820756Y1062941D01*
X822641Y1064827D01*
X827237Y1060231D01*
X825352Y1058345D01*
G37*
G36*
X825352Y1060231D02*
X829948Y1064827D01*
X831834Y1062941D01*
X827237Y1058345D01*
X825352Y1060231D01*
G37*
G54D46*
G36*
X827237Y1078231D02*
X831834Y1073635D01*
X829948Y1071749D01*
X825352Y1076345D01*
X827237Y1078231D01*
G37*
G36*
X827237Y1076345D02*
X822641Y1071749D01*
X820756Y1073635D01*
X825352Y1078231D01*
X827237Y1076345D01*
G37*
G36*
X825352Y1076345D02*
X820756Y1080941D01*
X822641Y1082827D01*
X827237Y1078231D01*
X825352Y1076345D01*
G37*
G36*
X825352Y1078231D02*
X829948Y1082827D01*
X831834Y1080941D01*
X827237Y1076345D01*
X825352Y1078231D01*
G37*
G54D46*
G36*
X827237Y1096231D02*
X831834Y1091635D01*
X829948Y1089749D01*
X825352Y1094345D01*
X827237Y1096231D01*
G37*
G36*
X827237Y1094345D02*
X822641Y1089749D01*
X820756Y1091635D01*
X825352Y1096231D01*
X827237Y1094345D01*
G37*
G36*
X825352Y1094345D02*
X820756Y1098941D01*
X822641Y1100827D01*
X827237Y1096231D01*
X825352Y1094345D01*
G37*
G36*
X825352Y1096231D02*
X829948Y1100827D01*
X831834Y1098941D01*
X827237Y1094345D01*
X825352Y1096231D01*
G37*
G54D46*
G36*
X827237Y1114231D02*
X831834Y1109635D01*
X829948Y1107749D01*
X825352Y1112345D01*
X827237Y1114231D01*
G37*
G36*
X827237Y1112345D02*
X822641Y1107749D01*
X820756Y1109635D01*
X825352Y1114231D01*
X827237Y1112345D01*
G37*
G36*
X825352Y1112345D02*
X820756Y1116941D01*
X822641Y1118827D01*
X827237Y1114231D01*
X825352Y1112345D01*
G37*
G36*
X825352Y1114231D02*
X829948Y1118827D01*
X831834Y1116941D01*
X827237Y1112345D01*
X825352Y1114231D01*
G37*
G54D46*
G36*
X827237Y1132231D02*
X831834Y1127635D01*
X829948Y1125749D01*
X825352Y1130345D01*
X827237Y1132231D01*
G37*
G36*
X827237Y1130345D02*
X822641Y1125749D01*
X820756Y1127635D01*
X825352Y1132231D01*
X827237Y1130345D01*
G37*
G36*
X825352Y1130345D02*
X820756Y1134941D01*
X822641Y1136827D01*
X827237Y1132231D01*
X825352Y1130345D01*
G37*
G36*
X825352Y1132231D02*
X829948Y1136827D01*
X831834Y1134941D01*
X827237Y1130345D01*
X825352Y1132231D01*
G37*
G54D46*
G36*
X827237Y1150231D02*
X831834Y1145635D01*
X829948Y1143749D01*
X825352Y1148345D01*
X827237Y1150231D01*
G37*
G36*
X827237Y1148345D02*
X822641Y1143749D01*
X820756Y1145635D01*
X825352Y1150231D01*
X827237Y1148345D01*
G37*
G36*
X825352Y1148345D02*
X820756Y1152941D01*
X822641Y1154827D01*
X827237Y1150231D01*
X825352Y1148345D01*
G37*
G36*
X825352Y1150231D02*
X829948Y1154827D01*
X831834Y1152941D01*
X827237Y1148345D01*
X825352Y1150231D01*
G37*
G54D46*
G36*
X157312Y1060231D02*
X161908Y1055635D01*
X160023Y1053749D01*
X155427Y1058345D01*
X157312Y1060231D01*
G37*
G36*
X157312Y1058345D02*
X152716Y1053749D01*
X150830Y1055635D01*
X155427Y1060231D01*
X157312Y1058345D01*
G37*
G36*
X155427Y1058345D02*
X150830Y1062941D01*
X152716Y1064827D01*
X157312Y1060231D01*
X155427Y1058345D01*
G37*
G36*
X155427Y1060231D02*
X160023Y1064827D01*
X161908Y1062941D01*
X157312Y1058345D01*
X155427Y1060231D01*
G37*
G54D46*
G36*
X157312Y1078231D02*
X161908Y1073635D01*
X160023Y1071749D01*
X155427Y1076345D01*
X157312Y1078231D01*
G37*
G36*
X157312Y1076345D02*
X152716Y1071749D01*
X150830Y1073635D01*
X155427Y1078231D01*
X157312Y1076345D01*
G37*
G36*
X155427Y1076345D02*
X150830Y1080941D01*
X152716Y1082827D01*
X157312Y1078231D01*
X155427Y1076345D01*
G37*
G36*
X155427Y1078231D02*
X160023Y1082827D01*
X161908Y1080941D01*
X157312Y1076345D01*
X155427Y1078231D01*
G37*
G54D46*
G36*
X157312Y1096231D02*
X161908Y1091635D01*
X160023Y1089749D01*
X155427Y1094345D01*
X157312Y1096231D01*
G37*
G36*
X157312Y1094345D02*
X152716Y1089749D01*
X150830Y1091635D01*
X155427Y1096231D01*
X157312Y1094345D01*
G37*
G36*
X155427Y1094345D02*
X150830Y1098941D01*
X152716Y1100827D01*
X157312Y1096231D01*
X155427Y1094345D01*
G37*
G36*
X155427Y1096231D02*
X160023Y1100827D01*
X161908Y1098941D01*
X157312Y1094345D01*
X155427Y1096231D01*
G37*
G54D46*
G36*
X157312Y1114231D02*
X161908Y1109635D01*
X160023Y1107749D01*
X155427Y1112345D01*
X157312Y1114231D01*
G37*
G36*
X157312Y1112345D02*
X152716Y1107749D01*
X150830Y1109635D01*
X155427Y1114231D01*
X157312Y1112345D01*
G37*
G36*
X155427Y1112345D02*
X150830Y1116941D01*
X152716Y1118827D01*
X157312Y1114231D01*
X155427Y1112345D01*
G37*
G36*
X155427Y1114231D02*
X160023Y1118827D01*
X161908Y1116941D01*
X157312Y1112345D01*
X155427Y1114231D01*
G37*
G54D46*
G36*
X157312Y1132231D02*
X161908Y1127635D01*
X160023Y1125749D01*
X155427Y1130345D01*
X157312Y1132231D01*
G37*
G36*
X157312Y1130345D02*
X152716Y1125749D01*
X150830Y1127635D01*
X155427Y1132231D01*
X157312Y1130345D01*
G37*
G36*
X155427Y1130345D02*
X150830Y1134941D01*
X152716Y1136827D01*
X157312Y1132231D01*
X155427Y1130345D01*
G37*
G36*
X155427Y1132231D02*
X160023Y1136827D01*
X161908Y1134941D01*
X157312Y1130345D01*
X155427Y1132231D01*
G37*
G54D46*
G36*
X157312Y1150231D02*
X161908Y1145635D01*
X160023Y1143749D01*
X155427Y1148345D01*
X157312Y1150231D01*
G37*
G36*
X157312Y1148345D02*
X152716Y1143749D01*
X150830Y1145635D01*
X155427Y1150231D01*
X157312Y1148345D01*
G37*
G36*
X155427Y1148345D02*
X150830Y1152941D01*
X152716Y1154827D01*
X157312Y1150231D01*
X155427Y1148345D01*
G37*
G36*
X155427Y1150231D02*
X160023Y1154827D01*
X161908Y1152941D01*
X157312Y1148345D01*
X155427Y1150231D01*
G37*
G36*
X167125Y1418725D02*
X182125Y1418725D01*
X182125Y1403725D01*
X167125Y1403725D01*
X167125Y1418725D01*
G37*
X174625Y1385825D02*
G54D47*
D03*
X174625Y1360425D02*
G54D47*
D03*
X174625Y1309625D02*
G54D47*
D03*
X174625Y1258825D02*
G54D47*
D03*
X250825Y1258825D02*
G54D47*
D03*
X250825Y1309625D02*
G54D47*
D03*
X250825Y1360425D02*
G54D47*
D03*
X250825Y1385825D02*
G54D47*
D03*
X250825Y1411225D02*
G54D47*
D03*
X174625Y1335025D02*
G54D47*
D03*
G54D48*
X361950Y1385825D02*
X361950Y1373125D01*
G54D48*
X473075Y1385825D02*
X473075Y1373125D01*
G54D48*
X396875Y1360425D02*
X396875Y1347725D01*
G54D48*
X285750Y1360425D02*
X285750Y1347725D01*
G54D36*
X153988Y1411225D02*
X584200Y1411225D01*
G36*
X153988Y1415225D02*
X153988Y1407225D01*
X149988Y1407225D01*
X149988Y1415225D01*
X153988Y1415225D01*
G37*
G36*
X584200Y1407225D02*
X584200Y1415225D01*
X588200Y1415225D01*
X588200Y1407225D01*
X584200Y1407225D01*
G37*
G54D36*
X825500Y1411225D02*
X584200Y1411225D01*
G54D48*
X174625Y1360425D02*
X174625Y1347725D01*
G54D48*
X508000Y1360425D02*
X508000Y1347725D01*
G54D48*
X250825Y1385825D02*
X250825Y1373125D01*
G54D48*
X619125Y1385825D02*
X619125Y1373125D01*
G54D48*
X584200Y1385825D02*
X584200Y1373125D01*
G54D48*
X695325Y1385825D02*
X695325Y1373125D01*
G54D48*
X806450Y1385825D02*
X806450Y1373125D01*
G54D48*
X730250Y1360425D02*
X730250Y1347725D01*
G54D48*
X619125Y1360425D02*
X619125Y1347725D01*
G54D48*
X250825Y1373125D02*
X806450Y1373125D01*
G54D48*
X730250Y1347725D02*
X174625Y1347725D01*
G54D36*
X153988Y1236600D02*
X827088Y1236600D01*
X723900Y1284225D02*
G54D49*
D03*
X698500Y1284225D02*
G54D49*
D03*
X673100Y1284225D02*
G54D49*
D03*
X647700Y1284225D02*
G54D49*
D03*
X774700Y1284225D02*
G54D49*
D03*
X749300Y1284225D02*
G54D49*
D03*
X282575Y1284225D02*
G54D49*
D03*
X257175Y1284225D02*
G54D49*
D03*
X231775Y1284225D02*
G54D49*
D03*
X206375Y1284225D02*
G54D49*
D03*
X333375Y1284225D02*
G54D49*
D03*
X307975Y1284225D02*
G54D49*
D03*
X561975Y1284225D02*
G54D49*
D03*
X536575Y1284225D02*
G54D49*
D03*
X447675Y1284225D02*
G54D49*
D03*
X422275Y1284225D02*
G54D49*
D03*
G54D48*
X174625Y1309625D02*
X179388Y1298575D01*
X179388Y1284288D01*
G54D48*
X774700Y1284225D02*
X774700Y1258825D01*
X806450Y1258825D01*
G54D48*
X723900Y1274700D02*
X717550Y1266825D01*
X717550Y1246125D01*
X636588Y1246188D01*
X636588Y1263650D01*
X625475Y1274762D01*
X596900Y1274700D01*
X584200Y1258825D01*
G54D48*
X473075Y1258825D02*
X490538Y1258825D01*
X490538Y1322325D01*
X663575Y1322325D01*
X685800Y1298512D01*
X698500Y1284225D01*
X647700Y1257237D02*
G54D50*
D03*
X206375Y1322325D02*
G54D50*
D03*
G54D48*
X231775Y1284225D02*
X231775Y1322388D01*
X384175Y1322325D01*
X396875Y1309625D01*
X307975Y1258825D02*
G54D50*
D03*
X619125Y1287400D02*
G54D50*
D03*
X268288Y1258825D02*
G54D50*
D03*
X447675Y1309625D02*
G54D51*
D03*
G54D48*
X447675Y1309625D02*
X447675Y1284225D01*
G54D48*
X536575Y1309625D02*
X536575Y1284225D01*
G54D48*
X561975Y1309625D02*
X561975Y1284225D01*
G54D48*
X422275Y1284225D02*
X422275Y1347725D01*
X447675Y1385825D02*
G54D51*
D03*
X536575Y1309625D02*
G54D51*
D03*
X536575Y1385825D02*
G54D51*
D03*
G54D48*
X536575Y1385825D02*
X536575Y1373125D01*
X561975Y1309625D02*
G54D50*
D03*
G54D52*
X153988Y1242950D02*
X153988Y1314388D01*
G36*
X144488Y1242950D02*
X163488Y1242950D01*
X163488Y1233450D01*
X144488Y1233450D01*
X144488Y1242950D01*
G37*
G36*
X163488Y1314388D02*
X144488Y1314388D01*
X144488Y1323888D01*
X163488Y1323888D01*
X163488Y1314388D01*
G37*
X154161Y1343938D02*
G54D53*
D03*
X154161Y1374338D02*
G54D53*
D03*
X255587Y620650D02*
G54D54*
D03*
X583588Y890333D02*
G54D51*
D03*
X547526Y854271D02*
G54D51*
D03*
X488878Y978286D02*
G54D55*
D03*
X472281Y961231D02*
G54D55*
D03*
X483734Y926790D02*
G54D50*
D03*
G54D48*
X562162Y972355D02*
X516624Y926672D01*
X483734Y926790D01*
G54D48*
X550862Y1112838D02*
X554831Y1107281D01*
X554831Y976312D01*
G54D48*
X547688Y981075D02*
X548119Y1100293D01*
X534988Y1112838D01*
X447675Y1112838D01*
G54D48*
X540544Y985044D02*
X541338Y1095375D01*
X531374Y1104299D01*
X422275Y1104900D01*
X422275Y1112044D01*
X825674Y1345525D02*
G54D53*
D03*
X825674Y1375925D02*
G54D53*
D03*
G54D52*
X826294Y1243744D02*
X826294Y1315181D01*
G36*
X816794Y1243744D02*
X835794Y1243744D01*
X835794Y1234244D01*
X816794Y1234244D01*
X816794Y1243744D01*
G37*
G36*
X835794Y1315181D02*
X816794Y1315181D01*
X816794Y1324681D01*
X835794Y1324681D01*
X835794Y1315181D01*
G37*
G54D36*
X152574Y1343938D02*
X152574Y1309799D01*
X152400Y1309625D01*
G54D36*
X153988Y1411225D02*
X153988Y1374511D01*
X154161Y1374338D01*
G36*
X157988Y1411225D02*
X149988Y1411225D01*
X149988Y1415225D01*
X157988Y1415225D01*
X157988Y1411225D01*
G37*
G54D36*
X825500Y1409638D02*
X825674Y1375925D01*
G36*
X829500Y1409658D02*
X821500Y1409617D01*
X821479Y1413617D01*
X829479Y1413658D01*
X829500Y1409658D01*
G37*
G36*
X821674Y1375905D02*
X829674Y1375946D01*
X829694Y1371946D01*
X821694Y1371905D01*
X821674Y1375905D01*
G37*
G54D36*
X825674Y1345525D02*
X825674Y1309451D01*
X490538Y1433450D02*
G54D56*
D03*
G54D23*
X490538Y1412875D02*
X490538Y1430275D01*
G36*
X485538Y1412875D02*
X495538Y1412875D01*
X495538Y1407875D01*
X485538Y1407875D01*
X485538Y1412875D01*
G37*
G36*
X495538Y1430275D02*
X485538Y1430275D01*
X485538Y1435275D01*
X495538Y1435275D01*
X495538Y1430275D01*
G37*
X602716Y818616D02*
G54D55*
D03*
X554831Y976312D02*
G54D50*
D03*
G54D48*
X561975Y1112838D02*
X562162Y972355D01*
X490537Y1138175D02*
G54D55*
D03*
X547687Y981075D02*
G54D50*
D03*
X540544Y985044D02*
G54D50*
D03*
X422275Y1112044D02*
G54D50*
D03*
X550862Y1112838D02*
G54D50*
D03*
X561975Y1112838D02*
G54D50*
D03*
X331787Y1111250D02*
G54D50*
D03*
X306388Y1111250D02*
G54D50*
D03*
X280987Y1111250D02*
G54D50*
D03*
X255588Y1111250D02*
G54D50*
D03*
X525462Y1025525D02*
G54D50*
D03*
X527050Y1016000D02*
G54D50*
D03*
X444500Y1033462D02*
G54D50*
D03*
X396875Y1079500D02*
G54D50*
D03*
G54D48*
X255588Y1111250D02*
X255588Y1079500D01*
X320936Y1079500D01*
G54D48*
X280988Y1111250D02*
X280988Y1089025D01*
X346075Y1089025D01*
X346336Y1079500D01*
G54D48*
X306388Y1111250D02*
X306388Y1095375D01*
X371475Y1095375D01*
X371736Y1079500D01*
G54D48*
X331788Y1111250D02*
X331788Y1103312D01*
X396875Y1103312D01*
X396875Y1079500D01*
X731837Y620650D02*
G54D54*
D03*
X490537Y1066738D02*
G54D54*
D03*
X327025Y984250D02*
G54D57*
D03*
G36*
X311125Y993750D02*
X311125Y974750D01*
X292125Y974750D01*
X292125Y993750D01*
X311125Y993750D01*
G37*
X327025Y958850D02*
G54D57*
D03*
X301625Y958850D02*
G54D57*
D03*
X327025Y933450D02*
G54D57*
D03*
X301625Y933450D02*
G54D57*
D03*
G36*
X629771Y944130D02*
X629771Y925130D01*
X610771Y925130D01*
X610771Y944130D01*
X629771Y944130D01*
G37*
X620271Y1036230D02*
G54D58*
D03*
X377876Y805658D02*
G54D55*
D03*
X371736Y1079500D02*
G54D50*
D03*
X346336Y1079500D02*
G54D50*
D03*
X320936Y1079500D02*
G54D50*
D03*
X752656Y901230D02*
G54D55*
D03*
X699153Y828685D02*
G54D50*
D03*
X727216Y800621D02*
G54D50*
D03*
X679938Y714375D02*
G54D55*
D03*
X616438Y784225D02*
G54D55*
D03*
X681218Y942505D02*
G54D50*
D03*
X681218Y872655D02*
G54D50*
D03*
X437356Y903288D02*
G54D50*
D03*
X426244Y912019D02*
G54D50*
D03*
X451644Y895350D02*
G54D50*
D03*
X462756Y884238D02*
G54D50*
D03*
G54D48*
X426244Y912019D02*
X674688Y912019D01*
X681038Y919956D01*
X681038Y942324D01*
X681218Y942505D01*
G54D48*
X437356Y903288D02*
X674688Y903288D01*
X681038Y896938D01*
X681218Y872655D01*
G54D48*
X462756Y884238D02*
X462756Y839788D01*
X698500Y839788D01*
X698500Y829338D01*
X699153Y828685D01*
G54D48*
X451644Y895350D02*
X450850Y801688D01*
X727216Y800621D01*
X377825Y895350D02*
G54D50*
D03*
G54D48*
X301625Y958850D02*
X269875Y958850D01*
X269807Y1033394D01*
X444500Y1033462D01*
G54D48*
X301625Y984250D02*
X301625Y1025525D01*
X525462Y1025525D01*
G54D48*
X327025Y958850D02*
X371475Y957262D01*
X371475Y1016000D01*
X527050Y1016000D01*
G54D48*
X377825Y895350D02*
X300831Y895350D01*
X301625Y933450D01*
X400050Y912018D02*
G54D55*
D03*
G54D59*
X377876Y805658D02*
X377876Y844601D01*
X400050Y866775D01*
X400050Y949325D01*
X502444Y948531D01*
X501650Y965200D01*
X488878Y978286D01*
G54D59*
X377876Y805658D02*
X377876Y792111D01*
X386556Y783431D01*
X616438Y784225D01*
X679938Y714375D01*
X752475Y713581D01*
X752656Y901230D01*
X450850Y641350D02*
G54D58*
D03*
X476250Y641350D02*
G54D58*
D03*
X501650Y641350D02*
G54D58*
D03*
X527050Y641350D02*
G54D58*
D03*
X456225Y702100D02*
G54D60*
D03*
X521225Y702100D02*
G54D60*
D03*
X521225Y747100D02*
G54D60*
D03*
X456225Y747100D02*
G54D60*
D03*
X456225Y702100D02*
G54D60*
D03*
X521225Y702100D02*
G54D60*
D03*
X527050Y641350D02*
G54D58*
D03*
X327025Y933450D02*
G54D57*
D03*
X670587Y780876D02*
G54D55*
D03*
X620271Y1036229D02*
G54D58*
D03*
G54D59*
X490537Y1138175D02*
X752475Y1138175D01*
X752656Y901230D01*
G36*
X278250Y1418725D02*
X293250Y1418725D01*
X293250Y1403725D01*
X278250Y1403725D01*
X278250Y1418725D01*
G37*
X285750Y1385825D02*
G54D47*
D03*
X285750Y1360425D02*
G54D47*
D03*
X285750Y1309625D02*
G54D47*
D03*
X285750Y1258825D02*
G54D47*
D03*
X361950Y1258825D02*
G54D47*
D03*
X361950Y1309625D02*
G54D47*
D03*
X361950Y1360425D02*
G54D47*
D03*
X361950Y1385825D02*
G54D47*
D03*
X361950Y1411225D02*
G54D47*
D03*
X285750Y1335025D02*
G54D47*
D03*
G36*
X389375Y1418725D02*
X404375Y1418725D01*
X404375Y1403725D01*
X389375Y1403725D01*
X389375Y1418725D01*
G37*
X396875Y1385825D02*
G54D47*
D03*
X396875Y1360425D02*
G54D47*
D03*
X396875Y1309625D02*
G54D47*
D03*
X396875Y1258825D02*
G54D47*
D03*
X473075Y1258825D02*
G54D47*
D03*
X473075Y1309625D02*
G54D47*
D03*
X473075Y1360425D02*
G54D47*
D03*
X473075Y1385825D02*
G54D47*
D03*
X473075Y1411225D02*
G54D47*
D03*
X396875Y1335025D02*
G54D47*
D03*
G36*
X500500Y1418725D02*
X515500Y1418725D01*
X515500Y1403725D01*
X500500Y1403725D01*
X500500Y1418725D01*
G37*
X508000Y1385825D02*
G54D47*
D03*
X508000Y1360425D02*
G54D47*
D03*
X508000Y1309625D02*
G54D47*
D03*
X508000Y1258825D02*
G54D47*
D03*
X584200Y1258825D02*
G54D47*
D03*
X584200Y1309625D02*
G54D47*
D03*
X584200Y1360425D02*
G54D47*
D03*
X584200Y1385825D02*
G54D47*
D03*
X584200Y1411225D02*
G54D47*
D03*
X508000Y1335025D02*
G54D47*
D03*
G36*
X611625Y1418725D02*
X626625Y1418725D01*
X626625Y1403725D01*
X611625Y1403725D01*
X611625Y1418725D01*
G37*
X619125Y1385825D02*
G54D47*
D03*
X619125Y1360425D02*
G54D47*
D03*
X619125Y1309625D02*
G54D47*
D03*
X619125Y1258825D02*
G54D47*
D03*
X695325Y1258825D02*
G54D47*
D03*
X695325Y1309625D02*
G54D47*
D03*
X695325Y1360425D02*
G54D47*
D03*
X695325Y1385825D02*
G54D47*
D03*
X695325Y1411225D02*
G54D47*
D03*
X619125Y1335025D02*
G54D47*
D03*
G36*
X722750Y1418725D02*
X737750Y1418725D01*
X737750Y1403725D01*
X722750Y1403725D01*
X722750Y1418725D01*
G37*
X730250Y1385825D02*
G54D47*
D03*
X730250Y1360425D02*
G54D47*
D03*
X730250Y1309625D02*
G54D47*
D03*
X730250Y1258825D02*
G54D47*
D03*
X806450Y1258825D02*
G54D47*
D03*
X806450Y1309625D02*
G54D47*
D03*
X806450Y1360425D02*
G54D47*
D03*
X806450Y1385825D02*
G54D47*
D03*
X806450Y1411225D02*
G54D47*
D03*
X730250Y1335025D02*
G54D47*
D03*
G54D36*
X174625Y1258825D02*
X174625Y1236662D01*
G54D36*
X285750Y1258825D02*
X285750Y1236662D01*
G54D36*
X396875Y1258825D02*
X396875Y1236662D01*
G54D36*
X508000Y1258825D02*
X508000Y1236662D01*
G54D36*
X619125Y1258825D02*
X619125Y1236662D01*
G54D36*
X730250Y1258825D02*
X730250Y1236662D01*
X179388Y1284288D02*
G54D49*
D03*
X268288Y1309625D02*
G54D50*
D03*
G54D48*
X619125Y1309625D02*
X619125Y1285812D01*
X749300Y1257237D02*
G54D50*
D03*
G54D48*
X473075Y1309625D02*
X473075Y1279525D01*
X457200Y1263650D01*
X412750Y1263650D01*
X396875Y1279525D01*
X358775Y1279525D01*
X342900Y1263650D01*
X333375Y1263650D01*
X333375Y1273112D01*
G54D48*
X647700Y1257238D02*
X647700Y1284225D01*
X673100Y1257237D02*
G54D50*
D03*
G54D48*
X673100Y1257237D02*
X673100Y1281112D01*
G54D48*
X749300Y1257238D02*
X749300Y1284225D01*
G54D48*
X206375Y1322325D02*
X206375Y1284225D01*
G54D48*
X307975Y1258825D02*
X307975Y1284225D01*
G54D48*
X257175Y1284225D02*
X257175Y1287462D01*
X268288Y1298575D01*
X268288Y1309625D01*
G54D48*
X268288Y1258825D02*
X268288Y1266825D01*
X279400Y1277938D01*
X752475Y955675D02*
G54D55*
D03*
X647700Y1112838D02*
G54D50*
D03*
X665163Y1044575D02*
G54D50*
D03*
G54D48*
X647700Y1112838D02*
X647700Y1069975D01*
X665162Y1044575D01*
X447675Y1112838D02*
G54D50*
D03*
X247381Y876031D02*
G54D50*
D03*
X265381Y876031D02*
G54D50*
D03*
X283381Y876031D02*
G54D50*
D03*
X301381Y876031D02*
G54D50*
D03*
X319381Y876031D02*
G54D50*
D03*
X337381Y876031D02*
G54D50*
D03*
X247381Y858031D02*
G54D50*
D03*
X265381Y858031D02*
G54D50*
D03*
X283381Y858031D02*
G54D50*
D03*
X301381Y858031D02*
G54D50*
D03*
X319381Y858031D02*
G54D50*
D03*
X337381Y858031D02*
G54D50*
D03*
X247381Y840031D02*
G54D50*
D03*
X265381Y840031D02*
G54D50*
D03*
X283381Y840031D02*
G54D50*
D03*
X301381Y840031D02*
G54D50*
D03*
X319381Y840031D02*
G54D50*
D03*
X337381Y840031D02*
G54D50*
D03*
X247381Y822031D02*
G54D50*
D03*
X265381Y822031D02*
G54D50*
D03*
X283381Y822031D02*
G54D50*
D03*
X301381Y822031D02*
G54D50*
D03*
X319381Y822031D02*
G54D50*
D03*
X337381Y822031D02*
G54D50*
D03*
X247381Y804031D02*
G54D50*
D03*
X265381Y804031D02*
G54D50*
D03*
X283381Y804031D02*
G54D50*
D03*
X301381Y804031D02*
G54D50*
D03*
X319381Y804031D02*
G54D50*
D03*
X337381Y804031D02*
G54D50*
D03*
X826294Y1059288D02*
G54D61*
D03*
X826294Y1077288D02*
G54D61*
D03*
X826294Y1095288D02*
G54D61*
D03*
X826294Y1113288D02*
G54D61*
D03*
X826294Y1131288D02*
G54D61*
D03*
X826294Y1149288D02*
G54D61*
D03*
G54D62*
X405102Y731649D02*
X405102Y744982D01*
X398435Y736649D01*
X391769Y744982D01*
X391769Y731649D01*
G54D62*
X376435Y734149D02*
X377769Y732482D01*
X380435Y731649D01*
X383102Y731649D01*
X385769Y732482D01*
X387102Y734149D01*
X387102Y742482D01*
X385769Y744149D01*
X383102Y744982D01*
X380435Y744982D01*
X377769Y744149D01*
X376435Y742482D01*
G54D62*
X371768Y744982D02*
X371768Y734149D01*
X370435Y732482D01*
X367768Y731649D01*
X365101Y731649D01*
X362435Y732482D01*
X361101Y734149D01*
X361101Y744982D01*
G54D62*
X348833Y731649D02*
X348833Y744149D01*
X347500Y744982D01*
X346167Y744482D01*
G54D62*
X351500Y739149D02*
X346167Y739149D01*
G54D62*
X333500Y733649D02*
X333500Y736982D01*
X334833Y738649D01*
X337500Y739149D01*
X340167Y738649D01*
X341500Y736982D01*
X341500Y733649D01*
X340167Y731982D01*
X337500Y731649D01*
X334833Y731982D01*
X333500Y733649D01*
G54D62*
X328833Y731649D02*
X328833Y739149D01*
G54D62*
X328833Y737482D02*
X326166Y739149D01*
X323500Y739149D01*
G54D62*
X308566Y731649D02*
X308566Y744982D01*
G54D62*
X313899Y744982D02*
X303232Y744982D01*
G54D62*
X298565Y731649D02*
X287898Y731649D01*
G54D62*
X293232Y731649D02*
X293232Y744982D01*
G54D62*
X298565Y744982D02*
X287898Y744982D01*
G54D62*
X283231Y744982D02*
X283231Y731649D01*
X273898Y731649D01*
G54D62*
X269231Y742482D02*
X267898Y744149D01*
X265231Y744982D01*
X262564Y744982D01*
X259898Y744149D01*
X258564Y742482D01*
X258564Y740816D01*
X259898Y739149D01*
X262564Y738316D01*
X259898Y737482D01*
X258564Y735816D01*
X258564Y734149D01*
X259898Y732482D01*
X262564Y731649D01*
X265231Y731649D01*
X267898Y732482D01*
X269231Y734149D01*
G54D62*
X253897Y739982D02*
X247230Y744982D01*
X247230Y731649D01*
G54D62*
X242563Y739982D02*
X235896Y744982D01*
X235896Y731649D01*
G54D48*
X227012Y755650D02*
X414338Y755650D01*
X414338Y720725D01*
X227012Y720725D01*
X227012Y755650D01*
G54D63*
X399768Y702310D02*
X401768Y702810D01*
X403768Y702310D01*
X404768Y700643D01*
X404768Y697310D01*
X403768Y695643D01*
X401768Y695310D01*
X399768Y695643D01*
G54D63*
X396102Y695310D02*
X396102Y702810D01*
G54D63*
X396102Y701143D02*
X394102Y702810D01*
X392102Y702810D01*
G54D63*
X382434Y696143D02*
X384034Y695310D01*
X386034Y695310D01*
X388034Y696143D01*
X388434Y697810D01*
X388434Y700643D01*
X387434Y702310D01*
X385434Y702810D01*
X383434Y702310D01*
X382434Y701143D01*
X382434Y699476D01*
X388434Y699476D01*
G54D63*
X378768Y701976D02*
X376768Y702810D01*
X374368Y702810D01*
X372768Y701143D01*
X372768Y695310D01*
G54D63*
X372768Y697810D02*
X373768Y699476D01*
X375768Y699810D01*
X377768Y699476D01*
X378768Y697810D01*
X378368Y696143D01*
X376768Y695310D01*
X375768Y695310D01*
X375368Y695310D01*
X373768Y696143D01*
X372768Y697810D01*
G54D63*
X367100Y708643D02*
X367100Y696143D01*
X366100Y695310D01*
X365100Y695643D01*
G54D63*
X369100Y702810D02*
X365100Y702810D01*
G54D63*
X355434Y696143D02*
X357034Y695310D01*
X359034Y695310D01*
X361034Y696143D01*
X361434Y697810D01*
X361434Y700643D01*
X360434Y702310D01*
X358434Y702810D01*
X356434Y702310D01*
X355434Y701143D01*
X355434Y699476D01*
X361434Y699476D01*
G54D63*
X345766Y695310D02*
X345766Y708643D01*
G54D63*
X345766Y700643D02*
X346766Y702310D01*
X348766Y702810D01*
X350766Y702310D01*
X351766Y700643D01*
X351766Y697310D01*
X350766Y695643D01*
X348766Y695310D01*
X346766Y695643D01*
X345766Y697310D01*
G54D63*
X338232Y695310D02*
X338232Y708643D01*
G54D63*
X338232Y700643D02*
X337232Y702310D01*
X335232Y702810D01*
X333232Y702310D01*
X332232Y700643D01*
X332232Y697310D01*
X333232Y695643D01*
X335232Y695310D01*
X337232Y695643D01*
X338232Y697310D01*
G54D63*
X328566Y702810D02*
X324566Y695310D01*
X320566Y702810D01*
G54D63*
X324566Y695310D02*
X325566Y692810D01*
X326566Y691976D01*
X327566Y691976D01*
G54D63*
X313032Y695310D02*
X313032Y708643D01*
G54D63*
X313032Y699476D02*
X305032Y708643D01*
G54D63*
X310032Y701976D02*
X305032Y695310D01*
G54D63*
X301364Y701976D02*
X299364Y702810D01*
X296964Y702810D01*
X295364Y701143D01*
X295364Y695310D01*
G54D63*
X295364Y697810D02*
X296364Y699476D01*
X298364Y699810D01*
X300364Y699476D01*
X301364Y697810D01*
X300964Y696143D01*
X299364Y695310D01*
X298364Y695310D01*
X297964Y695310D01*
X296364Y696143D01*
X295364Y697810D01*
G54D63*
X291698Y695310D02*
X291698Y702810D01*
G54D63*
X291698Y701143D02*
X289698Y702810D01*
X287698Y702810D01*
G54D63*
X284030Y695310D02*
X284030Y708643D01*
G54D63*
X280364Y695310D02*
X280364Y708643D01*
G54D63*
X272364Y695310D02*
X272364Y708643D01*
G54D63*
X280364Y701976D02*
X272364Y701976D01*
G54D63*
X268696Y701976D02*
X266696Y702810D01*
X264296Y702810D01*
X262696Y701143D01*
X262696Y695310D01*
G54D63*
X262696Y697810D02*
X263696Y699476D01*
X265696Y699810D01*
X267696Y699476D01*
X268696Y697810D01*
X268296Y696143D01*
X266696Y695310D01*
X265696Y695310D01*
X265296Y695310D01*
X263696Y696143D01*
X262696Y697810D01*
G54D63*
X259030Y695310D02*
X259030Y702810D01*
G54D63*
X259030Y701143D02*
X258030Y702310D01*
X256030Y702810D01*
X254030Y702310D01*
X253030Y701143D01*
X253030Y695310D01*
G54D63*
X249362Y702810D02*
X243362Y702810D01*
X249362Y695310D01*
X243362Y695310D01*
G54D63*
X357633Y675996D02*
X357633Y667662D01*
X358967Y665996D01*
X361633Y665162D01*
X364300Y665162D01*
X366967Y665996D01*
X368300Y667662D01*
X368300Y675996D01*
X366967Y677662D01*
X364300Y678496D01*
X361633Y678496D01*
X358967Y677662D01*
X357633Y675996D01*
G54D63*
X343299Y665162D02*
X353966Y665162D01*
X353966Y665996D01*
X352633Y667662D01*
X344633Y672662D01*
X343299Y674329D01*
X343299Y675996D01*
X344633Y677662D01*
X347299Y678496D01*
X349966Y678496D01*
X352633Y677662D01*
X353966Y675996D01*
G54D63*
X338565Y665162D02*
X339632Y665162D01*
X339632Y665829D01*
X338565Y665829D01*
X338565Y665162D01*
X339632Y665162D01*
G54D63*
X324231Y665162D02*
X334898Y665162D01*
X334898Y665996D01*
X333565Y667662D01*
X325565Y672662D01*
X324231Y674329D01*
X324231Y675996D01*
X325565Y677662D01*
X328231Y678496D01*
X330898Y678496D01*
X333565Y677662D01*
X334898Y675996D01*
G54D63*
X309897Y675996D02*
X309897Y667662D01*
X311231Y665996D01*
X313897Y665162D01*
X316564Y665162D01*
X319231Y665996D01*
X320564Y667662D01*
X320564Y675996D01*
X319231Y677662D01*
X316564Y678496D01*
X313897Y678496D01*
X311231Y677662D01*
X309897Y675996D01*
G54D63*
X295563Y665162D02*
X306230Y665162D01*
X306230Y665996D01*
X304897Y667662D01*
X296897Y672662D01*
X295563Y674329D01*
X295563Y675996D01*
X296897Y677662D01*
X299563Y678496D01*
X302230Y678496D01*
X304897Y677662D01*
X306230Y675996D01*
G54D63*
X291896Y673496D02*
X285229Y678496D01*
X285229Y665162D01*
G54D63*
X758150Y677108D02*
X756817Y676275D01*
X755483Y676275D01*
X754150Y677108D01*
X754150Y678775D01*
X754817Y679608D01*
X757483Y680442D01*
X758150Y681275D01*
X758150Y682942D01*
X756817Y683775D01*
X755483Y683775D01*
X754150Y682942D01*
G54D63*
X750483Y676275D02*
X750483Y683775D01*
G54D63*
X750483Y686275D02*
X750483Y686275D01*
G54D63*
X746816Y676275D02*
X746816Y683775D01*
G54D63*
X746816Y682442D02*
X745483Y683775D01*
X744149Y683275D01*
X743483Y682108D01*
X743483Y676275D01*
G54D63*
X743483Y682442D02*
X742149Y683775D01*
X740816Y683275D01*
X740149Y682108D01*
X740149Y676275D01*
G54D63*
X736482Y683775D02*
X736482Y672942D01*
G54D63*
X736482Y678775D02*
X735815Y676608D01*
X734482Y676275D01*
X733149Y676608D01*
X732482Y678275D01*
X732482Y681608D01*
X733149Y683275D01*
X734482Y683775D01*
X735815Y683275D01*
X736482Y681275D01*
G54D63*
X728815Y676275D02*
X728815Y689608D01*
G54D63*
X721148Y677108D02*
X722215Y676275D01*
X723548Y676275D01*
X724881Y677108D01*
X725148Y678775D01*
X725148Y681608D01*
X724481Y683275D01*
X723148Y683775D01*
X721815Y683275D01*
X721148Y682108D01*
X721148Y680442D01*
X725148Y680442D01*
G54D63*
X717481Y682108D02*
X712148Y682108D01*
G54D63*
X704481Y676275D02*
X704481Y689608D01*
G54D63*
X704481Y681608D02*
X705148Y683275D01*
X706481Y683775D01*
X707814Y683275D01*
X708481Y681608D01*
X708481Y678275D01*
X707814Y676608D01*
X706481Y676275D01*
X705148Y676608D01*
X704481Y678275D01*
G54D63*
X696814Y677108D02*
X697881Y676275D01*
X699214Y676275D01*
X700547Y677108D01*
X700814Y678775D01*
X700814Y681608D01*
X700147Y683275D01*
X698814Y683775D01*
X697481Y683275D01*
X696814Y682108D01*
X696814Y680442D01*
X700814Y680442D01*
G54D63*
X693147Y683775D02*
X690480Y676275D01*
X687814Y683775D01*
G54D63*
X684147Y676275D02*
X684147Y683775D01*
G54D63*
X684147Y686275D02*
X684147Y686275D01*
G54D63*
X677147Y683275D02*
X678480Y683775D01*
X679813Y683275D01*
X680480Y681608D01*
X680480Y678275D01*
X679813Y676608D01*
X678480Y676275D01*
X677147Y676608D01*
G54D63*
X669480Y677108D02*
X670547Y676275D01*
X671880Y676275D01*
X673213Y677108D01*
X673480Y678775D01*
X673480Y681608D01*
X672813Y683275D01*
X671480Y683775D01*
X670147Y683275D01*
X669480Y682108D01*
X669480Y680442D01*
X673480Y680442D01*
G54D63*
X665813Y677108D02*
X664480Y676275D01*
X663146Y676275D01*
X661813Y677108D01*
X661813Y678775D01*
X662480Y679608D01*
X665146Y680442D01*
X665813Y681275D01*
X665813Y682942D01*
X664480Y683775D01*
X663146Y683775D01*
X661813Y682942D01*
G54D63*
X653479Y677442D02*
X654413Y676275D01*
X656146Y676275D01*
X657346Y677442D01*
X658146Y679275D01*
X658146Y684108D01*
X657346Y685942D01*
X656146Y686775D01*
X654413Y686775D01*
X653479Y685275D01*
X653479Y679942D01*
G54D63*
X653746Y681942D02*
X653879Y683275D01*
X655213Y684108D01*
X656146Y683275D01*
X656413Y681942D01*
X656146Y680442D01*
X655213Y679608D01*
X653879Y680442D01*
X653746Y681942D01*
G54D63*
X649812Y676275D02*
X649812Y683775D01*
G54D63*
X649812Y682442D02*
X648479Y683775D01*
X647145Y683275D01*
X646479Y682108D01*
X646479Y676275D01*
G54D63*
X646479Y682442D02*
X645145Y683775D01*
X643812Y683275D01*
X643145Y682108D01*
X643145Y676275D01*
G54D63*
X639478Y682942D02*
X638145Y683775D01*
X636545Y683775D01*
X635478Y682108D01*
X635478Y676275D01*
G54D63*
X635478Y678775D02*
X636145Y680442D01*
X637478Y680775D01*
X638811Y680442D01*
X639478Y678775D01*
X639211Y677108D01*
X638145Y676275D01*
X637478Y676275D01*
X637211Y676275D01*
X636145Y677108D01*
X635478Y678775D01*
G54D63*
X631811Y676275D02*
X631811Y683775D01*
G54D63*
X631811Y686275D02*
X631811Y686275D01*
G54D63*
X628144Y676275D02*
X628144Y689608D01*
G54D63*
X623944Y676275D02*
X624477Y676275D01*
X624477Y676942D01*
X623944Y676942D01*
X623944Y676275D01*
X624477Y676275D01*
G54D63*
X620277Y676275D02*
X620277Y683775D01*
G54D63*
X620277Y682108D02*
X618944Y683775D01*
X617610Y683775D01*
G54D63*
X609943Y683775D02*
X609943Y676275D01*
G54D63*
X609943Y677942D02*
X610610Y676608D01*
X611943Y676275D01*
X613276Y676608D01*
X613943Y677942D01*
X613943Y683775D01*
G54D64*
X826815Y1426369D02*
X826815Y1437924D01*
G54D64*
X831437Y1437924D02*
X822193Y1437924D01*
G54D64*
X818149Y1426369D02*
X808905Y1426369D01*
G54D64*
X813527Y1426369D02*
X813527Y1437924D01*
G54D64*
X818149Y1437924D02*
X808905Y1437924D01*
G54D64*
X804861Y1437924D02*
X804861Y1426369D01*
X796772Y1426369D01*
G54D64*
X792728Y1435758D02*
X791572Y1437202D01*
X789261Y1437924D01*
X786950Y1437924D01*
X784639Y1437202D01*
X783484Y1435758D01*
X783484Y1434313D01*
X784639Y1432869D01*
X786950Y1432146D01*
X784639Y1431424D01*
X783484Y1429980D01*
X783484Y1428535D01*
X784639Y1427091D01*
X786950Y1426369D01*
X789261Y1426369D01*
X791572Y1427091D01*
X792728Y1428535D01*
G54D64*
X779440Y1433591D02*
X773662Y1437924D01*
X773662Y1426369D01*
G54D64*
X769618Y1433591D02*
X763840Y1437924D01*
X763840Y1426369D01*
G54D64*
X755521Y1426369D02*
X755521Y1437924D01*
X749743Y1437924D01*
X747432Y1437202D01*
X746277Y1435758D01*
X746277Y1428535D01*
X747432Y1427091D01*
X749743Y1426369D01*
X755521Y1426369D01*
G54D64*
X742233Y1426369D02*
X732989Y1426369D01*
G54D64*
X737611Y1426369D02*
X737611Y1437924D01*
G54D64*
X742233Y1437924D02*
X732989Y1437924D01*
G54D64*
X728945Y1428535D02*
X727789Y1427091D01*
X725478Y1426369D01*
X723167Y1426369D01*
X720856Y1427091D01*
X719701Y1428535D01*
X719701Y1429980D01*
X720856Y1431424D01*
X723167Y1432146D01*
X725478Y1432146D01*
X727789Y1432869D01*
X728945Y1434313D01*
X728945Y1435758D01*
X727789Y1437202D01*
X725478Y1437924D01*
X723167Y1437924D01*
X720856Y1437202D01*
X719701Y1435758D01*
G54D64*
X715657Y1426369D02*
X715657Y1437924D01*
X709879Y1437924D01*
X707568Y1437202D01*
X706413Y1435758D01*
X706413Y1434313D01*
X707568Y1432869D01*
X709879Y1432146D01*
X715657Y1432146D01*
G54D64*
X702369Y1437924D02*
X702369Y1426369D01*
X694280Y1426369D01*
G54D64*
X690236Y1426369D02*
X684458Y1437924D01*
X678680Y1426369D01*
G54D64*
X687925Y1430702D02*
X680992Y1430702D01*
G54D64*
X674636Y1437924D02*
X668858Y1432146D01*
X668858Y1426369D01*
G54D64*
X668858Y1432146D02*
X663080Y1437924D01*
X153988Y1314388D02*
G54D50*
D03*
X153988Y1296388D02*
G54D50*
D03*
X153988Y1278388D02*
G54D50*
D03*
X153988Y1260388D02*
G54D50*
D03*
X153988Y1242388D02*
G54D50*
D03*
X826294Y1315181D02*
G54D50*
D03*
X826294Y1297181D02*
G54D50*
D03*
X826294Y1279181D02*
G54D50*
D03*
X826294Y1261181D02*
G54D50*
D03*
X826294Y1243181D02*
G54D50*
D03*
G54D64*
X219736Y1435758D02*
X219736Y1428535D01*
X220892Y1427091D01*
X223203Y1426369D01*
X225514Y1426369D01*
X227825Y1427091D01*
X228981Y1428535D01*
X228981Y1435758D01*
X227825Y1437202D01*
X225514Y1437924D01*
X223203Y1437924D01*
X220892Y1437202D01*
X219736Y1435758D01*
G54D64*
X206448Y1426369D02*
X215693Y1426369D01*
X215693Y1427091D01*
X214537Y1428535D01*
X207604Y1432869D01*
X206448Y1434313D01*
X206448Y1435758D01*
X207604Y1437202D01*
X209915Y1437924D01*
X212226Y1437924D01*
X214537Y1437202D01*
X215693Y1435758D01*
G54D64*
X201480Y1426369D02*
X202405Y1426369D01*
X202405Y1426946D01*
X201480Y1426946D01*
X201480Y1426369D01*
X202405Y1426369D01*
G54D64*
X188192Y1426369D02*
X197437Y1426369D01*
X197437Y1427091D01*
X196281Y1428535D01*
X189348Y1432869D01*
X188192Y1434313D01*
X188192Y1435758D01*
X189348Y1437202D01*
X191659Y1437924D01*
X193970Y1437924D01*
X196281Y1437202D01*
X197437Y1435758D01*
G54D64*
X174904Y1435758D02*
X174904Y1428535D01*
X176060Y1427091D01*
X178371Y1426369D01*
X180682Y1426369D01*
X182993Y1427091D01*
X184149Y1428535D01*
X184149Y1435758D01*
X182993Y1437202D01*
X180682Y1437924D01*
X178371Y1437924D01*
X176060Y1437202D01*
X174904Y1435758D01*
G54D64*
X161616Y1426369D02*
X170861Y1426369D01*
X170861Y1427091D01*
X169705Y1428535D01*
X162772Y1432869D01*
X161616Y1434313D01*
X161616Y1435758D01*
X162772Y1437202D01*
X165083Y1437924D01*
X167394Y1437924D01*
X169705Y1437202D01*
X170861Y1435758D01*
G54D64*
X157573Y1433591D02*
X151795Y1437924D01*
X151795Y1426369D01*
X156370Y1059288D02*
G54D61*
D03*
X156370Y1077288D02*
G54D61*
D03*
X156370Y1095288D02*
G54D61*
D03*
X156370Y1113288D02*
G54D61*
D03*
X156370Y1131288D02*
G54D61*
D03*
X156370Y1149288D02*
G54D61*
D03*
M02*
