%FSLAX34Y34*%
%MOMM*%
%LNCOPPER_TOP*%
G71*
G01*
%ADD10C, 1.500*%
%ADD11C, 0.300*%
%ADD12C, 0.700*%
%ADD13C, 1.200*%
%ADD14C, 5.000*%
%ADD15C, 0.000*%
%ADD16C, 0.400*%
%ADD17C, 1.000*%
%ADD18R, 1.500X2.200*%
%ADD19R, 2.900X2.600*%
%ADD20C, 0.700*%
%ADD21R, 3.700X1.600*%
%ADD22R, 1.500X2.500*%
%ADD23R, 1.200X2.000*%
%ADD24C, 1.900*%
%ADD25R, 1.600X1.200*%
%ADD26C, 1.900*%
%ADD27R, 2.200X0.700*%
%ADD28R, 2.000X4.500*%
%ADD29C, 1.000*%
%ADD30C, 0.800*%
%ADD31C, 0.600*%
%ADD32R, 1.200X1.600*%
%ADD33C, 2.000*%
%ADD34C, 6.000*%
%ADD35C, 2.200*%
%ADD36R, 1.600X2.000*%
%ADD37R, 2.000X2.000*%
%ADD38C, 0.800*%
%ADD39C, 0.167*%
%ADD40C, 1.500*%
%ADD41R, 1.100X1.100*%
%LPD*%
G36*
X167125Y1418725D02*
X182125Y1418725D01*
X182125Y1403725D01*
X167125Y1403725D01*
X167125Y1418725D01*
G37*
X174625Y1385825D02*
G54D10*
D03*
X174625Y1360425D02*
G54D10*
D03*
X174625Y1309625D02*
G54D10*
D03*
X174625Y1258825D02*
G54D10*
D03*
X250825Y1258825D02*
G54D10*
D03*
X250825Y1309625D02*
G54D10*
D03*
X250825Y1360425D02*
G54D10*
D03*
X250825Y1385825D02*
G54D10*
D03*
X250825Y1411225D02*
G54D10*
D03*
X174625Y1335025D02*
G54D10*
D03*
G54D11*
X250825Y1360425D02*
X250825Y1347725D01*
G54D11*
X473075Y1360425D02*
X473075Y1347725D01*
G54D11*
X361950Y1360425D02*
X361950Y1347725D01*
G54D11*
X174625Y1385825D02*
X174625Y1373125D01*
G54D11*
X285750Y1385825D02*
X285750Y1373125D01*
G54D11*
X396875Y1385825D02*
X396875Y1373125D01*
G54D11*
X508000Y1385825D02*
X508000Y1373125D01*
G54D11*
X730250Y1385825D02*
X730250Y1373125D01*
G54D11*
X584200Y1360425D02*
X584200Y1347725D01*
G54D11*
X695325Y1360425D02*
X695325Y1347725D01*
G54D11*
X806450Y1360425D02*
X806450Y1347725D01*
G54D11*
X174625Y1373125D02*
X730250Y1373125D01*
G54D11*
X250825Y1347725D02*
X806450Y1347725D01*
G54D11*
X307975Y1258825D02*
X307975Y1279462D01*
X730250Y1279462D01*
X730250Y1309625D01*
G54D11*
X285750Y1309625D02*
X273050Y1322325D01*
X206375Y1322325D01*
G54D11*
X250825Y1258825D02*
X250825Y1238128D01*
X647700Y1238128D01*
X647700Y1257238D01*
G54D11*
X695325Y1258825D02*
X695325Y1271525D01*
X714375Y1271588D01*
X749300Y1271588D01*
X749300Y1257238D01*
X647700Y1257237D02*
G54D12*
D03*
G54D11*
X361950Y1260412D02*
X361950Y1273112D01*
X673100Y1273175D01*
X673100Y1257237D01*
X206375Y1322325D02*
G54D12*
D03*
X307975Y1258825D02*
G54D12*
D03*
G54D11*
X508000Y1309625D02*
X492125Y1293750D01*
X374650Y1293812D01*
X268288Y1293812D01*
X268288Y1309625D01*
X619125Y1287400D02*
G54D12*
D03*
X268288Y1258825D02*
G54D12*
D03*
G54D11*
X268288Y1258825D02*
X268288Y1287462D01*
X619125Y1287400D01*
X447675Y1309625D02*
G54D13*
D03*
X447675Y1385825D02*
G54D13*
D03*
X536575Y1309625D02*
G54D13*
D03*
X536575Y1385825D02*
G54D13*
D03*
G54D11*
X447675Y1385825D02*
X447675Y1373125D01*
G54D11*
X561975Y1309625D02*
X561975Y1347725D01*
X561975Y1309625D02*
G54D12*
D03*
X255587Y620650D02*
G54D14*
D03*
G36*
X504603Y893265D02*
X501775Y893265D01*
X493997Y901043D01*
X493996Y902457D01*
X496825Y905286D01*
X498239Y905286D01*
X506017Y897507D01*
X506018Y894679D01*
X504603Y893265D01*
G37*
G54D15*
X504603Y893265D02*
X501775Y893265D01*
X493997Y901043D01*
X493996Y902457D01*
X496825Y905286D01*
X498239Y905286D01*
X506017Y897507D01*
X506018Y894679D01*
X504603Y893265D01*
G36*
X510260Y898922D02*
X507432Y898922D01*
X499654Y906700D01*
X499654Y908114D01*
X502482Y910943D01*
X503896Y910942D01*
X511674Y903164D01*
X511674Y900336D01*
X510260Y898922D01*
G37*
G54D15*
X510260Y898922D02*
X507432Y898922D01*
X499654Y906700D01*
X499654Y908114D01*
X502482Y910943D01*
X503896Y910942D01*
X511674Y903164D01*
X511674Y900336D01*
X510260Y898922D01*
G36*
X499297Y896447D02*
X495764Y899985D01*
X499303Y903518D01*
X502836Y899979D01*
X499297Y896447D01*
G37*
G36*
X504953Y902104D02*
X501421Y905643D01*
X504960Y909175D01*
X508492Y905636D01*
X504953Y902104D01*
G37*
G36*
X515917Y904578D02*
X513088Y904578D01*
X505310Y912357D01*
X505310Y913771D01*
X508139Y916599D01*
X509553Y916599D01*
X517331Y908821D01*
X517331Y905993D01*
X515917Y904578D01*
G37*
G54D15*
X515917Y904578D02*
X513088Y904578D01*
X505310Y912357D01*
X505310Y913771D01*
X508139Y916599D01*
X509553Y916599D01*
X517331Y908821D01*
X517331Y905993D01*
X515917Y904578D01*
G36*
X521574Y910235D02*
X518745Y910235D01*
X510967Y918014D01*
X510967Y919428D01*
X513796Y922256D01*
X515210Y922256D01*
X522988Y914478D01*
X522988Y911650D01*
X521574Y910235D01*
G37*
G54D15*
X521574Y910235D02*
X518745Y910235D01*
X510967Y918014D01*
X510967Y919428D01*
X513796Y922256D01*
X515210Y922256D01*
X522988Y914478D01*
X522988Y911650D01*
X521574Y910235D01*
G36*
X510610Y907760D02*
X507078Y911299D01*
X510617Y914832D01*
X514149Y911293D01*
X510610Y907760D01*
G37*
G36*
X516267Y913417D02*
X512735Y916957D01*
X516274Y920488D01*
X519806Y916949D01*
X516267Y913417D01*
G37*
G36*
X527231Y915892D02*
X524402Y915892D01*
X516624Y923670D01*
X516624Y925085D01*
X519452Y927913D01*
X520867Y927913D01*
X528645Y920135D01*
X528645Y917306D01*
X527231Y915892D01*
G37*
G54D15*
X527231Y915892D02*
X524402Y915892D01*
X516624Y923670D01*
X516624Y925085D01*
X519452Y927913D01*
X520867Y927913D01*
X528645Y920135D01*
X528645Y917306D01*
X527231Y915892D01*
G36*
X532888Y921549D02*
X530059Y921549D01*
X522281Y929327D01*
X522281Y930741D01*
X525109Y933570D01*
X526524Y933570D01*
X534302Y925792D01*
X534302Y922963D01*
X532888Y921549D01*
G37*
G54D15*
X532888Y921549D02*
X530059Y921549D01*
X522281Y929327D01*
X522281Y930741D01*
X525109Y933570D01*
X526524Y933570D01*
X534302Y925792D01*
X534302Y922963D01*
X532888Y921549D01*
G36*
X521923Y919074D02*
X518392Y922614D01*
X521931Y926145D01*
X525463Y922606D01*
X521923Y919074D01*
G37*
G36*
X527584Y924731D02*
X524049Y928266D01*
X527584Y931802D01*
X531120Y928267D01*
X527584Y924731D01*
G37*
G36*
X538544Y927206D02*
X535716Y927206D01*
X527938Y934984D01*
X527938Y936398D01*
X530766Y939227D01*
X532180Y939227D01*
X539958Y931449D01*
X539959Y928620D01*
X538544Y927206D01*
G37*
G54D15*
X538544Y927206D02*
X535716Y927206D01*
X527938Y934984D01*
X527938Y936398D01*
X530766Y939227D01*
X532180Y939227D01*
X539958Y931449D01*
X539959Y928620D01*
X538544Y927206D01*
G36*
X544201Y932863D02*
X541373Y932863D01*
X533595Y940641D01*
X533595Y942055D01*
X536423Y944884D01*
X537837Y944884D01*
X545615Y937105D01*
X545616Y934277D01*
X544201Y932863D01*
G37*
G54D15*
X544201Y932863D02*
X541373Y932863D01*
X533595Y940641D01*
X533595Y942055D01*
X536423Y944884D01*
X537837Y944884D01*
X545615Y937105D01*
X545616Y934277D01*
X544201Y932863D01*
G36*
X533241Y930388D02*
X529706Y933923D01*
X533241Y937459D01*
X536777Y933923D01*
X533241Y930388D01*
G37*
G36*
X538898Y936045D02*
X535362Y939580D01*
X538898Y943116D01*
X542433Y939580D01*
X538898Y936045D01*
G37*
G36*
X432478Y934277D02*
X432478Y937105D01*
X440256Y944884D01*
X441671Y944884D01*
X444499Y942055D01*
X444499Y940641D01*
X436721Y932863D01*
X433893Y932863D01*
X432478Y934277D01*
G37*
G54D15*
X432478Y934277D02*
X432478Y937105D01*
X440256Y944884D01*
X441671Y944884D01*
X444499Y942055D01*
X444499Y940641D01*
X436721Y932863D01*
X433893Y932863D01*
X432478Y934277D01*
G36*
X438135Y928620D02*
X438135Y931449D01*
X445914Y939227D01*
X447328Y939227D01*
X450156Y936398D01*
X450156Y934984D01*
X442378Y927206D01*
X439549Y927206D01*
X438135Y928620D01*
G37*
G54D15*
X438135Y928620D02*
X438135Y931449D01*
X445914Y939227D01*
X447328Y939227D01*
X450156Y936398D01*
X450156Y934984D01*
X442378Y927206D01*
X439549Y927206D01*
X438135Y928620D01*
G36*
X435660Y939576D02*
X439192Y943116D01*
X442731Y939585D01*
X439200Y936045D01*
X435660Y939576D01*
G37*
G36*
X441317Y933919D02*
X444848Y937459D01*
X448388Y933928D01*
X444857Y930388D01*
X441317Y933919D01*
G37*
G36*
X443792Y922963D02*
X443792Y925792D01*
X451570Y933570D01*
X452984Y933570D01*
X455813Y930741D01*
X455813Y929327D01*
X448035Y921549D01*
X445206Y921549D01*
X443792Y922963D01*
G37*
G54D15*
X443792Y922963D02*
X443792Y925792D01*
X451570Y933570D01*
X452984Y933570D01*
X455813Y930741D01*
X455813Y929327D01*
X448035Y921549D01*
X445206Y921549D01*
X443792Y922963D01*
G36*
X449449Y917306D02*
X449449Y920135D01*
X457227Y927913D01*
X458641Y927913D01*
X461470Y925085D01*
X461470Y923670D01*
X453692Y915892D01*
X450863Y915892D01*
X449449Y917306D01*
G37*
G54D15*
X449449Y917306D02*
X449449Y920135D01*
X457227Y927913D01*
X458641Y927913D01*
X461470Y925085D01*
X461470Y923670D01*
X453692Y915892D01*
X450863Y915892D01*
X449449Y917306D01*
G36*
X446974Y928262D02*
X450505Y931802D01*
X454045Y928271D01*
X450514Y924731D01*
X446974Y928262D01*
G37*
G36*
X452631Y922605D02*
X456162Y926145D01*
X459702Y922614D01*
X456171Y919074D01*
X452631Y922605D01*
G37*
G36*
X455106Y911650D02*
X455106Y914478D01*
X462884Y922256D01*
X464298Y922256D01*
X467127Y919428D01*
X467127Y918014D01*
X459348Y910235D01*
X456520Y910235D01*
X455106Y911650D01*
G37*
G54D15*
X455106Y911650D02*
X455106Y914478D01*
X462884Y922256D01*
X464298Y922256D01*
X467127Y919428D01*
X467127Y918014D01*
X459348Y910235D01*
X456520Y910235D01*
X455106Y911650D01*
G36*
X460763Y905993D02*
X460763Y908821D01*
X468541Y916599D01*
X469955Y916599D01*
X472784Y913771D01*
X472784Y912357D01*
X465005Y904578D01*
X462177Y904578D01*
X460763Y905993D01*
G37*
G54D15*
X460763Y905993D02*
X460763Y908821D01*
X468541Y916599D01*
X469955Y916599D01*
X472784Y913771D01*
X472784Y912357D01*
X465005Y904578D01*
X462177Y904578D01*
X460763Y905993D01*
G36*
X458288Y916948D02*
X461819Y920488D01*
X465359Y916957D01*
X461828Y913417D01*
X458288Y916948D01*
G37*
G36*
X463945Y911292D02*
X467476Y914832D01*
X471016Y911300D01*
X467484Y907760D01*
X463945Y911292D01*
G37*
G36*
X466419Y900336D02*
X466419Y903164D01*
X474198Y910942D01*
X475612Y910942D01*
X478440Y908114D01*
X478440Y906700D01*
X470662Y898922D01*
X467834Y898922D01*
X466419Y900336D01*
G37*
G54D15*
X466419Y900336D02*
X466419Y903164D01*
X474198Y910942D01*
X475612Y910942D01*
X478440Y908114D01*
X478440Y906700D01*
X470662Y898922D01*
X467834Y898922D01*
X466419Y900336D01*
G36*
X472076Y894679D02*
X472076Y897507D01*
X479855Y905286D01*
X481269Y905286D01*
X484097Y902457D01*
X484097Y901043D01*
X476319Y893265D01*
X473490Y893265D01*
X472076Y894679D01*
G37*
G54D15*
X472076Y894679D02*
X472076Y897507D01*
X479855Y905286D01*
X481269Y905286D01*
X484097Y902457D01*
X484097Y901043D01*
X476319Y893265D01*
X473490Y893265D01*
X472076Y894679D01*
G36*
X469601Y905635D02*
X473133Y909175D01*
X476673Y905643D01*
X473141Y902104D01*
X469601Y905635D01*
G37*
G36*
X475258Y899978D02*
X478790Y903518D01*
X482329Y899986D01*
X478798Y896447D01*
X475258Y899978D01*
G37*
G36*
X473491Y1006402D02*
X476319Y1006402D01*
X484097Y998624D01*
X484097Y997209D01*
X481269Y994381D01*
X479854Y994381D01*
X472076Y1002159D01*
X472076Y1004987D01*
X473491Y1006402D01*
G37*
G54D15*
X473491Y1006402D02*
X476319Y1006402D01*
X484097Y998624D01*
X484097Y997209D01*
X481269Y994381D01*
X479854Y994381D01*
X472076Y1002159D01*
X472076Y1004987D01*
X473491Y1006402D01*
G36*
X467834Y1000745D02*
X470662Y1000745D01*
X478440Y992967D01*
X478440Y991552D01*
X475612Y988724D01*
X474198Y988724D01*
X466420Y996502D01*
X466420Y999331D01*
X467834Y1000745D01*
G37*
G54D15*
X467834Y1000745D02*
X470662Y1000745D01*
X478440Y992967D01*
X478440Y991552D01*
X475612Y988724D01*
X474198Y988724D01*
X466420Y996502D01*
X466420Y999331D01*
X467834Y1000745D01*
G36*
X478794Y1003220D02*
X482329Y999684D01*
X478794Y996149D01*
X475258Y999684D01*
X478794Y1003220D01*
G37*
G36*
X473137Y997563D02*
X476673Y994028D01*
X473137Y990492D01*
X469601Y994027D01*
X473137Y997563D01*
G37*
G36*
X462177Y995088D02*
X465005Y995088D01*
X472784Y987310D01*
X472783Y985896D01*
X469955Y983067D01*
X468541Y983067D01*
X460762Y990846D01*
X460763Y993674D01*
X462177Y995088D01*
G37*
G54D15*
X462177Y995088D02*
X465005Y995088D01*
X472784Y987310D01*
X472783Y985896D01*
X469955Y983067D01*
X468541Y983067D01*
X460762Y990846D01*
X460763Y993674D01*
X462177Y995088D01*
G36*
X456520Y989431D02*
X459348Y989431D01*
X467127Y981653D01*
X467126Y980239D01*
X464298Y977411D01*
X462884Y977410D01*
X455106Y985189D01*
X455106Y988017D01*
X456520Y989431D01*
G37*
G54D15*
X456520Y989431D02*
X459348Y989431D01*
X467127Y981653D01*
X467126Y980239D01*
X464298Y977411D01*
X462884Y977410D01*
X455106Y985189D01*
X455106Y988017D01*
X456520Y989431D01*
G36*
X467480Y991906D02*
X471016Y988370D01*
X467480Y984835D01*
X463945Y988371D01*
X467480Y991906D01*
G37*
G36*
X461823Y986249D02*
X465359Y982714D01*
X461823Y979178D01*
X458288Y982714D01*
X461823Y986249D01*
G37*
G36*
X450863Y983774D02*
X453691Y983775D01*
X461470Y975996D01*
X461470Y974582D01*
X458641Y971754D01*
X457227Y971754D01*
X449449Y979532D01*
X449449Y982360D01*
X450863Y983774D01*
G37*
G54D15*
X450863Y983774D02*
X453691Y983775D01*
X461470Y975996D01*
X461470Y974582D01*
X458641Y971754D01*
X457227Y971754D01*
X449449Y979532D01*
X449449Y982360D01*
X450863Y983774D01*
G36*
X445206Y978118D02*
X448035Y978118D01*
X455813Y970339D01*
X455813Y968925D01*
X452984Y966097D01*
X451570Y966097D01*
X443792Y973875D01*
X443792Y976703D01*
X445206Y978118D01*
G37*
G54D15*
X445206Y978118D02*
X448035Y978118D01*
X455813Y970339D01*
X455813Y968925D01*
X452984Y966097D01*
X451570Y966097D01*
X443792Y973875D01*
X443792Y976703D01*
X445206Y978118D01*
G36*
X456166Y980593D02*
X459702Y977057D01*
X456166Y973521D01*
X452631Y977057D01*
X456166Y980593D01*
G37*
G36*
X450514Y974936D02*
X454045Y971396D01*
X450505Y967864D01*
X446974Y971404D01*
X450514Y974936D01*
G37*
G36*
X439550Y972461D02*
X442378Y972461D01*
X450156Y964683D01*
X450156Y963268D01*
X447328Y960440D01*
X445914Y960440D01*
X438135Y968218D01*
X438135Y971046D01*
X439550Y972461D01*
G37*
G54D15*
X439550Y972461D02*
X442378Y972461D01*
X450156Y964683D01*
X450156Y963268D01*
X447328Y960440D01*
X445914Y960440D01*
X438135Y968218D01*
X438135Y971046D01*
X439550Y972461D01*
G36*
X433893Y966804D02*
X436721Y966804D01*
X444499Y959026D01*
X444499Y957611D01*
X441671Y954783D01*
X440257Y954783D01*
X432478Y962561D01*
X432479Y965390D01*
X433893Y966804D01*
G37*
G54D15*
X433893Y966804D02*
X436721Y966804D01*
X444499Y959026D01*
X444499Y957611D01*
X441671Y954783D01*
X440257Y954783D01*
X432478Y962561D01*
X432479Y965390D01*
X433893Y966804D01*
G36*
X444857Y969279D02*
X448388Y965739D01*
X444848Y962208D01*
X441317Y965748D01*
X444857Y969279D01*
G37*
G36*
X439200Y963622D02*
X442731Y960082D01*
X439192Y956551D01*
X435660Y960091D01*
X439200Y963622D01*
G37*
G36*
X545615Y965390D02*
X545615Y962561D01*
X537837Y954783D01*
X536423Y954783D01*
X533595Y957612D01*
X533595Y959026D01*
X541373Y966804D01*
X544201Y966804D01*
X545615Y965390D01*
G37*
G54D15*
X545615Y965390D02*
X545615Y962561D01*
X537837Y954783D01*
X536423Y954783D01*
X533595Y957612D01*
X533595Y959026D01*
X541373Y966804D01*
X544201Y966804D01*
X545615Y965390D01*
G36*
X539958Y971046D02*
X539958Y968218D01*
X532180Y960440D01*
X530766Y960440D01*
X527938Y963268D01*
X527938Y964683D01*
X535716Y972460D01*
X538544Y972461D01*
X539958Y971046D01*
G37*
G54D15*
X539958Y971046D02*
X539958Y968218D01*
X532180Y960440D01*
X530766Y960440D01*
X527938Y963268D01*
X527938Y964683D01*
X535716Y972460D01*
X538544Y972461D01*
X539958Y971046D01*
G36*
X542433Y960087D02*
X538898Y956551D01*
X535362Y960086D01*
X538898Y963622D01*
X542433Y960087D01*
G37*
G36*
X536777Y965743D02*
X533241Y962208D01*
X529705Y965743D01*
X533241Y969279D01*
X536777Y965743D01*
G37*
G36*
X534302Y976703D02*
X534302Y973875D01*
X526524Y966097D01*
X525109Y966097D01*
X522281Y968925D01*
X522281Y970339D01*
X530059Y978118D01*
X532887Y978117D01*
X534302Y976703D01*
G37*
G54D15*
X534302Y976703D02*
X534302Y973875D01*
X526524Y966097D01*
X525109Y966097D01*
X522281Y968925D01*
X522281Y970339D01*
X530059Y978118D01*
X532887Y978117D01*
X534302Y976703D01*
G36*
X528645Y982360D02*
X528645Y979532D01*
X520867Y971753D01*
X519452Y971754D01*
X516624Y974582D01*
X516624Y975996D01*
X524402Y983774D01*
X527231Y983774D01*
X528645Y982360D01*
G37*
G54D15*
X528645Y982360D02*
X528645Y979532D01*
X520867Y971753D01*
X519452Y971754D01*
X516624Y974582D01*
X516624Y975996D01*
X524402Y983774D01*
X527231Y983774D01*
X528645Y982360D01*
G36*
X531120Y971400D02*
X527584Y967864D01*
X524049Y971400D01*
X527584Y974936D01*
X531120Y971400D01*
G37*
G36*
X525463Y977057D02*
X521927Y973521D01*
X518392Y977057D01*
X521927Y980593D01*
X525463Y977057D01*
G37*
G36*
X522988Y988017D02*
X522988Y985188D01*
X515210Y977411D01*
X513796Y977410D01*
X510967Y980239D01*
X510967Y981653D01*
X518745Y989431D01*
X521574Y989431D01*
X522988Y988017D01*
G37*
G54D15*
X522988Y988017D02*
X522988Y985188D01*
X515210Y977411D01*
X513796Y977410D01*
X510967Y980239D01*
X510967Y981653D01*
X518745Y989431D01*
X521574Y989431D01*
X522988Y988017D01*
G36*
X517331Y993674D02*
X517331Y990846D01*
X509553Y983067D01*
X508139Y983067D01*
X505310Y985896D01*
X505310Y987310D01*
X513088Y995088D01*
X515917Y995088D01*
X517331Y993674D01*
G37*
G54D15*
X517331Y993674D02*
X517331Y990846D01*
X509553Y983067D01*
X508139Y983067D01*
X505310Y985896D01*
X505310Y987310D01*
X513088Y995088D01*
X515917Y995088D01*
X517331Y993674D01*
G36*
X519806Y982714D02*
X516270Y979178D01*
X512735Y982714D01*
X516270Y986249D01*
X519806Y982714D01*
G37*
G36*
X514149Y988370D02*
X510614Y984835D01*
X507078Y988371D01*
X510614Y991906D01*
X514149Y988370D01*
G37*
G36*
X511674Y999331D02*
X511674Y996502D01*
X503896Y988724D01*
X502482Y988724D01*
X499653Y991553D01*
X499653Y992967D01*
X507432Y1000745D01*
X510260Y1000745D01*
X511674Y999331D01*
G37*
G54D15*
X511674Y999331D02*
X511674Y996502D01*
X503896Y988724D01*
X502482Y988724D01*
X499653Y991553D01*
X499653Y992967D01*
X507432Y1000745D01*
X510260Y1000745D01*
X511674Y999331D01*
G36*
X506017Y1004987D02*
X506017Y1002159D01*
X498239Y994381D01*
X496825Y994381D01*
X493997Y997209D01*
X493997Y998624D01*
X501775Y1006402D01*
X504603Y1006402D01*
X506017Y1004987D01*
G37*
G54D15*
X506017Y1004987D02*
X506017Y1002159D01*
X498239Y994381D01*
X496825Y994381D01*
X493997Y997209D01*
X493997Y998624D01*
X501775Y1006402D01*
X504603Y1006402D01*
X506017Y1004987D01*
G36*
X508492Y994028D02*
X504957Y990492D01*
X501421Y994027D01*
X504956Y997563D01*
X508492Y994028D01*
G37*
G36*
X502835Y999684D02*
X499300Y996149D01*
X495764Y999684D01*
X499300Y1003220D01*
X502835Y999684D01*
G37*
G54D16*
X516270Y916953D02*
X504055Y929168D01*
X515015Y940393D01*
X527142Y928267D01*
X527584Y928267D01*
G54D16*
X473137Y994027D02*
X520628Y946536D01*
X520628Y946006D01*
X515015Y940393D01*
X583588Y890333D02*
G54D13*
D03*
X547526Y854271D02*
G54D13*
D03*
G36*
X591241Y829282D02*
X582756Y820797D01*
X571442Y832110D01*
X579927Y840596D01*
X591241Y829282D01*
G37*
G36*
X569745Y807786D02*
X561260Y799301D01*
X549946Y810615D01*
X558432Y819100D01*
X569745Y807786D01*
G37*
G36*
X637350Y875103D02*
X628864Y866618D01*
X617551Y877931D01*
X626036Y886416D01*
X637350Y875103D01*
G37*
G36*
X615854Y853607D02*
X607368Y845121D01*
X596055Y856435D01*
X604540Y864920D01*
X615854Y853607D01*
G37*
G54D16*
X533241Y933923D02*
X565782Y895032D01*
X536413Y865388D01*
X547526Y854271D01*
G54D16*
X538898Y939580D02*
X560726Y914577D01*
X583588Y890333D01*
G54D16*
X525597Y918297D02*
X532332Y911562D01*
X521106Y900336D01*
X510614Y910829D01*
X510614Y911296D01*
G54D16*
X453834Y978834D02*
X498656Y934568D01*
X493043Y928400D01*
X510147Y911296D01*
X510614Y911296D01*
X488878Y978286D02*
G54D17*
D03*
X472281Y961231D02*
G54D17*
D03*
X483734Y926790D02*
G54D12*
D03*
X280988Y1138175D02*
G54D18*
D03*
X255588Y1138175D02*
G54D18*
D03*
X230188Y1138175D02*
G54D18*
D03*
X204788Y1138175D02*
G54D18*
D03*
X331788Y1138175D02*
G54D18*
D03*
X306388Y1138175D02*
G54D18*
D03*
X561975Y1138175D02*
G54D18*
D03*
X536575Y1138175D02*
G54D18*
D03*
X447675Y1138175D02*
G54D18*
D03*
X422275Y1138175D02*
G54D18*
D03*
X723900Y1138175D02*
G54D18*
D03*
X698500Y1138175D02*
G54D18*
D03*
X673100Y1138175D02*
G54D18*
D03*
X647700Y1138175D02*
G54D18*
D03*
X774700Y1138175D02*
G54D18*
D03*
X749300Y1138175D02*
G54D18*
D03*
X490537Y1138175D02*
G54D19*
D03*
X602716Y818616D02*
G54D17*
D03*
G54D20*
X457029Y746484D02*
X522029Y746484D01*
X554831Y976312D02*
G54D12*
D03*
G54D16*
X583588Y890333D02*
X595621Y902365D01*
X627248Y898998D01*
X638474Y887773D01*
X627450Y876749D01*
X627450Y876517D01*
G54D16*
X546889Y853634D02*
X534857Y841602D01*
X534256Y808386D01*
X546275Y796367D01*
X560473Y809772D01*
X560705Y809772D01*
G54D16*
X605954Y855021D02*
X581629Y830696D01*
X581342Y830696D01*
G54D16*
X478794Y899982D02*
X471488Y892175D01*
X471488Y761206D01*
X456225Y747100D01*
G54D16*
X483734Y926790D02*
X491262Y918785D01*
X504408Y905639D01*
X504957Y905639D01*
X490537Y1138175D02*
G54D17*
D03*
G54D16*
X478794Y999684D02*
X478278Y999684D01*
X444500Y1033462D01*
X444500Y1103312D01*
X673100Y1103312D01*
X673100Y1138175D01*
G54D16*
X499300Y999684D02*
X499622Y999684D01*
X595312Y1095375D01*
X698500Y1095375D01*
X698500Y1138175D01*
G54D16*
X504957Y994028D02*
X505078Y994028D01*
X598488Y1087438D01*
X723900Y1087438D01*
X723900Y1138175D01*
G54D16*
X510614Y988370D02*
X510614Y988451D01*
X601662Y1079500D01*
X749300Y1079500D01*
X749300Y1138175D01*
G54D16*
X516270Y982714D02*
X517576Y982714D01*
X606425Y1071562D01*
X774700Y1071562D01*
X774700Y1138175D01*
G54D16*
X521927Y977057D02*
X523032Y977057D01*
X609600Y1063625D01*
X798512Y1063625D01*
X798512Y1138238D01*
X547687Y981075D02*
G54D12*
D03*
X540544Y985044D02*
G54D12*
D03*
G54D16*
X540544Y985044D02*
X540544Y984360D01*
X527584Y971400D01*
G54D16*
X547687Y981075D02*
X547687Y980190D01*
X533241Y965743D01*
G54D16*
X554831Y976312D02*
X554831Y976020D01*
X538898Y960086D01*
X422275Y1112044D02*
G54D12*
D03*
X550862Y1112838D02*
G54D12*
D03*
X561975Y1112838D02*
G54D12*
D03*
X331787Y1111250D02*
G54D12*
D03*
X306388Y1111250D02*
G54D12*
D03*
X280987Y1111250D02*
G54D12*
D03*
X255588Y1111250D02*
G54D12*
D03*
G54D16*
X371736Y1079500D02*
X371475Y1027906D01*
X439196Y960086D01*
G54D16*
X346336Y1079500D02*
X346075Y1008062D01*
X423862Y930275D01*
X430212Y930597D01*
X439196Y939580D01*
G54D16*
X320936Y1079500D02*
X320675Y1019175D01*
X419100Y920750D01*
X431800Y920871D01*
X444853Y933923D01*
X525462Y1025525D02*
G54D12*
D03*
X527050Y1016000D02*
G54D12*
D03*
X444500Y1033462D02*
G54D12*
D03*
X396875Y1079500D02*
G54D12*
D03*
X731837Y620650D02*
G54D14*
D03*
X490537Y1066738D02*
G54D14*
D03*
G54D16*
X461823Y916953D02*
X461340Y916953D01*
X439738Y895350D01*
X377825Y895350D01*
X377781Y852792D01*
X416488Y670569D02*
G54D21*
D03*
X362513Y670569D02*
G54D21*
D03*
X239023Y685224D02*
G54D22*
D03*
X282679Y685225D02*
G54D22*
D03*
X318791Y642673D02*
G54D23*
D03*
X318791Y679185D02*
G54D23*
D03*
X327025Y984250D02*
G54D24*
D03*
G36*
X311125Y993750D02*
X311125Y974750D01*
X292125Y974750D01*
X292125Y993750D01*
X311125Y993750D01*
G37*
X327025Y958850D02*
G54D24*
D03*
X301625Y958850D02*
G54D24*
D03*
X327025Y933450D02*
G54D24*
D03*
X301625Y933450D02*
G54D24*
D03*
G36*
X699184Y768602D02*
X694234Y773552D01*
X709791Y789108D01*
X714740Y784158D01*
X699184Y768602D01*
G37*
G36*
X690204Y777582D02*
X685254Y782532D01*
X700810Y798089D01*
X705760Y793139D01*
X690204Y777582D01*
G37*
G36*
X681224Y786563D02*
X676274Y791512D01*
X691830Y807069D01*
X696780Y802119D01*
X681224Y786563D01*
G37*
G36*
X672243Y795543D02*
X667293Y800493D01*
X682850Y816049D01*
X687800Y811099D01*
X672243Y795543D01*
G37*
G36*
X634059Y757359D02*
X629110Y762309D01*
X644666Y777865D01*
X649616Y772915D01*
X634059Y757359D01*
G37*
G36*
X643040Y748379D02*
X638090Y753329D01*
X653646Y768885D01*
X658596Y763935D01*
X643040Y748379D01*
G37*
G36*
X652020Y739399D02*
X647070Y744348D01*
X662627Y759905D01*
X667576Y754955D01*
X652020Y739399D01*
G37*
G36*
X661000Y730418D02*
X656050Y735368D01*
X671607Y750925D01*
X676556Y745975D01*
X661000Y730418D01*
G37*
G36*
X694844Y737648D02*
X703329Y746133D01*
X714643Y734819D01*
X706157Y726334D01*
X694844Y737648D01*
G37*
G36*
X716339Y759144D02*
X724825Y767629D01*
X736138Y756315D01*
X727653Y747830D01*
X716339Y759144D01*
G37*
X377781Y852792D02*
G54D25*
D03*
X377782Y822392D02*
G54D25*
D03*
G36*
X629771Y944130D02*
X629771Y925130D01*
X610771Y925130D01*
X610771Y944130D01*
X629771Y944130D01*
G37*
X620271Y1036230D02*
G54D26*
D03*
X727528Y888365D02*
G54D27*
D03*
X727528Y901065D02*
G54D27*
D03*
X727528Y913765D02*
G54D27*
D03*
X727528Y926465D02*
G54D27*
D03*
X673528Y926465D02*
G54D27*
D03*
X673528Y913765D02*
G54D27*
D03*
X673528Y901065D02*
G54D27*
D03*
X673528Y888365D02*
G54D27*
D03*
G54D16*
X602716Y832473D02*
X593725Y841375D01*
X266700Y746125D02*
G54D28*
D03*
X317500Y746125D02*
G54D28*
D03*
G36*
X238125Y885825D02*
X238125Y790575D01*
X346075Y790575D01*
X346075Y885825D01*
X238125Y885825D01*
G37*
G54D16*
X238125Y885825D02*
X238125Y790575D01*
X346075Y790575D01*
X346075Y885825D01*
X238125Y885825D01*
X415842Y746501D02*
G54D21*
D03*
X361866Y746501D02*
G54D21*
D03*
G54D29*
X349250Y665162D02*
X349250Y685800D01*
X282679Y685225D01*
X282575Y708025D01*
X266700Y717550D01*
X266700Y746125D01*
G36*
X344250Y665162D02*
X354250Y665162D01*
X354250Y660162D01*
X344250Y660162D01*
X344250Y665162D01*
G37*
G54D29*
X430129Y749676D02*
X430129Y670301D01*
G36*
X435129Y749676D02*
X425129Y749676D01*
X425129Y754676D01*
X435129Y754676D01*
X435129Y749676D01*
G37*
G36*
X425129Y670301D02*
X435129Y670301D01*
X435129Y665301D01*
X425129Y665301D01*
X425129Y670301D01*
G37*
G54D30*
X317500Y746125D02*
X317500Y733425D01*
X333375Y717550D01*
X349250Y717550D01*
X349250Y768350D01*
X377825Y796925D01*
X377876Y805658D01*
X404864Y805658D01*
X377876Y805658D02*
G54D17*
D03*
G54D30*
X430212Y701675D02*
X521225Y702100D01*
G54D16*
X404802Y864694D02*
X378318Y864694D01*
G54D16*
X377782Y822392D02*
X377825Y796925D01*
G54D30*
X441314Y864694D02*
X459882Y864694D01*
X459581Y783431D01*
X430129Y749676D01*
G54D30*
X441376Y805658D02*
X458789Y805658D01*
G54D16*
X461823Y982714D02*
X461911Y982714D01*
X477838Y966788D01*
X472281Y961231D01*
G36*
X470867Y962645D02*
X473695Y959817D01*
X472281Y958403D01*
X469453Y961231D01*
X470867Y962645D01*
G37*
G54D16*
X230520Y1142938D02*
X230520Y1096962D01*
X431488Y1096972D01*
X431800Y1023938D01*
X467480Y988370D01*
G54D16*
X204428Y1139762D02*
X204428Y1089025D01*
X415925Y1089025D01*
X415925Y1008062D01*
X450510Y971400D01*
G54D16*
X444853Y965743D02*
X396875Y1014412D01*
X396875Y1079500D01*
X371736Y1079500D02*
G54D12*
D03*
X346336Y1079500D02*
G54D12*
D03*
X320936Y1079500D02*
G54D12*
D03*
X752656Y901230D02*
G54D17*
D03*
X699153Y828685D02*
G54D12*
D03*
X727216Y800621D02*
G54D12*
D03*
G54D16*
X699153Y828685D02*
X677547Y807078D01*
X677547Y805796D01*
G54D16*
X727216Y800621D02*
X705450Y778855D01*
X704487Y778855D01*
G54D16*
X686527Y796816D02*
X670587Y780876D01*
X653334Y780876D01*
X640070Y767612D01*
X639363Y767612D01*
G54D16*
X695507Y787836D02*
X679567Y771896D01*
X678029Y771896D01*
X670587Y779338D01*
X670587Y780876D01*
G36*
X626581Y804323D02*
X635066Y812808D01*
X646380Y801494D01*
X637894Y793009D01*
X626581Y804323D01*
G37*
G36*
X648077Y825819D02*
X656562Y834304D01*
X667876Y822991D01*
X659390Y814505D01*
X648077Y825819D01*
G37*
G54D31*
X476250Y641350D02*
X476250Y679450D01*
X542925Y679450D01*
X619125Y755650D01*
X631825Y742950D01*
X648343Y758632D01*
G36*
X642300Y712672D02*
X650785Y704187D01*
X639471Y692873D01*
X630986Y701359D01*
X642300Y712672D01*
G37*
G36*
X663796Y691176D02*
X672281Y682691D01*
X660967Y671377D01*
X652482Y679863D01*
X663796Y691176D01*
G37*
G36*
X578655Y695280D02*
X587140Y686795D01*
X575826Y675482D01*
X567341Y683967D01*
X578655Y695280D01*
G37*
G36*
X600152Y673785D02*
X608637Y665299D01*
X597323Y653986D01*
X588838Y662471D01*
X600152Y673785D01*
G37*
X679938Y714375D02*
G54D17*
D03*
G54D16*
X666304Y740672D02*
X666059Y740672D01*
X652462Y727075D01*
X661988Y717550D01*
X679938Y714375D01*
X704743Y736234D01*
G54D16*
X727216Y800621D02*
X728141Y800621D01*
X741362Y787400D01*
X741362Y772854D01*
X726239Y757730D01*
G54D16*
X657976Y824405D02*
X657976Y824664D01*
X669925Y836612D01*
X691225Y836612D01*
X699153Y828685D01*
X616438Y784225D02*
G54D17*
D03*
G54D16*
X616438Y784225D02*
X636480Y802909D01*
G54D16*
X662089Y681548D02*
X683136Y660911D01*
X708025Y685800D01*
X679938Y714375D01*
G54D31*
X501650Y641350D02*
X501650Y663575D01*
X541338Y663575D01*
X565150Y638175D01*
X600075Y638175D01*
X635000Y669925D01*
X606425Y701675D01*
X638175Y733425D01*
X657323Y749652D01*
G54D16*
X602716Y832473D02*
X602716Y818616D01*
X566738Y782638D01*
X554038Y782638D01*
X542925Y771525D01*
X554296Y760445D01*
X701687Y860634D02*
G54D32*
D03*
X732087Y860634D02*
G54D32*
D03*
X701687Y955884D02*
G54D32*
D03*
X732087Y955884D02*
G54D32*
D03*
G54D16*
X673528Y913765D02*
X619919Y913606D01*
X620271Y934630D01*
X681218Y942505D02*
G54D12*
D03*
X681218Y872655D02*
G54D12*
D03*
G54D16*
X673528Y888365D02*
X656590Y888365D01*
X650875Y882650D01*
X650875Y869950D01*
X660400Y860425D01*
X701478Y860425D01*
X701687Y860634D01*
G54D16*
X681218Y872655D02*
X681218Y861832D01*
G54D16*
X673528Y926465D02*
X654685Y926465D01*
X650875Y930275D01*
X650875Y1017588D01*
X620271Y1036230D01*
G54D16*
X732087Y955884D02*
X752475Y955675D01*
G54D16*
X752656Y901230D02*
X727693Y901230D01*
X727528Y901065D01*
G54D16*
X673528Y901065D02*
X689927Y901065D01*
X701675Y912812D01*
X701675Y931573D01*
X681218Y942505D01*
X681038Y955675D01*
X701478Y955675D01*
X437356Y903288D02*
G54D12*
D03*
X426244Y912019D02*
G54D12*
D03*
X451644Y895350D02*
G54D12*
D03*
X462756Y884238D02*
G54D12*
D03*
G54D16*
X426244Y912019D02*
X434262Y912019D01*
X450510Y928267D01*
G54D16*
X440531Y906462D02*
X440531Y906975D01*
X456166Y922610D01*
G54D16*
X451644Y895350D02*
X451644Y895460D01*
X467480Y911296D01*
G54D16*
X462756Y884238D02*
X462756Y895258D01*
X473137Y905639D01*
X493971Y836645D02*
G54D25*
D03*
X493972Y806245D02*
G54D25*
D03*
G54D16*
X501650Y896938D02*
X515938Y882650D01*
X515938Y777875D01*
X493712Y777373D01*
X493971Y804895D01*
X377825Y895350D02*
G54D12*
D03*
X400050Y912018D02*
G54D17*
D03*
G54D20*
X400050Y912018D02*
X381000Y931069D01*
X327025Y984250D01*
X450850Y641350D02*
G54D26*
D03*
X476250Y641350D02*
G54D26*
D03*
X501650Y641350D02*
G54D26*
D03*
X527050Y641350D02*
G54D26*
D03*
X456225Y702100D02*
G54D33*
D03*
X521225Y702100D02*
G54D33*
D03*
X521225Y747100D02*
G54D33*
D03*
X456225Y747100D02*
G54D33*
D03*
X456225Y702100D02*
G54D33*
D03*
X521225Y702100D02*
G54D33*
D03*
X527050Y641350D02*
G54D26*
D03*
X327025Y933450D02*
G54D24*
D03*
X670587Y780876D02*
G54D17*
D03*
X620271Y1036229D02*
G54D26*
D03*
G36*
X278250Y1418725D02*
X293250Y1418725D01*
X293250Y1403725D01*
X278250Y1403725D01*
X278250Y1418725D01*
G37*
X285750Y1385825D02*
G54D10*
D03*
X285750Y1360425D02*
G54D10*
D03*
X285750Y1309625D02*
G54D10*
D03*
X285750Y1258825D02*
G54D10*
D03*
X361950Y1258825D02*
G54D10*
D03*
X361950Y1309625D02*
G54D10*
D03*
X361950Y1360425D02*
G54D10*
D03*
X361950Y1385825D02*
G54D10*
D03*
X361950Y1411225D02*
G54D10*
D03*
X285750Y1335025D02*
G54D10*
D03*
G36*
X389375Y1418725D02*
X404375Y1418725D01*
X404375Y1403725D01*
X389375Y1403725D01*
X389375Y1418725D01*
G37*
X396875Y1385825D02*
G54D10*
D03*
X396875Y1360425D02*
G54D10*
D03*
X396875Y1309625D02*
G54D10*
D03*
X396875Y1258825D02*
G54D10*
D03*
X473075Y1258825D02*
G54D10*
D03*
X473075Y1309625D02*
G54D10*
D03*
X473075Y1360425D02*
G54D10*
D03*
X473075Y1385825D02*
G54D10*
D03*
X473075Y1411225D02*
G54D10*
D03*
X396875Y1335025D02*
G54D10*
D03*
G36*
X500500Y1418725D02*
X515500Y1418725D01*
X515500Y1403725D01*
X500500Y1403725D01*
X500500Y1418725D01*
G37*
X508000Y1385825D02*
G54D10*
D03*
X508000Y1360425D02*
G54D10*
D03*
X508000Y1309625D02*
G54D10*
D03*
X508000Y1258825D02*
G54D10*
D03*
X584200Y1258825D02*
G54D10*
D03*
X584200Y1309625D02*
G54D10*
D03*
X584200Y1360425D02*
G54D10*
D03*
X584200Y1385825D02*
G54D10*
D03*
X584200Y1411225D02*
G54D10*
D03*
X508000Y1335025D02*
G54D10*
D03*
G36*
X611625Y1418725D02*
X626625Y1418725D01*
X626625Y1403725D01*
X611625Y1403725D01*
X611625Y1418725D01*
G37*
X619125Y1385825D02*
G54D10*
D03*
X619125Y1360425D02*
G54D10*
D03*
X619125Y1309625D02*
G54D10*
D03*
X619125Y1258825D02*
G54D10*
D03*
X695325Y1258825D02*
G54D10*
D03*
X695325Y1309625D02*
G54D10*
D03*
X695325Y1360425D02*
G54D10*
D03*
X695325Y1385825D02*
G54D10*
D03*
X695325Y1411225D02*
G54D10*
D03*
X619125Y1335025D02*
G54D10*
D03*
G36*
X722750Y1418725D02*
X737750Y1418725D01*
X737750Y1403725D01*
X722750Y1403725D01*
X722750Y1418725D01*
G37*
X730250Y1385825D02*
G54D10*
D03*
X730250Y1360425D02*
G54D10*
D03*
X730250Y1309625D02*
G54D10*
D03*
X730250Y1258825D02*
G54D10*
D03*
X806450Y1258825D02*
G54D10*
D03*
X806450Y1309625D02*
G54D10*
D03*
X806450Y1360425D02*
G54D10*
D03*
X806450Y1385825D02*
G54D10*
D03*
X806450Y1411225D02*
G54D10*
D03*
X730250Y1335025D02*
G54D10*
D03*
G54D29*
X327025Y933450D02*
X327025Y915988D01*
X327025Y877888D01*
X255587Y620650D02*
G54D34*
D03*
X731837Y620650D02*
G54D34*
D03*
X490537Y1066738D02*
G54D34*
D03*
G36*
X503091Y1017589D02*
X488949Y1003446D01*
X474807Y1017588D01*
X488949Y1031731D01*
X503091Y1017589D01*
G37*
X798512Y1138238D02*
G54D18*
D03*
X268288Y1309625D02*
G54D12*
D03*
X749300Y1257237D02*
G54D12*
D03*
X673100Y1257237D02*
G54D12*
D03*
G54D29*
X450850Y641350D02*
X431800Y628650D01*
X323850Y628650D01*
X317500Y635000D01*
X317500Y641382D01*
X318791Y642673D01*
X684224Y1044784D02*
G54D32*
D03*
X714624Y1044784D02*
G54D32*
D03*
X703274Y995571D02*
G54D32*
D03*
X733674Y995572D02*
G54D32*
D03*
G54D16*
X732296Y860425D02*
X752475Y860425D01*
X752656Y901230D01*
X752475Y955675D02*
G54D17*
D03*
G54D16*
X727528Y913765D02*
X762000Y914400D01*
X762000Y1017588D01*
G54D16*
X761975Y1035025D02*
X762006Y1055582D01*
X830262Y1055688D01*
X647700Y1112838D02*
G54D12*
D03*
X665163Y1044575D02*
G54D12*
D03*
G54D16*
X703274Y995571D02*
X689184Y995571D01*
X684212Y990600D01*
X684212Y981075D01*
X688975Y974725D01*
X744538Y974725D01*
X752475Y966788D01*
X752475Y955675D01*
G54D30*
X239023Y685224D02*
X239023Y685110D01*
X228600Y685006D01*
X228600Y647637D01*
X255587Y620650D01*
G54D35*
X825500Y1063562D02*
X825500Y1146112D01*
G36*
X814500Y1063562D02*
X836500Y1063562D01*
X836500Y1052562D01*
X814500Y1052562D01*
X814500Y1063562D01*
G37*
G36*
X836500Y1146112D02*
X814500Y1146112D01*
X814500Y1157112D01*
X836500Y1157112D01*
X836500Y1146112D01*
G37*
X442964Y805658D02*
G54D36*
D03*
X406451Y805658D02*
G54D36*
D03*
X442964Y864396D02*
G54D36*
D03*
X406451Y864395D02*
G54D36*
D03*
G54D30*
X488950Y1016000D02*
X488950Y1066800D01*
X493712Y873126D02*
G54D37*
D03*
G54D30*
X493712Y836612D02*
X493712Y873125D01*
G54D16*
X255588Y1111250D02*
X255588Y1138238D01*
G54D16*
X280988Y1111250D02*
X280988Y1138238D01*
G54D16*
X306388Y1111250D02*
X306388Y1136650D01*
G54D16*
X331788Y1111250D02*
X331788Y1138238D01*
G54D16*
X665162Y1044575D02*
X684212Y1044575D01*
G54D16*
X733425Y995362D02*
X762000Y995362D01*
G54D16*
X715962Y1044575D02*
X728662Y1044575D01*
X728662Y1025525D01*
X739775Y1025525D01*
G36*
X556575Y769822D02*
X565060Y761337D01*
X553746Y750023D01*
X545261Y758509D01*
X556575Y769822D01*
G37*
G36*
X578071Y748327D02*
X586556Y739841D01*
X575242Y728528D01*
X566757Y737013D01*
X578071Y748327D01*
G37*
G54D16*
X598488Y663575D02*
X612775Y649288D01*
G54D16*
X577850Y684212D02*
X561975Y700088D01*
G54D16*
X577850Y738188D02*
X588962Y727075D01*
G54D16*
X639762Y703262D02*
X623888Y719138D01*
G54D16*
X647700Y1112838D02*
X647700Y1138175D01*
G54D11*
X561975Y1112838D02*
X561975Y1138175D01*
G54D11*
X550862Y1112838D02*
X550862Y1119188D01*
X538162Y1131888D01*
X447675Y1112838D02*
G54D12*
D03*
G54D11*
X422275Y1112044D02*
X422275Y1138175D01*
G54D11*
X447675Y1112838D02*
X447675Y1138175D01*
X247381Y876031D02*
G54D12*
D03*
X265381Y876031D02*
G54D12*
D03*
X283381Y876031D02*
G54D12*
D03*
X301381Y876031D02*
G54D12*
D03*
X319381Y876031D02*
G54D12*
D03*
X337381Y876031D02*
G54D12*
D03*
X247381Y858031D02*
G54D12*
D03*
X265381Y858031D02*
G54D12*
D03*
X283381Y858031D02*
G54D12*
D03*
X301381Y858031D02*
G54D12*
D03*
X319381Y858031D02*
G54D12*
D03*
X337381Y858031D02*
G54D12*
D03*
X247381Y840031D02*
G54D12*
D03*
X265381Y840031D02*
G54D12*
D03*
X283381Y840031D02*
G54D12*
D03*
X301381Y840031D02*
G54D12*
D03*
X319381Y840031D02*
G54D12*
D03*
X337381Y840031D02*
G54D12*
D03*
X247381Y822031D02*
G54D12*
D03*
X265381Y822031D02*
G54D12*
D03*
X283381Y822031D02*
G54D12*
D03*
X301381Y822031D02*
G54D12*
D03*
X319381Y822031D02*
G54D12*
D03*
X337381Y822031D02*
G54D12*
D03*
X247381Y804031D02*
G54D12*
D03*
X265381Y804031D02*
G54D12*
D03*
X283381Y804031D02*
G54D12*
D03*
X301381Y804031D02*
G54D12*
D03*
X319381Y804031D02*
G54D12*
D03*
X337381Y804031D02*
G54D12*
D03*
X826294Y1059288D02*
G54D38*
D03*
X826294Y1077288D02*
G54D38*
D03*
X826294Y1095288D02*
G54D38*
D03*
X826294Y1113288D02*
G54D38*
D03*
X826294Y1131288D02*
G54D38*
D03*
X826294Y1149288D02*
G54D38*
D03*
G54D39*
X755150Y826053D02*
X754316Y824719D01*
X754316Y823386D01*
X755150Y822052D01*
X756816Y822052D01*
X757650Y822719D01*
X758483Y825386D01*
X759316Y826052D01*
X760983Y826053D01*
X761816Y824719D01*
X761816Y823386D01*
X760983Y822052D01*
G54D39*
X754316Y818386D02*
X761816Y818386D01*
G54D39*
X764316Y818386D02*
X764316Y818386D01*
G54D39*
X754316Y814718D02*
X761816Y814719D01*
G54D39*
X760483Y814718D02*
X761816Y813385D01*
X761316Y812052D01*
X760150Y811385D01*
X754316Y811385D01*
G54D39*
X760483Y811385D02*
X761816Y810052D01*
X761316Y808718D01*
X760150Y808052D01*
X754316Y808052D01*
G54D39*
X761816Y804385D02*
X750983Y804385D01*
G54D39*
X756816Y804385D02*
X754650Y803718D01*
X754316Y802385D01*
X754650Y801051D01*
X756316Y800384D01*
X759650Y800384D01*
X761316Y801051D01*
X761816Y802385D01*
X761316Y803718D01*
X759316Y804385D01*
G54D39*
X754316Y796718D02*
X767649Y796718D01*
G54D39*
X755150Y789050D02*
X754316Y790117D01*
X754316Y791451D01*
X755149Y792784D01*
X756816Y793051D01*
X759650Y793050D01*
X761316Y792384D01*
X761816Y791051D01*
X761316Y789717D01*
X760149Y789050D01*
X758483Y789050D01*
X758483Y793051D01*
G54D39*
X760150Y785384D02*
X760149Y780050D01*
G54D39*
X754316Y772384D02*
X767650Y772384D01*
G54D39*
X759650Y772384D02*
X761316Y773050D01*
X761816Y774384D01*
X761316Y775717D01*
X759650Y776384D01*
X756316Y776384D01*
X754650Y775717D01*
X754316Y774384D01*
X754649Y773050D01*
X756316Y772384D01*
G54D39*
X755150Y764716D02*
X754316Y765783D01*
X754316Y767116D01*
X755149Y768450D01*
X756816Y768716D01*
X759650Y768717D01*
X761316Y768050D01*
X761816Y766716D01*
X761316Y765383D01*
X760150Y764717D01*
X758483Y764717D01*
X758483Y768716D01*
G54D39*
X761816Y761050D02*
X754316Y758383D01*
X761816Y755716D01*
G54D39*
X754316Y752050D02*
X761816Y752050D01*
G54D39*
X764316Y752050D02*
X764316Y752050D01*
G54D39*
X761316Y745049D02*
X761816Y746383D01*
X761316Y747716D01*
X759650Y748383D01*
X756316Y748383D01*
X754650Y747716D01*
X754316Y746383D01*
X754650Y745049D01*
G54D39*
X755149Y737383D02*
X754316Y738449D01*
X754316Y739782D01*
X755149Y741116D01*
X756816Y741382D01*
X759650Y741383D01*
X761316Y740716D01*
X761816Y739383D01*
X761316Y738049D01*
X760150Y737383D01*
X758483Y737383D01*
X758483Y741383D01*
G54D39*
X755150Y733716D02*
X754316Y732382D01*
X754316Y731049D01*
X755150Y729716D01*
X756816Y729716D01*
X757650Y730382D01*
X758483Y733049D01*
X759316Y733716D01*
X760983Y733716D01*
X761816Y732382D01*
X761816Y731049D01*
X760983Y729716D01*
G54D39*
X755483Y721382D02*
X754316Y722315D01*
X754316Y724048D01*
X755483Y725248D01*
X757316Y726049D01*
X762150Y726049D01*
X763983Y725249D01*
X764816Y724048D01*
X764816Y722315D01*
X763316Y721382D01*
X757983Y721382D01*
G54D39*
X759983Y721649D02*
X761316Y721782D01*
X762149Y723115D01*
X761316Y724048D01*
X759983Y724315D01*
X758483Y724049D01*
X757650Y723115D01*
X758483Y721782D01*
X759983Y721649D01*
G54D39*
X754316Y717714D02*
X761816Y717715D01*
G54D39*
X760483Y717714D02*
X761816Y716381D01*
X761316Y715048D01*
X760150Y714381D01*
X754316Y714381D01*
G54D39*
X760483Y714381D02*
X761816Y713048D01*
X761316Y711714D01*
X760149Y711048D01*
X754316Y711048D01*
G54D39*
X760983Y707381D02*
X761816Y706047D01*
X761816Y704447D01*
X760150Y703380D01*
X754316Y703381D01*
G54D39*
X756816Y703380D02*
X758483Y704047D01*
X758816Y705380D01*
X758483Y706714D01*
X756816Y707381D01*
X755150Y707114D01*
X754316Y706047D01*
X754316Y705380D01*
X754316Y705114D01*
X755149Y704047D01*
X756816Y703380D01*
G54D39*
X754316Y699714D02*
X761816Y699714D01*
G54D39*
X764316Y699714D02*
X764316Y699714D01*
G54D39*
X754316Y696047D02*
X767649Y696047D01*
G54D39*
X754316Y691846D02*
X754316Y692380D01*
X754983Y692380D01*
X754983Y691846D01*
X754316Y691846D01*
X754316Y692380D01*
G54D39*
X754316Y688180D02*
X761816Y688180D01*
G54D39*
X760149Y688180D02*
X761816Y686846D01*
X761816Y685513D01*
G54D39*
X761816Y677846D02*
X754316Y677846D01*
G54D39*
X755983Y677846D02*
X754650Y678512D01*
X754316Y679846D01*
X754650Y681179D01*
X755983Y681846D01*
X761816Y681846D01*
X153988Y1314388D02*
G54D12*
D03*
X153988Y1296388D02*
G54D12*
D03*
X153988Y1278388D02*
G54D12*
D03*
X153988Y1260388D02*
G54D12*
D03*
X153988Y1242388D02*
G54D12*
D03*
X826294Y1315181D02*
G54D12*
D03*
X826294Y1297181D02*
G54D12*
D03*
X826294Y1279181D02*
G54D12*
D03*
X826294Y1261181D02*
G54D12*
D03*
X826294Y1243181D02*
G54D12*
D03*
G54D40*
X153988Y1242388D02*
X153988Y1435100D01*
X826294Y1435100D01*
X826294Y1243181D01*
G36*
X146488Y1242388D02*
X161488Y1242388D01*
X161488Y1234888D01*
X146488Y1234888D01*
X146488Y1242388D01*
G37*
G36*
X818794Y1243181D02*
X833794Y1243181D01*
X833794Y1235681D01*
X818794Y1235681D01*
X818794Y1243181D01*
G37*
X761975Y1035025D02*
G54D41*
D03*
X761975Y1016025D02*
G54D41*
D03*
X739775Y1025525D02*
G54D41*
D03*
G54D35*
X155575Y1063562D02*
X155575Y1146112D01*
G36*
X144575Y1063562D02*
X166575Y1063562D01*
X166575Y1052562D01*
X144575Y1052562D01*
X144575Y1063562D01*
G37*
G36*
X166575Y1146112D02*
X144575Y1146112D01*
X144575Y1157112D01*
X166575Y1157112D01*
X166575Y1146112D01*
G37*
X156370Y1059288D02*
G54D38*
D03*
X156370Y1077288D02*
G54D38*
D03*
X156370Y1095288D02*
G54D38*
D03*
X156370Y1113288D02*
G54D38*
D03*
X156370Y1131288D02*
G54D38*
D03*
X156370Y1149288D02*
G54D38*
D03*
M02*
