%FSLAX34Y34*%
%MOMM*%
%LNOUTLINE*%
G71*
G01*
%ADD10C, 0.300*%
%LPD*%
G54D10*
X139700Y1446150D02*
X839788Y1446150D01*
X839788Y1230250D01*
X788988Y1230250D01*
X788988Y1162050D01*
X839788Y1162050D01*
G54D10*
X188912Y1230312D02*
X188912Y1161988D01*
G54D10*
X139700Y1446150D02*
X139700Y1230250D01*
G54D10*
X139700Y1230250D02*
X188912Y1230312D01*
G54D10*
X188912Y1161988D02*
X139700Y1162050D01*
X139700Y1047688D01*
X203200Y1047688D01*
X203200Y561913D01*
X307975Y561975D01*
X307975Y615950D01*
X679450Y615950D01*
X679450Y561975D01*
X785812Y561913D01*
X785812Y1047750D01*
X839788Y1047688D01*
X839788Y1162050D01*
G54D10*
X222250Y1230250D02*
X331788Y1230250D01*
X331788Y1162050D01*
X222250Y1162050D01*
X222250Y1230250D01*
G54D10*
X368300Y1230250D02*
X477838Y1230250D01*
X477838Y1162050D01*
X368300Y1162050D01*
X368300Y1230250D01*
G54D10*
X650875Y1230250D02*
X760412Y1230250D01*
X760412Y1162050D01*
X650875Y1162050D01*
X650875Y1230250D01*
G54D10*
X511175Y1230250D02*
X620712Y1230250D01*
X620712Y1162050D01*
X511175Y1162050D01*
X511175Y1230250D01*
M02*
